# www.meshy.ai
mtllib Meshy_AI_Golden_Prism_0918134625_texture.mtl
o Meshy_AI_Golden_Prism_0918134625_texture
v -0.492188 -0.037354 -0.189453
v -0.494141 -0.027100 -0.190430
v -0.490234 -0.037598 -0.190430
v -0.494141 -0.037598 -0.183594
v -0.492188 -0.026733 -0.184570
v -0.488281 -0.041992 -0.186523
v -0.000307 -0.022095 -0.003448
v -0.157227 -0.021973 0.182617
v -0.159180 -0.021606 -0.003387
v -0.001144 -0.022705 0.179688
v 0.158203 -0.023438 -0.184570
v 0.158203 -0.022339 -0.003555
v -0.002472 -0.023315 -0.179688
v 0.474609 -0.039307 -0.168945
v 0.472656 -0.023315 -0.168945
v 0.472656 -0.023315 -0.165039
v 0.468750 -0.044678 -0.167969
v 0.470703 -0.039062 -0.170898
v 0.472656 -0.039307 -0.166016
v -0.464844 -0.022949 0.168945
v -0.468750 -0.023315 0.170898
v -0.466797 -0.039551 0.167969
v -0.468750 -0.039307 0.165039
v -0.466797 -0.022949 0.166016
v -0.451172 -0.033691 0.154297
v -0.449219 -0.030518 0.158203
v -0.457031 -0.029785 0.157227
v -0.447266 -0.031006 0.150391
v -0.455078 -0.029541 0.150391
v 0.500000 0.016479 -0.201172
v 0.324219 -0.020386 -0.194336
v 0.326172 0.016602 -0.193359
v 0.500000 -0.019775 -0.200195
v 0.500000 0.015869 0.198242
v 0.464844 -0.039551 0.165039
v 0.470703 -0.044434 0.166992
v 0.470703 -0.039307 0.169922
v 0.470703 -0.023682 0.170898
v 0.466797 -0.023438 0.167969
v 0.468750 -0.039551 0.163086
v -0.468750 -0.023560 -0.165039
v -0.474609 -0.039307 -0.165039
v -0.468750 -0.039307 -0.163086
v -0.472656 -0.023315 -0.166016
v -0.466797 -0.023560 -0.166992
v -0.488281 -0.031738 0.191406
v -0.492188 -0.023804 0.194336
v -0.498047 -0.024170 0.186523
v -0.490234 -0.032715 0.187500
v -0.484375 -0.030396 0.189453
v 0.449219 -0.023804 -0.145508
v 0.447266 -0.030518 -0.151367
v 0.455078 -0.029907 -0.148438
v 0.458984 -0.023804 -0.148438
v 0.443359 -0.024292 -0.155273
v 0.492188 -0.038574 0.181641
v 0.488281 -0.042969 0.183594
v 0.488281 -0.038086 0.180664
v 0.494141 -0.037842 0.186523
v 0.492188 -0.027588 0.182617
v -0.326172 -0.020264 -0.194336
v -0.324219 -0.019531 0.192383
v -0.500000 -0.019287 -0.201172
v -0.155273 -0.019897 -0.185547
v -0.500000 0.017822 -0.199219
v -0.322266 0.016235 -0.193359
v -0.453125 -0.038086 -0.155273
v -0.449219 -0.039062 -0.155273
v -0.453125 -0.042969 -0.151367
v -0.453125 -0.038818 -0.150391
v -0.451172 -0.026611 -0.157227
v -0.455078 -0.026489 -0.152344
v 0.482422 -0.023682 0.180664
v 0.486328 -0.029907 0.181641
v 0.484375 -0.023804 0.190430
v 0.494141 -0.023438 0.176758
v 0.492188 -0.029663 0.179688
v 0.326172 -0.023560 -0.195312
v 0.328125 0.039062 -0.195312
v 0.500000 0.037109 -0.204102
v 0.328125 -0.021729 -0.003204
v 0.500000 -0.022461 -0.202148
v -0.472656 -0.022705 0.166016
v -0.472656 -0.039551 0.166016
v -0.474609 -0.039307 0.168945
v -0.472656 -0.023071 0.169922
v -0.455078 -0.030762 -0.148438
v -0.449219 -0.023315 -0.145508
v -0.458984 -0.024048 -0.147461
v -0.457031 -0.029541 -0.153320
v -0.451172 -0.032959 -0.151367
v -0.447266 -0.030151 -0.153320
v 0.486328 -0.038574 -0.185547
v 0.486328 -0.027710 -0.186523
v 0.488281 -0.027100 -0.189453
v 0.488281 -0.042969 -0.185547
v 0.488281 -0.038818 -0.181641
v 0.488281 -0.038574 -0.189453
v -0.447266 -0.023315 0.161133
v -0.447266 -0.023071 0.147461
v -0.458984 -0.023560 0.160156
v -0.001801 0.034424 0.180664
v -0.157227 0.034912 0.184570
v -0.326172 -0.022461 0.192383
v 0.492188 -0.027832 -0.184570
v 0.492188 -0.038086 -0.188477
v 0.492188 -0.026978 -0.188477
v 0.488281 -0.028320 -0.182617
v 0.492188 -0.038574 -0.185547
v 0.449219 -0.030396 0.148438
v 0.451172 -0.032959 0.152344
v 0.447266 -0.030273 0.154297
v 0.457031 -0.029785 0.149414
v 0.443359 -0.024292 0.154297
v 0.449219 -0.024170 0.145508
v -0.492188 -0.023315 -0.194336
v -0.488281 -0.030273 -0.190430
v -0.494141 -0.029053 -0.186523
v -0.482422 -0.029053 -0.187500
v -0.482422 -0.023315 -0.191406
v -0.453125 -0.039307 0.152344
v -0.451172 -0.042725 0.154297
v -0.453125 -0.038330 0.157227
v -0.453125 -0.026245 0.153320
v -0.451172 -0.026001 0.152344
v -0.451172 -0.038818 0.150391
v 0.482422 -0.023804 -0.192383
v 0.492188 -0.024048 -0.195312
v 0.486328 -0.029053 -0.188477
v 0.486328 -0.029663 -0.183594
v 0.482422 -0.024048 -0.182617
v 0.488281 -0.032227 0.184570
v 0.490234 -0.029663 0.188477
v 0.484375 -0.030273 0.186523
v 0.494141 -0.029663 0.184570
v -0.324219 0.040283 -0.195312
v -0.326172 -0.023071 -0.194336
v -0.500000 0.037598 -0.203125
v -0.500000 0.033936 -0.001663
v -0.326172 0.032227 -0.003525
v -0.162109 -0.023438 -0.184570
v -0.163086 0.043701 -0.186523
v -0.472656 -0.039551 -0.169922
v -0.470703 -0.044434 -0.166992
v -0.472656 -0.023193 -0.168945
v -0.468750 -0.039551 -0.169922
v 0.458984 -0.024048 0.157227
v 0.449219 -0.023926 0.162109
v 0.449219 -0.030151 0.158203
v 0.457031 -0.029785 0.155273
v 0.457031 -0.023804 0.148438
v 0.451172 -0.042725 -0.153320
v 0.453125 -0.038818 -0.158203
v 0.455078 -0.038818 -0.152344
v 0.447266 -0.038818 -0.151367
v 0.451172 -0.038818 -0.156250
v 0.449219 -0.038574 -0.150391
v -0.500000 -0.022339 0.202148
v -0.500000 -0.021729 -0.001953
v -0.326172 0.035400 0.193359
v -0.500000 0.035889 0.204102
v -0.488281 -0.030884 0.180664
v -0.492188 -0.023438 0.177734
v -0.480469 -0.023926 0.180664
v -0.484375 -0.030273 0.182617
v 0.156250 0.042725 -0.187500
v -0.004547 0.043945 -0.181641
v 0.158203 0.031982 -0.003265
v 0.328125 0.031494 -0.003662
v 0.486328 -0.038818 0.188477
v 0.484375 -0.037842 0.184570
v -0.451172 -0.026001 -0.150391
v -0.451172 -0.039062 -0.149414
v -0.447266 -0.026001 -0.154297
v -0.326172 -0.021973 -0.003342
v -0.500000 -0.021973 -0.203125
v 0.472656 -0.023560 0.166016
v 0.474609 -0.039551 0.167969
v 0.472656 -0.039795 0.165039
v 0.472656 -0.023804 0.169922
v 0.468750 -0.023560 0.165039
v 0.455078 -0.029907 -0.155273
v 0.451172 -0.033447 -0.153320
v 0.451172 -0.029785 -0.158203
v 0.458984 -0.023315 -0.157227
v -0.500000 0.018066 0.200195
v -0.312500 0.015137 0.187500
v -0.500000 -0.020630 0.200195
v -0.466797 -0.039307 -0.166992
v 0.451172 -0.027100 0.157227
v 0.451172 -0.038574 0.156250
v 0.453125 -0.026978 0.155273
v 0.449219 -0.026489 0.154297
v 0.449219 -0.038818 0.152344
v -0.000431 0.031494 -0.002869
v -0.159180 0.031250 -0.003342
v 0.470703 -0.023560 -0.170898
v -0.488281 -0.026611 -0.189453
v -0.492188 -0.038086 0.184570
v -0.492188 -0.027222 0.185547
v -0.488281 -0.026855 0.183594
v -0.488281 -0.042480 0.185547
v -0.492188 -0.038086 0.188477
v -0.488281 -0.038086 0.182617
v 0.451172 -0.023804 -0.161133
v 0.500000 -0.019653 0.201172
v 0.324219 -0.020264 0.188477
v 0.468750 -0.039307 -0.164062
v 0.466797 -0.038818 -0.166992
v -0.486328 -0.029419 -0.182617
v -0.490234 -0.030029 -0.179688
v -0.490234 -0.033691 -0.185547
v -0.482422 -0.023315 -0.179688
v 0.328125 0.034912 0.193359
v 0.500000 0.035400 -0.001793
v 0.156250 0.034912 0.182617
v 0.326172 -0.022705 0.190430
v 0.500000 0.036621 0.203125
v 0.155273 -0.022583 0.180664
v 0.468750 -0.023926 -0.165039
v -0.155273 -0.019775 0.180664
v -0.449219 -0.038086 0.158203
v -0.447266 -0.039307 0.153320
v -0.492188 -0.023071 -0.176758
v -0.492188 -0.027344 0.189453
v 0.453125 -0.038818 0.151367
v 0.451172 -0.042725 0.152344
v 0.453125 -0.026489 0.151367
v -0.486328 -0.027100 -0.186523
v -0.484375 -0.037842 -0.184570
v -0.488281 -0.026978 -0.180664
v -0.490234 -0.038818 -0.181641
v -0.449219 -0.038574 -0.151367
v 0.500000 -0.021973 0.201172
v 0.500000 -0.021729 -0.001152
v 0.453125 -0.026978 -0.153320
v 0.453125 -0.026611 -0.156250
v -0.468750 -0.039307 0.171875
v 0.490234 -0.030518 -0.181641
v 0.490234 -0.032959 -0.185547
v 0.494141 -0.030273 -0.185547
v 0.490234 -0.023926 -0.178711
v 0.496094 -0.023804 -0.185547
v 0.490234 -0.029907 -0.191406
v -0.468750 -0.044678 0.166992
v 0.158203 -0.020508 -0.184570
v 0.500000 -0.023926 0.182617
v 0.492188 -0.024048 0.192383
v -0.443359 -0.023193 -0.154297
v -0.096191 0.006622 -0.183594
v -0.003342 -0.019897 -0.178711
v 0.466797 -0.023804 -0.166992
v -0.470703 -0.024048 -0.169922
v -0.447266 -0.026489 0.155273
v -0.449219 -0.026611 0.158203
v -0.488281 -0.038086 0.189453
v -0.484375 -0.037842 0.186523
v -0.488281 -0.027588 0.189453
v 0.451172 -0.027222 -0.150391
v 0.157227 -0.019653 0.180664
v 0.250000 0.011414 0.184570
v -0.006744 -0.019531 0.178711
v 0.160156 0.010986 -0.185547
v -0.028442 0.004395 0.178711
v -0.457031 -0.023071 0.149414
v -0.453125 -0.026733 0.157227
v 0.492188 -0.027954 0.189453
v 0.449219 -0.026733 -0.154297
v -0.449219 -0.023682 -0.161133
v -0.451172 -0.029907 -0.156250
v -0.458984 -0.023193 -0.156250
v -0.484375 -0.027588 0.185547
v 0.488281 -0.027710 0.186523
v -0.482422 -0.023560 0.190430
v 0.488671 -0.023784 -0.186914
v 0.470310 -0.023562 -0.167383
v -0.489066 -0.023455 0.185940
v -0.450780 -0.026524 0.155261
v 0.452335 -0.023606 -0.153514
v -0.489131 -0.022408 -0.185791
v 0.489456 -0.027643 -0.186339
v 0.451566 -0.024217 0.153516
v -0.489843 -0.027099 -0.186329
v -0.489073 -0.027505 0.186701
v 0.470315 -0.023528 0.167971
v 0.451660 -0.026905 -0.153567
v -0.451956 -0.023335 -0.152929
v 0.451658 -0.026784 0.154538
v -0.452637 -0.023196 0.154543
v -0.469139 -0.022857 0.168371
v -0.451171 -0.026285 -0.153564
v -0.470321 -0.023657 -0.167372
v 0.490624 -0.023898 0.184567
vn -0.9468 -0.2396 -0.2151
vn -0.6699 0.3019 -0.6783
vn 0.4175 -0.1325 -0.8989
vn -0.9094 -0.1646 0.3820
vn -0.9377 0.2573 0.2333
vn -0.0520 -0.9897 -0.1336
vn -0.0024 -1.0000 0.0018
vn 0.0085 -0.9577 0.2878
vn 0.0003 -1.0000 0.0033
vn -0.0017 -0.9560 0.2934
vn -0.0170 -0.9403 -0.3399
vn 0.0008 -1.0000 0.0027
vn -0.0016 -0.8993 -0.4374
vn 0.9616 -0.1211 -0.2464
vn 0.7844 0.1814 -0.5931
vn 0.7448 0.1401 0.6524
vn -0.0664 -0.9965 -0.0498
vn -0.0576 -0.0768 -0.9954
vn 0.4829 -0.1510 0.8626
vn 0.9986 0.0526 0.0080
vn 0.4428 0.1005 0.8910
vn 0.9376 -0.1196 0.3265
vn 0.4940 -0.0724 -0.8664
vn 0.1638 0.1367 -0.9770
vn -0.1380 -0.9902 -0.0203
vn 0.2501 -0.5670 0.7848
vn -0.7781 -0.5979 0.1929
vn 0.8302 -0.4602 -0.3147
vn -0.4098 -0.5069 -0.7583
vn 0.1950 0.9648 -0.1764
vn -0.0044 -0.9897 -0.1432
vn -0.0221 0.9924 -0.1210
vn 0.2055 -0.9776 -0.0448
vn 0.1048 0.9920 0.0697
vn -0.8686 -0.1488 0.4726
vn -0.0277 -0.9981 0.0554
vn -0.1895 -0.1662 0.9677
vn -0.5018 0.0141 0.8649
vn -0.9397 0.2544 -0.2285
vn -0.2366 -0.0191 -0.9714
vn -0.0788 0.1913 0.9784
vn -0.7394 -0.0443 0.6718
vn 0.3447 -0.0919 0.9342
vn -0.9588 0.1903 0.2108
vn 0.9893 0.1453 -0.0110
vn -0.4212 -0.6084 0.6727
vn -0.1220 0.4333 0.8930
vn -0.9941 -0.0087 0.1082
vn -0.4683 -0.8550 -0.2228
vn 0.6425 -0.5156 0.5669
vn -0.3617 0.4353 0.8244
vn -0.7327 -0.6719 0.1081
vn 0.3035 -0.6623 0.6850
vn 0.8125 0.3839 0.4388
vn -0.8170 0.5675 -0.1021
vn 0.6944 -0.2199 -0.6852
vn -0.0171 -0.9993 -0.0343
vn -0.4620 0.1441 -0.8751
vn 0.8605 -0.2925 0.4171
vn 0.5977 0.4454 -0.6666
vn 0.0041 -0.9900 -0.1412
vn 0.0048 -0.9974 0.0726
vn -0.2134 -0.9759 -0.0466
vn 0.0045 -0.9959 -0.0904
vn -0.1855 0.9668 -0.1757
vn 0.0271 0.9962 -0.0828
vn -0.7729 -0.1664 -0.6123
vn 0.6484 -0.3242 -0.6889
vn -0.0829 -0.9948 -0.0592
vn -0.8307 -0.0391 0.5554
vn 0.1886 0.0912 -0.9778
vn -0.9873 0.1589 0.0017
vn -0.6229 0.4865 -0.6126
vn -0.7763 -0.5072 -0.3742
vn -0.7646 0.5244 0.3745
vn 0.3068 0.4275 -0.8503
vn 0.0203 -0.5964 -0.8024
vn -0.0128 -0.9527 -0.3036
vn -0.0076 0.9086 -0.4175
vn 0.1513 0.9494 -0.2751
vn 0.0022 -1.0000 0.0019
vn 0.3205 -0.9374 -0.1361
vn -0.6433 0.2005 -0.7388
vn -0.3547 -0.0632 -0.9328
vn -0.9015 -0.1615 0.4014
vn -0.6094 0.1666 0.7751
vn -0.0523 -0.6171 0.7851
vn 0.4281 0.1993 0.8815
vn -0.6933 0.4783 0.5390
vn -0.7283 -0.6316 -0.2658
vn -0.0618 -0.9884 -0.1390
vn 0.7457 -0.6475 0.1570
vn -0.9841 -0.0984 -0.1476
vn -0.9594 0.1951 0.2037
vn -0.6073 0.1713 -0.7758
vn 0.0333 -0.9978 -0.0582
vn -0.3609 -0.1316 0.9233
vn -0.2370 -0.1608 -0.9581
vn 0.7458 0.4439 0.4967
vn 0.5051 0.5315 -0.6800
vn -0.5346 0.3536 0.7676
vn 0.0020 0.9594 0.2821
vn 0.0148 0.9584 0.2851
vn 0.0124 -0.9772 0.2118
vn 0.8854 0.1770 0.4298
vn 0.8402 -0.2131 -0.4986
vn 0.5939 0.2020 -0.7788
vn 0.1859 0.2309 0.9551
vn 0.7763 -0.1669 0.6079
vn -0.4878 -0.5856 -0.6474
vn 0.0573 -0.9982 0.0169
vn -0.7772 -0.5868 0.2271
vn 0.4913 -0.5448 -0.6796
vn -0.8991 0.4292 -0.0863
vn -0.2096 0.4912 -0.8455
vn -0.3095 0.1946 -0.9308
vn -0.0630 -0.6519 -0.7557
vn -0.9940 -0.0748 -0.0800
vn 0.6383 -0.5947 -0.4889
vn 0.8049 0.5301 -0.2667
vn -0.9101 -0.0826 -0.4060
vn -0.0075 -0.9918 0.1277
vn -0.8996 -0.1454 0.4119
vn -0.9727 0.1377 -0.1866
vn -0.0077 0.2908 -0.9567
vn 0.3472 -0.0242 -0.9375
vn -0.8462 0.2312 -0.4801
vn 0.2048 0.4017 -0.8926
vn -0.5173 -0.6807 -0.5187
vn -0.7387 -0.6586 0.1433
vn -0.7438 0.3629 0.5613
vn 0.0546 -0.9985 -0.0045
vn 0.4006 -0.6590 0.6365
vn -0.5288 -0.5927 0.6075
vn 0.6404 -0.7577 -0.1258
vn 0.0074 0.9596 -0.2812
vn 0.0186 -0.8994 -0.4367
vn -0.2716 0.8283 -0.4901
vn -0.2411 0.9705 0.0081
vn 0.0020 0.9997 0.0228
vn 0.0160 -0.9463 -0.3230
vn 0.0046 0.9785 -0.2063
vn -0.7710 -0.0779 -0.6321
vn 0.0066 -0.9992 0.0394
vn -0.5379 0.1260 -0.8335
vn 0.2853 -0.0961 -0.9536
vn 0.6579 0.3988 0.6388
vn -0.3228 0.4997 0.8038
vn 0.1224 -0.6495 0.7504
vn 0.7359 -0.6041 0.3060
vn 0.6741 0.6350 -0.3772
vn 0.0040 -0.9995 0.0322
vn 0.8368 -0.1149 -0.5353
vn 0.8755 -0.1175 0.4688
vn -0.9418 -0.1339 -0.3084
vn -0.6851 -0.0588 -0.7261
vn -0.2054 -0.0639 0.9766
vn -0.2519 -0.8452 0.4714
vn -0.3149 -0.9491 -0.0013
vn 0.0172 0.9788 0.2040
vn -0.5244 0.8208 0.2266
vn -0.0226 -0.5980 -0.8011
vn -0.5236 0.1694 -0.8350
vn 0.6179 0.5275 -0.5831
vn 0.7380 -0.6703 -0.0778
vn -0.0011 0.9573 -0.2892
vn 0.0004 0.9834 -0.1813
vn 0.0012 0.9997 0.0229
vn -0.0006 0.9999 0.0132
vn -0.1861 -0.3148 0.9307
vn -0.9883 0.1229 0.0906
vn 0.0884 0.2669 0.9597
vn 0.4975 -0.0144 0.8673
vn 0.9678 0.1337 0.2132
vn -0.0013 -1.0000 0.0028
vn -0.3159 -0.9385 -0.1393
vn 0.7839 0.2020 -0.5870
vn 0.9655 -0.0904 0.2444
vn 0.5364 -0.0348 -0.8432
vn 0.7544 0.1192 0.6455
vn 0.0077 0.2199 -0.9755
vn 0.7532 -0.6233 -0.2101
vn 0.0597 -0.9976 -0.0364
vn -0.0400 -0.5906 -0.8060
vn 0.7660 0.2927 -0.5723
vn -0.1899 0.9775 0.0919
vn 0.0373 0.9950 0.0927
vn -0.2044 -0.9747 0.0907
vn 0.9466 -0.1056 -0.3047
vn -0.6379 0.0366 0.7692
vn 0.4028 -0.2768 0.8724
vn 0.9394 0.0036 0.3429
vn -0.9282 0.2400 -0.2844
vn -0.9710 -0.0540 -0.2330
vn -0.0017 0.9997 0.0256
vn 0.0022 0.9999 0.0151
vn -0.5147 0.1126 -0.8499
vn 0.5739 0.1692 -0.8013
vn -0.7279 -0.1243 -0.6743
vn -0.9099 0.2303 -0.3450
vn -0.1502 0.2720 -0.9505
vn 0.0243 -0.9997 0.0000
vn -0.8624 -0.2542 0.4378
vn 0.2945 -0.1117 -0.9491
vn -0.4052 0.2415 -0.8817
vn 0.1959 -0.9767 0.0874
vn -0.0032 -0.9971 0.0759
vn -0.3184 -0.1071 0.9419
vn -0.8932 -0.0502 -0.4469
vn 0.7651 -0.5306 0.3648
vn -0.1478 -0.6247 0.7668
vn 0.0163 -0.9994 0.0290
vn 0.7324 0.3866 0.5605
vn -0.0266 0.9632 0.2676
vn 0.3991 0.9169 -0.0044
vn -0.0076 0.9629 0.2698
vn -0.0150 -0.9610 0.2761
vn 0.2551 0.8372 0.4838
vn -0.0113 -0.9573 0.2890
vn -0.0073 0.1205 0.9927
vn 0.0028 -0.9979 0.0654
vn 0.3133 -0.2000 0.9283
vn 0.9836 -0.1762 -0.0396
vn -0.6051 0.5492 0.5764
vn -0.5112 0.1917 0.8378
vn 0.9889 -0.1344 0.0630
vn -0.2287 -0.3327 -0.9149
vn -0.0229 0.1753 -0.9842
vn 0.8549 0.2419 0.4589
vn 0.9808 -0.1258 -0.1487
vn 0.0385 0.2890 0.9565
vn 0.4049 -0.2224 0.8869
vn 0.9693 -0.2158 -0.1180
vn 0.5301 -0.8153 0.2329
vn 0.2197 -0.9756 -0.0008
vn 0.9830 0.1834 0.0106
vn -0.1479 0.2667 -0.9524
vn 0.0164 -0.1391 0.9901
vn -0.0604 -0.5521 0.8316
vn -0.1358 -0.9880 -0.0741
vn 0.8537 -0.4710 0.2219
vn 0.3059 0.4831 0.8204
vn 0.9011 0.4272 -0.0742
vn 0.4838 -0.6321 -0.6053
vn -0.0114 -0.9997 0.0227
vn -0.0064 -0.9961 -0.0876
vn 0.9200 0.2634 0.2903
vn 0.2567 0.2560 0.9320
vn 0.8234 0.5674 -0.0133
vn 0.0228 0.9979 -0.0599
vn -0.0009 -0.9975 -0.0702
vn -0.9870 0.1603 0.0113
vn 0.5311 0.1224 -0.8384
vn 0.8213 0.2294 -0.5224
vn 0.6553 0.1315 0.7439
vn 0.1809 -0.2084 0.9612
vn 0.9460 -0.1769 0.2716
vn 0.4958 0.1961 0.8460
vn 0.1077 0.2056 0.9727
vn -0.0045 -0.9982 0.0596
vn -0.0263 0.9906 0.1344
vn 0.0011 -0.9784 0.2066
vn -0.0241 0.9988 -0.0419
vn -0.0006 0.9988 0.0490
vn -0.7470 0.4274 -0.5093
vn -0.5878 0.1650 0.7920
vn 0.1141 0.2922 0.9495
vn -0.9253 0.2187 -0.3097
vn 0.2352 0.2722 -0.9330
vn -0.1859 -0.6465 -0.7400
vn -0.6960 0.3335 -0.6359
vn 0.8979 0.2697 -0.3479
vn -0.7885 0.5473 -0.2805
vn 0.7765 0.4408 0.4502
vn -0.0041 1.0000 0.0008
vn -0.0984 0.9948 0.0259
vn -0.0151 0.9999 0.0063
vn -0.0155 0.9940 0.1087
vn -0.0424 0.9991 0.0088
vn -0.2957 0.9553 -0.0085
vn -0.0508 0.9812 0.1861
vn -0.0226 0.9997 -0.0037
vn 0.0170 0.9998 0.0114
vn 0.0505 0.9936 0.1009
vn 0.0364 0.9991 0.0208
vn 0.0334 0.9929 0.1146
vn -0.0224 0.9997 0.0079
vn 0.0902 0.9870 0.1329
vn -0.0100 0.9995 0.0292
vn 0.0121 0.9967 0.0804
vn -0.0842 0.9925 -0.0886
vn 0.0914 0.9922 -0.0849
vn 0.0136 0.9994 0.0333
vt 0.098289 0.933659
vt 0.185786 0.941314
vt 0.092458 0.951119
vt 0.093135 0.882132
vt 0.185683 0.889479
vt 0.372689 0.672590
vt 0.330773 0.653045
vt 0.380169 0.630808
vt 0.361388 0.682588
vt 0.550097 0.001542
vt 0.601358 0.044806
vt 0.550097 0.045325
vt 0.600567 0.001792
vt 0.309799 0.044196
vt 0.259516 0.000131
vt 0.309799 0.000165
vt 0.613327 0.981806
vt 0.613327 0.938008
vt 0.663930 0.982071
vt 0.260842 0.044763
vt 0.541307 0.645539
vt 0.541307 0.601290
vt 0.590394 0.644956
vt 0.024955 0.430361
vt 0.024491 0.439005
vt 0.022542 0.437801
vt 0.497727 0.440933
vt 0.465674 0.428627
vt 0.503532 0.420023
vt 0.022657 0.430526
vt 0.022290 0.427300
vt 0.564840 0.468596
vt 0.846095 0.048503
vt 0.872701 0.048503
vt 0.862443 0.148833
vt 0.040413 0.199962
vt 0.058065 0.300071
vt 0.037149 0.304725
vt 0.058002 0.174283
vt 0.058002 0.279097
vt 0.037706 0.180989
vt 0.593346 0.500912
vt 0.627347 0.513288
vt 0.591136 0.551984
vt 0.167307 0.000202
vt 0.197696 0.022281
vt 0.148629 0.027425
vt 0.552911 0.523488
vt 0.996910 0.919303
vt 0.965694 0.962268
vt 0.952769 0.902557
vt 0.037186 0.409956
vt 0.037186 0.305387
vt 0.058028 0.310891
vt 0.057997 0.437061
vt 0.037217 0.433397
vt 0.054546 0.332549
vt 0.829035 0.747585
vt 0.851873 0.846507
vt 0.820116 0.749914
vt 0.872533 0.739581
vt 0.795424 0.569876
vt 0.773723 0.649419
vt 0.726216 0.609833
vt 0.222966 0.149940
vt 0.181648 0.126085
vt 0.224371 0.038022
vt 0.517544 0.719434
vt 0.629471 0.719434
vt 0.616836 0.747266
vt 0.567582 0.827004
vt 0.670701 0.827004
vt 0.568305 0.854299
vt 0.825460 0.604367
vt 0.109699 0.602324
vt 0.135750 0.524238
vt 0.159670 0.542771
vt 0.595379 0.353233
vt 0.597770 0.328127
vt 0.698538 0.333408
vt 0.646260 0.438398
vt 0.579840 0.360766
vt 0.201799 0.565064
vt 0.261622 0.576878
vt 0.247233 0.639201
vt 0.994921 0.372700
vt 0.966105 0.401516
vt 0.967448 0.341453
vt 0.368659 0.328506
vt 0.384488 0.248215
vt 0.394564 0.319077
vt 0.200302 0.535196
vt 0.473806 0.105996
vt 0.489546 0.046722
vt 0.530368 0.085409
vt 0.826478 0.112987
vt 0.748433 0.116792
vt 0.759415 0.054513
vt 0.433933 0.040555
vt 0.319915 0.388924
vt 0.382735 0.405150
vt 0.328746 0.430471
vt 0.331664 0.334575
vt 0.070371 0.826836
vt 0.083607 0.792355
vt 0.167231 0.853410
vt 0.068092 0.875134
vt 0.809230 0.726635
vt 0.840130 0.631533
vt 0.851353 0.742419
vt 0.816226 0.566733
vt 0.859156 0.552784
vt 0.853172 0.661819
vt 0.351786 0.969124
vt 0.396940 0.978067
vt 0.350959 0.978583
vt 0.307549 0.970127
vt 0.720864 0.652364
vt 0.823213 0.652364
vt 0.823290 0.674227
vt 0.224874 0.771595
vt 0.285736 0.806734
vt 0.189192 0.874737
vt 0.559687 0.200978
vt 0.668056 0.188038
vt 0.629406 0.251632
vt 0.336110 0.779252
vt 0.243715 0.780865
vt 0.337933 0.747779
vt 0.203483 0.913646
vt 0.191537 0.876880
vt 0.290456 0.875697
vt 0.946559 0.225190
vt 0.899933 0.289364
vt 0.875839 0.256271
vt 0.338036 0.209360
vt 0.379626 0.258926
vt 0.287007 0.279722
vt 0.995041 0.818819
vt 0.955378 0.761464
vt 0.995041 0.753949
vt 0.402076 0.635598
vt 0.472122 0.677459
vt 0.428396 0.681185
vt 0.014796 0.338547
vt 0.000164 0.378748
vt 0.000004 0.332648
vt 0.482651 0.747269
vt 0.495117 0.713017
vt 0.589870 0.745396
vt 0.097183 0.932659
vt 0.033552 0.886429
vt 0.089171 0.881352
vt 0.055335 0.034266
vt 0.094844 0.005561
vt 0.119800 0.040813
vt 0.401415 0.591670
vt 0.401415 0.698907
vt 0.368688 0.687445
vt 0.946371 0.335992
vt 0.946371 0.291773
vt 0.995185 0.337411
vt 0.793979 0.464476
vt 0.827839 0.453475
vt 0.829603 0.560339
vt 0.657582 0.858801
vt 0.554554 0.858801
vt 0.651313 0.835822
vt 0.037233 0.741075
vt 0.068835 0.838337
vt 0.048048 0.843533
vt 0.463981 0.203424
vt 0.486823 0.111809
vt 0.537654 0.192147
vt 0.466355 0.163578
vt 0.452548 0.196105
vt 0.432513 0.154473
vt 0.484778 0.250426
vt 0.422500 0.121999
vt 0.488890 0.102702
vt 0.859581 0.212980
vt 0.932532 0.193432
vt 0.944563 0.215053
vt 0.772347 0.250605
vt 0.710008 0.259366
vt 0.751422 0.197307
vt 0.769888 0.307721
vt 0.111858 0.287960
vt 0.105298 0.250755
vt 0.206000 0.284327
vt 0.503714 0.747544
vt 0.609754 0.747544
vt 0.517131 0.782797
vt 0.808754 0.895602
vt 0.858141 0.861588
vt 0.907575 0.896202
vt 0.890475 0.957115
vt 0.673352 0.541047
vt 0.614706 0.593725
vt 0.018791 0.387784
vt 0.019637 0.439054
vt 0.000868 0.439054
vt 0.000097 0.387992
vt 0.994472 0.056652
vt 0.995811 0.071956
vt 0.948967 0.060592
vt 0.992508 0.006485
vt 0.101588 0.219161
vt 0.108210 0.294845
vt 0.074669 0.225632
vt 0.201733 0.209931
vt 0.196301 0.247496
vt 0.108820 0.203126
vt 0.112592 0.177753
vt 0.647150 0.920497
vt 0.614515 0.906897
vt 0.636552 0.878691
vt 0.388945 0.157709
vt 0.419338 0.107057
vt 0.426681 0.161010
vt 0.681702 0.857500
vt 0.330789 0.208149
vt 0.345277 0.130469
vt 0.653898 0.111721
vt 0.705547 0.141891
vt 0.671522 0.175916
vt 0.742814 0.116912
vt 0.529148 0.459386
vt 0.463801 0.476522
vt 0.445094 0.434507
vt 0.865406 0.612941
vt 0.884690 0.593657
vt 0.892551 0.627706
vt 0.847179 0.692154
vt 0.423915 0.291899
vt 0.473252 0.226104
vt 0.439929 0.298046
vt 0.851333 0.086952
vt 0.859307 0.169072
vt 0.845676 0.171475
vt 0.410976 0.315453
vt 0.982984 0.839019
vt 0.922788 0.876634
vt 0.940568 0.807177
vt 0.269257 0.518224
vt 0.304686 0.405730
vt 0.353056 0.459547
vt 0.264947 0.438538
vt 0.436788 0.709920
vt 0.427935 0.744767
vt 0.402850 0.708540
vt 0.467142 0.743692
vt 0.879352 0.482981
vt 0.917472 0.481628
vt 0.904877 0.508505
vt 0.523247 0.977576
vt 0.519004 0.961743
vt 0.566620 0.963818
vt 0.983189 0.069779
vt 0.983189 0.137424
vt 0.950210 0.106877
vt 0.453581 0.041730
vt 0.479809 0.005631
vt 0.519778 0.037456
vt 0.478274 0.973872
vt 0.942516 0.550151
vt 0.984911 0.546225
vt 0.986456 0.563877
vt 0.940037 0.499574
vt 0.398482 0.056287
vt 0.424751 0.068537
vt 0.394981 0.081392
vt 0.318724 0.066437
vt 0.319682 0.052352
vt 0.399420 0.037503
vt 0.194825 0.505875
vt 0.191419 0.524707
vt 0.165670 0.510325
vt 0.326672 0.533421
vt 0.325810 0.604882
vt 0.279345 0.592432
vt 0.285258 0.538089
vt 0.237725 0.377459
vt 0.278973 0.364057
vt 0.275462 0.425826
vt 0.746805 0.532594
vt 0.723947 0.449942
vt 0.798732 0.480667
vt 0.674039 0.556847
vt 0.707537 0.482161
vt 0.812394 0.560418
vt 0.836531 0.875074
vt 0.734263 0.875074
vt 0.831638 0.787975
vt 0.289407 0.745745
vt 0.182720 0.745745
vt 0.278795 0.713554
vt 0.078197 0.452485
vt 0.078197 0.554915
vt 0.044151 0.554859
vt 0.098573 0.684928
vt 0.070643 0.692412
vt 0.075355 0.586325
vt 0.826716 0.220856
vt 0.752077 0.195679
vt 0.825993 0.133414
vt 0.862393 0.211068
vt 0.858072 0.180324
vt 0.912032 0.196668
vt 0.825101 0.276593
vt 0.780124 0.295511
vt 0.831230 0.364305
vt 0.773712 0.328510
vt 0.242724 0.934903
vt 0.242724 0.979600
vt 0.191475 0.936202
vt 0.235629 0.017344
vt 0.202188 0.071951
vt 0.192425 0.024187
vt 0.049473 0.774974
vt 0.069915 0.775097
vt 0.068184 0.824663
vt 0.951313 0.641505
vt 0.997380 0.674975
vt 0.966922 0.717647
vt 0.052378 0.721958
vt 0.261411 0.978902
vt 0.416148 0.343459
vt 0.369065 0.472036
vt 0.294087 0.815031
vt 0.395602 0.815031
vt 0.395188 0.832230
vt 0.703501 0.921094
vt 0.787859 0.924040
vt 0.700385 0.956558
vt 0.945689 0.327256
vt 0.945689 0.356019
vt 0.863388 0.347941
vt 0.810164 0.947253
vt 0.847997 0.978998
vt 0.779532 0.980226
vt 0.887900 0.004513
vt 0.884122 0.047702
vt 0.837537 0.003112
vt 0.068786 0.767584
vt 0.037143 0.670195
vt 0.070405 0.659155
vt 0.872105 0.760321
vt 0.872105 0.861780
vt 0.850145 0.859610
vt 0.052689 0.874504
vt 0.028219 0.874504
vt 0.034265 0.774732
vt 0.832012 0.480296
vt 0.832012 0.378608
vt 0.857184 0.479930
vt 0.559445 0.049822
vt 0.523694 0.037566
vt 0.934303 0.461899
vt 0.898097 0.474366
vt 0.913655 0.435814
vt 0.689683 0.106433
vt 0.684475 0.037624
vt 0.425971 0.479967
vt 0.457242 0.473320
vt 0.425008 0.531713
vt 0.121469 0.288552
vt 0.167305 0.287649
vt 0.168615 0.296964
vt 0.847350 0.377858
vt 0.843900 0.276639
vt 0.853287 0.275818
vt 0.053417 0.451148
vt 0.074828 0.458105
vt 0.042587 0.555266
vt 0.798908 0.279659
vt 0.155584 0.393160
vt 0.827403 0.234629
vt 0.827403 0.132909
vt 0.837126 0.233724
vt 0.180566 0.538169
vt 0.598414 0.980050
vt 0.518014 0.980050
vt 0.598107 0.960749
vt 0.892962 0.502724
vt 0.914417 0.515455
vt 0.866953 0.588544
vt 0.497670 0.757614
vt 0.420896 0.775048
vt 0.420601 0.747201
vt 0.733722 0.346593
vt 0.072680 0.574283
vt 0.104429 0.559478
vt 0.102464 0.665485
vt 0.679552 0.188681
vt 0.658894 0.649135
vt 0.609144 0.644957
vt 0.610479 0.600800
vt 0.652927 0.007110
vt 0.682739 0.048144
vt 0.617211 0.032522
vt 0.043826 0.981652
vt 0.000081 0.982239
vt 0.000081 0.930440
vt 0.192936 0.980243
vt 0.042923 0.931074
vt 0.661455 0.604995
vt 0.564526 0.495260
vt 0.463835 0.477506
vt 0.562980 0.477594
vt 0.327039 0.351894
vt 0.303507 0.395534
vt 0.612793 0.859562
vt 0.565461 0.893614
vt 0.802471 0.732170
vt 0.777452 0.763543
vt 0.733125 0.702532
vt 0.943806 0.045080
vt 0.890508 0.086002
vt 0.873154 0.065320
vt 0.737987 0.671499
vt 0.683311 0.702196
vt 0.686268 0.639586
vt 0.668096 0.919858
vt 0.668096 0.884286
vt 0.767029 0.910965
vt 0.114180 0.398426
vt 0.114180 0.289783
vt 0.151730 0.385323
vt 0.723968 0.747193
vt 0.478528 0.511363
vt 0.560192 0.512437
vt 0.525705 0.554607
vt 0.914636 0.390459
vt 0.865401 0.459737
vt 0.382658 0.080414
vt 0.930047 0.469648
vt 0.955670 0.433782
vt 0.996938 0.463765
vt 0.836323 0.047145
vt 0.706564 0.001220
vt 0.746910 0.030533
vt 0.680816 0.037260
vt 0.947455 0.007787
vt 0.300365 0.860139
vt 0.399407 0.836721
vt 0.303158 0.868734
vt 0.079173 0.452926
vt 0.099910 0.452926
vt 0.079426 0.555461
vt 0.293242 0.816022
vt 0.020433 0.430044
vt 0.487906 0.398322
vt 0.468285 0.400119
vt 0.824253 0.741378
vt 0.734208 0.697460
vt 0.741276 0.674014
vt 0.770253 0.036501
vt 0.780128 0.006107
vt 0.812382 0.037307
vt 0.403757 0.430784
vt 0.404953 0.387810
vt 0.518640 0.310266
vt 0.545925 0.263008
vt 0.542639 0.334849
vt 0.464904 0.251640
vt 0.622728 0.943916
vt 0.692023 0.943916
vt 0.662125 0.978629
vt 0.997001 0.585466
vt 0.997001 0.638788
vt 0.950492 0.588372
vt 0.149898 0.515156
vt 0.117985 0.526771
vt 0.119726 0.418468
vt 0.000210 0.387223
vt 0.015246 0.340946
vt 0.015577 0.386559
vt 0.949225 0.572855
vt 0.912967 0.007409
vt 0.926457 0.048927
vt 0.876207 0.062152
vt 0.020475 0.437654
vt 0.217079 0.336260
vt 0.257219 0.231986
vt 0.262447 0.330689
vt 0.026864 0.082358
vt 0.026864 0.037524
vt 0.129032 0.042067
vt 0.221437 0.345221
vt 0.915702 0.618182
vt 0.440719 0.328044
vt 0.419625 0.353441
vt 0.711316 0.377632
vt 0.769421 0.309966
vt 0.768767 0.377632
vt 0.769147 0.398761
vt 0.711092 0.398618
vt 0.593656 0.315841
vt 0.954051 0.130666
vt 0.893013 0.086319
vt 0.944260 0.080977
vt 0.944024 0.130056
vt 0.881264 0.108231
vt 0.391615 0.760356
vt 0.367648 0.687850
vt 0.395872 0.788717
vt 0.834740 0.201048
vt 0.841926 0.174228
vt 0.853513 0.275205
vt 0.320796 0.954978
vt 0.404714 0.951864
vt 0.402377 0.978575
vt 0.513432 0.909468
vt 0.441054 0.896706
vt 0.525920 0.889497
vt 0.090646 0.949073
vt 0.052490 0.961470
vt 0.031703 0.886088
vt 0.261173 0.614443
vt 0.352355 0.616804
vt 0.304512 0.685015
vt 0.328623 0.718395
vt 0.291814 0.875174
vt 0.173332 0.386365
vt 0.191084 0.285686
vt 0.191246 0.399069
vt 0.867294 0.591853
vt 0.937487 0.540855
vt 0.948690 0.570522
vt 0.710170 0.281621
vt 0.662304 0.271341
vt 0.511437 0.785293
vt 0.406175 0.785293
vt 0.504421 0.756888
vt 0.926580 0.169941
vt 0.959065 0.209648
vt 0.947968 0.218960
vt 0.962419 0.144139
vt 0.392295 0.841699
vt 0.402835 0.874138
vt 0.295734 0.872406
vt 0.128718 0.668020
vt 0.215528 0.731092
vt 0.115503 0.718048
vt 0.935145 0.365994
vt 0.850942 0.365994
vt 0.850253 0.345896
vt 0.658209 0.859375
vt 0.658209 0.836234
vt 0.761130 0.847805
vt 0.089002 0.880435
vt 0.183584 0.849703
vt 0.190722 0.888827
vt 0.069544 0.558026
vt 0.038004 0.655097
vt 0.045055 0.558092
vt 0.296963 0.873266
vt 0.296963 0.942718
vt 0.204270 0.928081
vt 0.347573 0.690118
vt 0.329040 0.716075
vt 0.309288 0.689862
vt 0.286067 0.125570
vt 0.238779 0.099582
vt 0.280780 0.049526
vt 0.302310 0.096514
vt 0.366874 0.714136
vt 0.275698 0.165612
vt 0.197789 0.657751
vt 0.147788 0.655130
vt 0.191337 0.604864
vt 0.618265 0.037578
vt 0.656501 0.098091
vt 0.584609 0.081642
vt 0.556301 0.067466
vt 0.513777 0.785150
vt 0.613200 0.752846
vt 0.614491 0.790815
vt 0.896628 0.791714
vt 0.932183 0.796766
vt 0.923412 0.868198
vt 0.945600 0.772550
vt 0.857032 0.712253
vt 0.948593 0.686848
vt 0.901186 0.785278
vt 0.149370 0.058556
vt 0.193254 0.067086
vt 0.127632 0.153401
vt 0.107684 0.051549
vt 0.151410 0.049362
vt 0.401703 0.924898
vt 0.434813 0.895955
vt 0.457661 0.932322
vt 0.414239 0.973835
vt 0.325943 0.342999
vt 0.263942 0.346140
vt 0.351152 0.295061
vt 0.959313 0.960551
vt 0.893671 0.978583
vt 0.899985 0.927162
vt 0.116535 0.405402
vt 0.130339 0.393779
vt 0.157268 0.393779
vt 0.515864 0.646206
vt 0.489986 0.683164
vt 0.515456 0.629121
vt 0.148902 0.502126
vt 0.997881 0.279264
vt 0.997421 0.293778
vt 0.355444 0.005127
vt 0.397047 0.035353
vt 0.330136 0.040754
vt 0.619350 0.748069
vt 0.725001 0.748069
vt 0.717578 0.777338
vt 0.464760 0.328148
vt 0.593640 0.378445
vt 0.598195 0.474359
vt 0.948525 0.607348
vt 0.923773 0.683529
vt 0.921233 0.607049
vt 0.634735 0.916583
vt 0.537474 0.916583
vt 0.537440 0.890028
vt 0.197159 0.613513
vt 0.483629 0.381651
vt 0.570381 0.331581
vt 0.477091 0.360575
vt 0.259151 0.612679
vt 0.388604 0.617048
vt 0.616241 0.775161
vt 0.615296 0.748098
vt 0.715735 0.780762
vt 0.519956 0.325289
vt 0.182197 0.746497
vt 0.288450 0.746497
vt 0.195287 0.781870
vt 0.625605 0.664236
vt 0.632231 0.746527
vt 0.198319 0.798993
vt 0.094231 0.798993
vt 0.186163 0.764401
vt 0.872397 0.101730
vt 0.922995 0.148219
vt 0.906874 0.168127
vt 0.893889 0.307890
vt 0.851548 0.321648
vt 0.859844 0.218559
vt 0.859786 0.345181
vt 0.855665 0.321814
vt 0.938776 0.327506
vt 0.821842 0.329328
vt 0.834730 0.362902
vt 0.783435 0.282934
vt 0.918432 0.858706
vt 0.873121 0.858706
vt 0.872885 0.759942
vt 0.793854 0.713206
vt 0.715972 0.652359
vt 0.823248 0.678820
vt 0.816621 0.699653
vt 0.176959 0.090373
vt 0.176959 0.199711
vt 0.135325 0.182891
vt 0.326965 0.179340
vt 0.267510 0.209634
vt 0.308945 0.079464
vt 0.771585 0.282387
vt 0.735257 0.734701
vt 0.820396 0.796559
vt 0.707478 0.806493
vt 0.313447 0.196095
vt 0.359038 0.747293
vt 0.541301 0.095362
vt 0.286578 0.733083
vt 0.541745 0.600223
vt 0.923912 0.692481
vt 0.946552 0.223974
vt 0.871476 0.244090
vt 0.861539 0.219649
vt 0.225146 0.165542
vt 0.859389 0.194948
vt 0.109069 0.677685
vt 0.129626 0.616141
vt 0.070670 0.788786
vt 0.070670 0.693207
vt 0.143883 0.778961
vt 0.710249 0.473987
vt 0.662930 0.410565
vt 0.710249 0.399468
vt 0.402242 0.634165
vt 0.199305 0.682223
vt 0.197518 0.579852
vt 0.269181 0.668454
vt 0.203827 0.271828
vt 0.203827 0.153431
vt 0.270273 0.194996
vt 0.226011 0.685071
vt 0.446433 0.390373
vt 0.872334 0.463879
vt 0.888319 0.513934
vt 0.836890 0.512138
vt 0.951020 0.638679
vt 0.149176 0.030768
vt 0.698474 0.491124
vt 0.599915 0.491957
vt 0.462069 0.409318
vt 0.951585 0.686190
vt 0.924586 0.686190
vt 0.949255 0.609320
vt 0.270521 0.663659
vt 0.915286 0.394757
vt 0.922730 0.382844
vt 0.958912 0.422917
vt 0.071358 0.556159
vt 0.071358 0.658444
vt 0.041123 0.657894
vt 0.948774 0.765646
vt 0.948774 0.699080
vt 0.982159 0.736533
vt 0.963893 0.422310
vt 0.932845 0.458300
vt 0.862066 0.463152
vt 0.862066 0.366646
vt 0.913465 0.372953
vt 0.932603 0.296677
vt 0.942707 0.324438
vt 0.858971 0.320663
vt 0.861148 0.377501
vt 0.861148 0.477457
vt 0.834462 0.383480
vt 0.707483 0.651634
vt 0.830258 0.649922
vt 0.223015 0.452537
vt 0.172410 0.469400
vt 0.172410 0.401978
vt 0.176065 0.501189
vt 0.227688 0.511367
vt 0.410962 0.185390
vt 0.445774 0.243129
vt 0.549023 0.044371
vt 0.519058 0.034635
vt 0.539845 0.008416
vt 0.687150 0.929522
vt 0.687150 0.943196
vt 0.589613 0.935017
vt 0.871016 0.569175
vt 0.768849 0.467045
vt 0.718319 0.951174
vt 0.794160 0.926146
vt 0.803749 0.952493
vt 0.515372 0.628224
vt 0.420352 0.628320
vt 0.478567 0.584362
vt 0.389413 0.548789
vt 0.441637 0.556598
vt 0.932012 0.912018
vt 0.863891 0.862525
vt 0.945187 0.885336
vt 0.502096 0.915713
vt 0.957353 0.487882
vt 0.999870 0.269276
vt 0.954249 0.216645
vt 0.999870 0.218545
vt 0.984052 0.497790
vt 0.954801 0.269788
vt 0.405619 0.786019
vt 0.510020 0.786019
vt 0.502823 0.812402
vt 0.083493 0.552154
vt 0.100983 0.452963
vt 0.104469 0.558877
vt 0.398426 0.795995
vt 0.399047 0.814392
vt 0.294589 0.814392
vt 0.375274 0.749002
vt 0.014773 0.331863
vt 0.000028 0.331863
vt 0.014610 0.288758
vt 0.028767 0.082541
vt 0.036354 0.089956
vt 0.036354 0.183369
vt 0.026794 0.131291
vt 0.230300 0.693046
vt 0.219017 0.732396
vt 0.136251 0.663755
vt 0.615940 0.161507
vt 0.392403 0.501518
vt 0.354361 0.493432
vt 0.402690 0.429736
vt 0.308059 0.874928
vt 0.401857 0.874928
vt 0.400698 0.925269
vt 0.450277 0.558917
vt 0.376938 0.528588
vt 0.184935 0.979649
vt 0.116002 0.979649
vt 0.154565 0.945363
vt 0.683603 0.377224
vt 0.710122 0.303517
vt 0.176987 0.755193
vt 0.574022 0.819292
vt 0.575807 0.809717
vt 0.626919 0.814188
vt 0.524537 0.813068
vt 0.449299 0.255565
vt 0.812989 0.564097
vt 0.707797 0.592283
vt 0.682817 0.558185
vt 0.941138 0.536623
vt 0.000234 0.439788
vt 0.046554 0.439788
vt 0.002695 0.492131
vt 0.601048 0.358724
vt 0.453150 0.888980
vt 0.402795 0.888980
vt 0.411286 0.788869
vt 0.591773 0.600495
vt 0.240719 0.511267
vt 0.873413 0.108123
vt 0.897408 0.152583
vt 0.769658 0.416332
vt 0.048607 0.489602
vt 0.324324 0.042060
vt 0.982885 0.896819
vt 0.353701 0.539016
vt 0.225070 0.038631
vt 0.684649 0.049559
vt 0.021965 0.438808
vt 0.581859 0.490064
vt 0.741118 0.119559
vt 0.423143 0.208232
vt 0.371195 0.189501
vt 0.291065 0.526126
vt 0.830774 0.450912
vt 0.426668 0.054531
vt 0.400360 0.052976
vt 0.416135 0.031944
vt 0.400184 0.016270
vt 0.854999 0.187838
vt 0.414966 0.009110
vt 0.438494 0.026816
vt 0.416381 0.099667
vt 0.830572 0.038103
vt 0.465933 0.560227
vt 0.585257 0.111207
vt 0.617287 0.161017
vt 0.662377 0.272767
vt 0.608372 0.250745
vt 0.898433 0.293867
vt 0.944074 0.231047
vt 0.958498 0.287517
vt 0.108853 0.189615
vt 0.085257 0.203588
vt 0.816955 0.931758
vt 0.741525 0.952741
vt 0.778948 0.952741
vt 0.762513 0.981151
vt 0.081671 0.013433
vt 0.054985 0.032822
vt 0.060350 0.003685
vt 0.369735 0.566497
vt 0.225009 0.432517
vt 0.327635 0.070588
vt 0.965344 0.342009
vt 0.965344 0.415761
vt 0.920695 0.379442
vt 0.799616 0.772061
vt 0.819416 0.770223
vt 0.932087 0.777585
vt 0.680164 0.042209
vt 0.654814 0.007318
vt 0.678618 0.001205
vt 0.536746 0.910207
vt 0.869987 0.085222
vt 0.933720 0.163600
vt 0.360238 0.512726
vt 0.102489 0.186941
vt 0.037142 0.167035
vt 0.081622 0.137781
vt 0.040526 0.096839
vt 0.099365 0.078969
vt 0.128620 0.159115
vt 0.850075 0.342788
vt 0.766939 0.036963
vt 0.747615 0.036963
vt 0.765280 0.027368
vt 0.760398 0.011384
vt 0.002557 0.298390
vt 0.002557 0.268458
vt 0.015203 0.286450
vt 0.562120 0.110699
vt 0.953379 0.909922
vt 0.222929 0.395885
vt 0.254485 0.019879
vt 0.254553 0.043268
vt 0.242106 0.030267
vt 0.236813 0.039696
vt 0.412801 0.974336
vt 0.931600 0.514078
vt 0.671387 0.598002
vt 0.823981 0.957357
vt 0.143420 0.575891
vt 0.516631 0.810119
vt 0.567122 0.837359
vt 0.510726 0.843610
vt 0.540706 0.875130
vt 0.463958 0.873395
vt 0.465187 0.822027
vt 0.274957 0.978207
vt 0.262029 0.938418
vt 0.291992 0.943108
vt 0.687720 0.934225
vt 0.994390 0.204206
vt 0.962196 0.203281
vt 0.977284 0.184527
vt 0.962201 0.162346
vt 0.584815 0.339163
vt 0.311805 0.041094
vt 0.580550 0.321839
vt 0.944771 0.808695
vt 0.258756 0.210482
vt 0.474374 0.980217
s 1
usemtl Material
f 1/1/1 2/2/2 3/3/3
f 1/1/1 4/4/4 5/5/5
f 1/6/1 6/7/6 4/8/4
f 1/6/1 3/9/3 6/7/6
f 1/1/1 5/5/5 2/2/2
f 7/10/7 8/11/8 9/12/9
f 7/10/7 10/13/10 8/11/8
f 7/14/7 11/15/11 12/16/12
f 7/17/7 12/18/12 10/19/10
f 7/14/7 13/20/13 11/15/11
f 7/21/7 9/22/9 13/23/13
f 14/24/14 15/25/15 16/26/16
f 14/27/14 17/28/17 18/29/18
f 14/24/14 19/30/19 17/31/17
f 14/27/14 18/29/18 15/32/15
f 14/24/14 16/26/16 19/30/19
f 20/33/20 21/34/21 22/35/22
f 20/36/20 22/37/22 23/38/23
f 20/39/20 23/40/23 24/41/24
f 25/42/25 26/43/26 27/44/27
f 25/45/25 28/46/28 26/47/26
f 25/42/25 27/44/27 29/48/29
f 25/49/25 29/50/29 28/51/28
f 30/52/30 31/53/31 32/54/32
f 30/55/30 33/56/33 31/57/31
f 30/58/30 34/59/34 33/60/33
f 30/58/30 32/61/32 34/59/34
f 35/62/35 36/63/36 37/64/37
f 35/65/35 37/66/37 38/67/38
f 35/68/35 38/69/38 39/70/39
f 35/71/35 39/72/39 40/73/40
f 35/62/35 40/74/40 36/63/36
f 41/75/41 42/76/42 43/77/43
f 41/78/41 44/79/44 42/80/42
f 41/78/41 43/81/43 45/82/45
f 46/83/46 47/84/47 48/85/48
f 46/86/46 49/87/49 50/88/50
f 46/89/46 48/90/48 49/91/49
f 46/83/46 50/92/50 47/84/47
f 51/93/51 52/94/52 53/95/53
f 51/96/51 53/97/53 54/98/54
f 51/93/51 55/99/55 52/94/52
f 56/100/56 57/101/57 58/102/58
f 56/100/56 59/103/59 57/101/57
f 56/104/56 58/105/58 60/106/60
f 56/104/56 60/106/60 59/107/59
f 61/108/61 62/109/62 63/110/63
f 61/111/61 64/112/64 62/113/62
f 61/114/61 65/115/65 66/116/66
f 61/114/61 66/116/66 64/117/64
f 61/118/61 63/119/63 65/120/65
f 67/121/67 68/122/68 69/123/69
f 67/124/67 69/125/69 70/126/70
f 67/127/67 71/128/71 68/129/68
f 67/130/67 70/131/70 72/132/72
f 67/133/67 72/134/72 71/135/71
f 73/136/73 74/137/74 75/138/75
f 73/139/73 76/140/76 77/141/77
f 73/142/73 77/143/77 74/144/74
f 78/145/78 11/146/11 79/147/79
f 78/148/78 79/149/79 80/150/80
f 78/151/78 12/152/12 11/153/11
f 78/154/78 81/155/81 12/156/12
f 78/157/78 80/158/80 82/159/82
f 78/160/78 82/161/82 81/162/81
f 83/163/83 24/164/24 84/165/84
f 83/166/83 85/167/85 86/168/86
f 83/169/83 84/170/84 85/171/85
f 87/172/87 88/173/88 89/174/89
f 87/175/87 90/176/90 91/177/91
f 87/172/87 89/174/89 90/178/90
f 87/175/87 92/179/92 88/180/88
f 87/175/87 91/177/91 92/179/92
f 93/181/93 94/182/94 95/183/95
f 93/184/93 96/185/96 97/186/97
f 93/184/93 98/187/98 96/185/96
f 93/188/93 97/189/97 94/190/94
f 93/191/93 95/192/95 98/193/98
f 99/194/99 26/195/26 28/196/28
f 99/194/99 28/196/28 100/197/100
f 99/198/99 101/199/101 26/43/26
f 8/200/8 10/201/10 102/202/102
f 8/200/8 102/202/102 103/203/103
f 8/204/8 103/205/103 104/206/104
f 8/204/8 104/206/104 9/207/9
f 105/208/105 106/209/106 107/210/107
f 105/211/105 108/212/108 109/213/109
f 105/211/105 109/213/109 106/214/106
f 110/215/110 111/216/111 112/217/112
f 110/218/110 113/219/113 111/220/111
f 110/215/110 112/217/112 114/221/114
f 110/218/110 114/222/114 115/223/115
f 110/218/110 115/223/115 113/219/113
f 116/224/116 117/225/117 118/226/118
f 116/224/116 119/227/119 117/225/117
f 116/228/116 120/229/120 119/230/119
f 121/231/121 122/232/122 123/233/123
f 121/231/121 123/233/123 124/234/124
f 121/235/121 125/236/125 126/237/126
f 121/238/121 124/239/124 125/240/125
f 121/235/121 126/237/126 122/241/122
f 127/242/127 128/243/128 129/244/129
f 127/245/127 130/246/130 131/247/131
f 127/245/127 129/248/129 130/246/130
f 132/249/132 133/250/133 134/251/134
f 132/249/132 74/144/74 77/143/77
f 132/249/132 134/251/134 74/144/74
f 132/249/132 135/252/135 133/250/133
f 132/253/132 77/254/77 135/255/135
f 136/256/136 137/257/137 138/258/138
f 136/259/136 139/260/139 140/261/140
f 136/262/136 138/263/138 139/264/139
f 136/256/136 141/265/141 137/257/137
f 136/266/136 142/267/142 141/268/141
f 136/266/136 140/269/140 142/267/142
f 143/270/143 144/271/144 42/272/42
f 143/270/143 42/272/42 44/273/44
f 143/270/143 44/273/44 145/274/145
f 143/270/143 145/274/145 146/275/146
f 143/276/143 146/277/146 144/278/144
f 147/279/147 148/280/148 149/281/149
f 147/279/147 149/281/149 150/282/150
f 147/283/147 150/284/150 151/285/151
f 152/286/152 153/287/153 154/288/154
f 152/286/152 155/289/155 156/290/156
f 152/286/152 157/291/157 155/289/155
f 152/286/152 154/288/154 157/291/157
f 152/286/152 156/290/156 153/287/153
f 158/292/158 159/293/159 104/294/104
f 158/295/158 160/296/160 161/297/161
f 158/298/158 104/299/104 160/300/160
f 158/301/158 161/302/161 159/303/159
f 162/304/162 163/305/163 164/306/164
f 162/307/162 165/308/165 49/309/49
f 162/304/162 49/310/49 163/305/163
f 162/311/162 164/312/164 165/313/165
f 166/314/166 167/315/167 168/316/168
f 166/317/166 169/318/169 79/319/79
f 166/320/166 11/321/11 13/322/13
f 166/323/166 168/324/168 169/325/169
f 166/320/166 79/326/79 11/321/11
f 166/314/166 13/327/13 167/315/167
f 57/101/57 59/103/59 170/328/170
f 57/101/57 170/328/170 171/329/171
f 57/101/57 171/329/171 58/102/58
f 172/330/172 70/331/70 173/332/173
f 172/333/172 173/334/173 174/335/174
f 172/336/172 72/337/72 70/338/70
f 137/339/137 175/340/175 176/341/176
f 137/342/137 141/343/141 175/344/175
f 137/345/137 176/346/176 138/347/138
f 177/348/177 178/349/178 179/350/179
f 177/351/177 180/352/180 178/353/178
f 177/354/177 179/355/179 181/356/181
f 182/357/182 53/95/53 183/358/183
f 182/359/182 183/360/183 184/361/184
f 182/362/182 185/363/185 54/98/54
f 182/364/182 184/365/184 185/366/185
f 182/362/182 54/98/54 53/97/53
f 186/367/186 62/368/62 187/369/187
f 186/370/186 65/371/65 63/372/63
f 186/373/186 188/374/188 62/375/62
f 186/370/186 66/376/66 65/371/65
f 186/367/186 187/369/187 66/377/66
f 186/378/186 63/379/63 188/380/188
f 144/278/144 189/381/189 43/77/43
f 144/278/144 146/277/146 189/381/189
f 144/278/144 43/77/43 42/76/42
f 190/382/190 191/383/191 192/384/192
f 190/385/190 193/386/193 194/387/194
f 190/388/190 194/389/194 191/390/191
f 106/391/106 96/185/96 98/187/98
f 106/392/106 98/393/98 107/394/107
f 106/391/106 109/395/109 96/185/96
f 195/396/195 167/397/167 142/398/142
f 195/399/195 102/400/102 168/401/168
f 195/402/195 196/403/196 103/404/103
f 195/405/195 168/316/168 167/315/167
f 195/402/195 103/404/103 102/406/102
f 195/396/195 142/398/142 196/407/196
f 26/43/26 101/199/101 27/44/27
f 15/408/15 18/409/18 197/410/197
f 111/411/111 113/412/113 150/284/150
f 111/216/111 149/413/149 112/217/112
f 111/216/111 150/414/150 149/413/149
f 2/415/2 198/416/198 3/417/3
f 199/418/199 200/419/200 201/420/201
f 199/421/199 202/422/202 203/423/203
f 199/424/199 203/425/203 200/426/200
f 199/427/199 201/428/201 204/429/204
f 199/421/199 204/430/204 202/422/202
f 205/431/205 52/432/52 55/433/55
f 205/431/205 185/366/185 184/365/184
f 205/434/205 184/361/184 52/435/52
f 113/219/113 115/223/115 151/436/151
f 113/412/113 151/285/151 150/284/150
f 175/437/175 159/438/159 176/439/176
f 175/344/175 141/343/141 9/440/9
f 175/441/175 104/442/104 159/443/159
f 175/444/175 9/207/9 104/206/104
f 206/445/206 33/446/33 34/447/34
f 206/448/206 34/449/34 207/450/207
f 206/445/206 207/451/207 33/446/33
f 17/31/17 19/30/19 208/452/208
f 17/28/17 209/453/209 18/29/18
f 17/28/17 208/454/208 209/453/209
f 24/455/24 23/456/23 84/457/84
f 210/458/210 211/459/211 212/460/212
f 210/461/210 119/230/119 120/229/120
f 210/461/210 212/462/212 119/230/119
f 210/463/210 213/464/213 211/465/211
f 210/463/210 120/466/120 213/464/213
f 214/467/214 215/468/215 169/469/169
f 214/470/214 169/471/169 216/472/216
f 214/473/214 217/474/217 218/475/218
f 214/476/214 219/477/219 217/478/217
f 214/470/214 216/472/216 219/479/219
f 214/480/214 218/481/218 215/482/215
f 19/30/19 220/483/220 208/452/208
f 19/30/19 16/26/16 220/483/220
f 62/484/62 64/485/64 221/486/221
f 62/487/62 188/488/188 63/489/63
f 62/484/62 221/486/221 187/490/187
f 122/232/122 222/491/222 123/233/123
f 122/241/122 223/492/223 222/493/222
f 122/241/122 126/237/126 223/492/223
f 94/190/94 97/189/97 108/212/108
f 10/494/10 12/495/12 219/496/219
f 10/494/10 219/496/219 216/497/216
f 10/494/10 216/497/216 102/498/102
f 224/499/224 211/465/211 213/464/213
f 224/500/224 118/501/118 211/502/211
f 200/419/200 203/503/203 225/504/225
f 167/397/167 13/23/13 142/398/142
f 226/505/226 192/506/192 191/390/191
f 226/505/226 191/390/191 227/507/227
f 226/508/226 227/509/227 228/510/228
f 226/511/226 228/512/228 192/513/192
f 229/514/229 230/515/230 198/516/198
f 229/517/229 231/518/231 232/519/232
f 229/520/229 232/521/232 230/522/230
f 233/523/233 68/129/68 71/128/71
f 233/524/233 69/123/69 68/122/68
f 233/525/233 174/526/174 173/527/173
f 233/528/233 71/529/71 174/530/174
f 233/531/233 173/532/173 69/125/69
f 234/533/234 215/534/215 218/535/218
f 234/536/234 235/537/235 215/538/215
f 234/536/234 217/539/217 235/537/235
f 234/540/234 218/541/218 217/542/217
f 153/543/153 236/544/236 154/545/154
f 153/546/153 237/547/237 236/548/236
f 153/549/153 156/550/156 237/551/237
f 86/552/86 85/553/85 238/554/238
f 86/555/86 238/556/238 21/557/21
f 230/522/230 6/7/6 3/9/3
f 230/522/230 232/521/232 6/7/6
f 230/558/230 3/559/3 198/560/198
f 239/561/239 240/562/240 241/563/241
f 239/564/239 242/565/242 131/566/131
f 239/564/239 131/566/131 130/567/130
f 239/561/239 130/568/130 240/562/240
f 239/564/239 241/569/241 242/565/242
f 28/570/28 29/571/29 100/572/100
f 128/573/128 243/574/243 244/575/244
f 128/573/128 244/575/244 129/576/129
f 191/390/191 194/389/194 227/507/227
f 231/577/231 4/578/4 232/579/232
f 231/580/231 5/581/5 4/582/4
f 85/583/85 245/584/245 238/585/238
f 85/583/85 84/586/84 245/584/245
f 31/587/31 33/588/33 207/589/207
f 31/587/31 246/590/246 32/591/32
f 31/587/31 207/589/207 246/590/246
f 133/592/133 135/593/135 247/594/247
f 133/592/133 247/594/247 248/595/248
f 133/596/133 248/597/248 134/598/134
f 88/599/88 92/600/92 249/601/249
f 64/602/64 250/603/250 251/604/251
f 64/605/64 66/606/66 250/607/250
f 64/602/64 251/604/251 221/608/221
f 215/609/215 235/610/235 82/161/82
f 215/611/215 80/612/80 169/613/169
f 215/614/215 82/615/82 80/616/80
f 209/453/209 208/454/208 252/617/252
f 209/618/209 252/619/252 197/410/197
f 209/620/209 197/621/197 18/622/18
f 21/623/21 238/624/238 22/625/22
f 189/381/189 45/626/45 43/77/43
f 189/627/189 253/628/253 45/82/45
f 189/627/189 146/629/146 253/628/253
f 148/280/148 112/630/112 149/281/149
f 148/280/148 114/631/114 112/630/112
f 96/185/96 109/395/109 97/186/97
f 254/632/254 255/633/255 223/634/223
f 254/635/254 223/492/223 126/237/126
f 254/636/254 126/637/126 125/638/125
f 256/639/256 202/422/202 257/640/257
f 256/641/256 225/642/225 203/643/203
f 256/639/256 203/423/203 202/422/202
f 256/644/256 258/645/258 225/646/225
f 256/647/256 257/648/257 258/649/258
f 236/650/236 259/651/259 154/652/154
f 260/653/260 261/654/261 262/655/262
f 260/656/260 262/657/262 251/658/251
f 260/659/260 246/660/246 207/661/207
f 260/659/260 207/661/207 261/662/261
f 260/663/260 251/664/251 246/665/246
f 261/666/261 34/667/34 263/668/263
f 261/654/261 264/669/264 262/655/262
f 261/670/261 263/671/263 264/672/264
f 261/666/261 207/673/207 34/667/34
f 240/562/240 130/568/130 129/674/129
f 240/675/240 129/576/129 244/575/244
f 240/562/240 244/676/244 241/563/241
f 101/199/101 265/677/265 27/44/27
f 123/233/123 222/491/222 266/678/266
f 123/679/123 266/680/266 124/681/124
f 242/565/242 241/569/241 243/682/243
f 227/509/227 194/683/194 228/510/228
f 27/684/27 265/685/265 29/571/29
f 59/686/59 267/687/267 170/688/170
f 59/689/59 60/690/60 267/691/267
f 250/607/250 66/606/66 187/692/187
f 250/693/250 264/694/264 263/695/263
f 250/696/250 187/697/187 264/698/264
f 250/693/250 263/695/263 251/699/251
f 74/137/74 134/598/134 75/138/75
f 52/94/52 183/358/183 53/95/53
f 52/435/52 184/361/184 183/360/183
f 117/700/117 119/230/119 212/462/212
f 117/701/117 212/702/212 118/703/118
f 169/471/169 168/704/168 216/472/216
f 169/318/169 80/705/80 79/319/79
f 208/706/208 220/707/220 252/619/252
f 255/708/255 222/493/222 223/492/223
f 255/709/255 266/710/266 222/711/222
f 243/712/243 241/563/241 244/676/244
f 134/598/134 248/597/248 75/138/75
f 139/713/139 159/714/159 161/715/161
f 139/716/139 138/717/138 176/718/176
f 139/719/139 160/720/160 140/721/140
f 139/722/139 176/439/176 159/438/159
f 139/713/139 161/715/161 160/723/160
f 202/422/202 204/430/204 257/640/257
f 259/724/259 157/725/157 154/726/154
f 259/727/259 268/728/268 157/729/157
f 178/730/178 180/731/180 37/732/37
f 178/733/178 36/63/36 179/734/179
f 178/733/178 37/64/37 36/63/36
f 269/735/269 270/736/270 271/737/271
f 269/735/269 92/738/92 270/736/270
f 269/735/269 249/739/249 92/738/92
f 270/740/270 90/176/90 271/741/271
f 270/742/270 92/743/92 91/744/91
f 270/740/270 91/177/91 90/176/90
f 180/745/180 38/746/38 37/747/37
f 211/748/211 118/703/118 212/702/212
f 102/498/102 216/497/216 168/749/168
f 98/750/98 95/751/95 107/752/107
f 238/753/238 245/754/245 22/755/22
f 245/754/245 84/756/84 23/757/23
f 245/754/245 23/757/23 22/755/22
f 237/758/237 156/759/156 268/760/268
f 135/593/135 76/761/76 247/594/247
f 135/255/135 77/254/77 76/762/76
f 196/763/196 160/764/160 103/765/103
f 196/766/196 142/267/142 140/269/140
f 196/763/196 140/767/140 160/764/160
f 181/768/181 179/769/179 40/770/40
f 181/771/181 40/772/40 39/773/39
f 155/774/155 157/775/157 268/776/268
f 155/774/155 268/776/268 156/777/156
f 4/8/4 6/7/6 232/521/232
f 160/778/160 104/779/104 103/780/103
f 262/781/262 264/782/264 187/783/187
f 262/781/262 187/783/187 221/784/221
f 262/785/262 221/786/221 251/787/251
f 36/63/36 40/74/40 179/734/179
f 90/178/90 89/174/89 271/788/271
f 272/789/272 258/790/258 257/791/257
f 272/792/272 257/793/257 204/794/204
f 272/789/272 204/795/204 201/796/201
f 235/797/235 217/798/217 81/799/81
f 235/610/235 81/162/81 82/161/82
f 69/125/69 173/532/173 70/126/70
f 267/691/267 273/800/273 171/801/171
f 267/687/267 171/802/171 170/688/170
f 246/803/246 263/804/263 32/805/32
f 246/803/246 251/806/251 263/804/263
f 163/807/163 49/91/49 48/90/48
f 34/808/34 32/809/32 263/810/263
f 228/811/228 194/387/194 193/386/193
f 97/189/97 109/213/109 108/212/108
f 217/812/217 219/813/219 81/814/81
f 29/571/29 265/685/265 100/572/100
f 58/815/58 273/800/273 60/690/60
f 58/816/58 171/817/171 273/818/273
f 141/819/141 13/23/13 9/22/9
f 141/819/141 142/398/142 13/23/13
f 47/84/47 50/92/50 274/820/274
f 165/308/165 274/821/274 50/822/50
f 165/313/165 164/312/164 274/823/274
f 165/308/165 50/822/50 49/309/49
f 12/824/12 81/814/81 219/813/219
f 253/825/253 146/275/146 145/274/145
f 267/691/267 60/690/60 273/800/273
f 128/243/128 127/242/127 275/826/275
f 127/245/127 131/247/131 275/827/275
f 131/566/131 242/565/242 275/828/275
f 242/565/242 243/682/243 275/828/275
f 243/574/243 128/573/128 275/829/275
f 16/26/16 15/25/15 276/830/276
f 15/408/15 197/410/197 276/831/276
f 197/410/197 252/619/252 276/831/276
f 252/619/252 220/707/220 276/831/276
f 220/483/220 16/26/16 276/830/276
f 164/306/164 163/305/163 277/832/277
f 163/807/163 48/90/48 277/833/277
f 48/90/48 47/834/47 277/833/277
f 47/84/47 274/820/274 277/835/277
f 274/823/274 164/312/164 277/836/277
f 255/837/255 254/838/254 278/839/278
f 254/838/254 125/840/125 278/839/278
f 125/240/125 124/239/124 278/841/278
f 124/842/124 266/843/266 278/839/278
f 266/843/266 255/837/255 278/839/278
f 55/99/55 51/93/51 279/844/279
f 51/96/51 54/98/54 279/845/279
f 54/98/54 185/363/185 279/845/279
f 185/366/185 205/431/205 279/846/279
f 205/431/205 55/433/55 279/846/279
f 120/847/120 116/224/116 280/848/280
f 116/224/116 118/226/118 280/848/280
f 118/849/118 224/499/224 280/850/280
f 224/499/224 213/464/213 280/850/280
f 213/851/213 120/852/120 280/853/280
f 108/854/108 105/208/105 281/855/281
f 105/208/105 107/210/107 281/855/281
f 107/752/107 95/751/95 281/856/281
f 95/857/95 94/858/94 281/859/281
f 94/860/94 108/861/108 281/862/281
f 148/280/148 147/279/147 282/863/282
f 147/283/147 151/285/151 282/864/282
f 151/436/151 115/223/115 282/865/282
f 115/866/115 114/867/114 282/868/282
f 114/631/114 148/280/148 282/863/282
f 198/416/198 2/415/2 283/869/283
f 2/415/2 5/870/5 283/869/283
f 5/581/5 231/580/231 283/871/283
f 231/872/231 229/873/229 283/874/283
f 229/514/229 198/516/198 283/875/283
f 201/420/201 200/419/200 284/876/284
f 200/419/200 225/504/225 284/876/284
f 225/646/225 258/645/258 284/877/284
f 258/790/258 272/789/272 284/878/284
f 272/789/272 201/796/201 284/878/284
f 180/879/180 177/880/177 285/881/285
f 177/880/177 181/882/181 285/881/285
f 181/882/181 39/883/39 285/881/285
f 39/883/39 38/884/38 285/881/285
f 38/884/38 180/879/180 285/881/285
f 259/651/259 236/650/236 286/885/286
f 236/886/236 237/887/237 286/888/286
f 237/887/237 268/889/268 286/888/286
f 268/890/268 259/891/259 286/892/286
f 89/174/89 88/173/88 287/893/287
f 88/599/88 249/601/249 287/894/287
f 249/739/249 269/735/269 287/895/287
f 269/735/269 271/737/271 287/895/287
f 271/788/271 89/174/89 287/893/287
f 193/896/193 190/897/190 288/898/288
f 190/897/190 192/899/192 288/898/288
f 192/513/192 228/512/228 288/900/288
f 228/811/228 193/386/193 288/901/288
f 101/199/101 99/198/99 289/902/289
f 99/194/99 100/197/100 289/903/289
f 100/572/100 265/685/265 289/904/289
f 265/677/265 101/199/101 289/902/289
f 21/905/21 20/906/20 290/907/290
f 20/906/20 24/908/24 290/907/290
f 24/908/24 83/909/83 290/907/290
f 83/909/83 86/910/86 290/907/290
f 86/910/86 21/905/21 290/907/290
f 72/911/72 172/912/172 291/913/291
f 172/333/172 174/335/174 291/914/291
f 174/915/174 71/916/71 291/917/291
f 71/916/71 72/918/72 291/917/291
f 44/79/44 41/78/41 292/919/292
f 41/78/41 45/82/45 292/919/292
f 45/82/45 253/628/253 292/919/292
f 253/825/253 145/274/145 292/920/292
f 145/921/145 44/79/44 292/919/292
f 76/140/76 73/139/73 293/922/293
f 73/136/73 75/138/75 293/923/293
f 75/138/75 248/597/248 293/923/293
f 248/595/248 247/594/247 293/924/293
f 247/594/247 76/761/76 293/924/293
