# www.meshy.ai
mtllib Meshy_AI_Golden_Geometric_Gate_0918231251_texture.mtl
o Meshy_AI_Golden_Geometric_Gate_0918231251_texture
v -0.412109 -0.083984 -0.337891
v -0.367188 -0.108398 -0.298828
v -0.470703 -0.084473 -0.229492
v -0.292969 -0.111328 -0.373047
v -0.416016 -0.073730 -0.339844
v -0.328125 -0.086426 -0.417969
v -0.472656 -0.072266 -0.227539
v -0.092773 0.002594 -0.087891
v -0.115234 -0.034424 -0.053467
v -0.117188 0.003586 -0.052734
v -0.109863 0.039062 -0.067871
v -0.074219 0.037354 -0.104492
v -0.060791 0.000710 -0.108398
v -0.092773 -0.033936 -0.086914
v -0.041992 -0.097656 -0.429688
v 0.419922 -0.098633 -0.423828
v 0.496094 -0.080566 -0.486328
v -0.066895 -0.080078 -0.478516
v -0.172852 -0.099121 -0.412109
v 0.035889 -0.093750 -0.136719
v -0.012512 -0.094238 -0.121094
v -0.136719 0.098633 0.022949
v -0.078613 0.079590 0.013855
v -0.088379 0.078125 0.063477
v -0.433594 0.102539 -0.036621
v -0.130859 0.098145 -0.011902
v -0.145508 0.102051 0.423828
v -0.427734 0.103516 0.423828
v -0.130859 -0.034912 -0.011841
v -0.326172 -0.036377 -0.292969
v -0.373047 -0.038086 -0.200195
v -0.137695 -0.034424 0.026978
v -0.128906 0.004456 -0.011658
v 0.496094 0.077148 -0.486328
v 0.492188 0.075195 -0.083008
v 0.425781 0.101562 -0.429688
v -0.050537 0.100098 -0.435547
v -0.071289 0.078613 -0.482422
v 0.500000 0.065430 -0.492188
v 0.498047 0.043945 -0.437500
v -0.075195 -0.066406 0.064453
v -0.085938 -0.081543 0.062500
v -0.068359 -0.078125 0.021606
v -0.073242 -0.000843 0.500000
v -0.071777 -0.072754 0.500000
v -0.060791 -0.060059 0.023438
v -0.074707 -0.085938 0.500000
v -0.071289 0.000507 0.065430
v -0.464844 0.074219 -0.224609
v -0.470703 0.001160 -0.225586
v -0.408203 -0.000078 -0.337891
v -0.406250 0.072754 -0.335938
v -0.400391 0.079102 -0.330078
v -0.498047 0.071289 -0.097656
v -0.462891 0.081543 -0.221680
v -0.441406 0.003571 0.500000
v -0.500000 0.001663 0.500000
v -0.492188 0.001518 0.500000
v -0.402344 0.042969 -0.104004
v -0.429688 0.049072 0.498047
v -0.500000 0.083008 0.500000
v -0.408203 -0.037109 -0.104492
v -0.412109 0.001175 -0.104492
v -0.500000 -0.075684 0.500000
v -0.435547 -0.036133 0.498047
v -0.001900 0.085938 -0.088867
v -0.058105 0.087891 -0.039795
v -0.083496 0.095703 -0.067383
v -0.009705 0.096191 -0.123047
v -0.037598 0.073242 -0.032227
v 0.036621 0.096680 -0.138672
v 0.014160 0.075195 -0.073242
v 0.500000 -0.086426 -0.076172
v 0.419922 -0.109863 -0.138672
v 0.419922 -0.109863 -0.429688
v 0.500000 -0.038818 -0.125000
v 0.500000 -0.071777 -0.068848
v 0.500000 -0.086914 -0.494141
v 0.064453 -0.083496 -0.079102
v 0.500000 -0.070312 -0.082031
v -0.244141 0.000338 -0.367188
v -0.250000 0.042969 -0.363281
v -0.328125 0.000500 -0.300781
v -0.253906 -0.037842 -0.353516
v -0.194336 -0.037109 -0.378906
v -0.132812 0.000923 -0.406250
v -0.296875 -0.099609 -0.359375
v -0.082031 -0.094727 -0.063965
v -0.316406 -0.082031 -0.404297
v -0.404297 -0.079102 -0.330078
v -0.369141 -0.097656 -0.292969
v -0.416016 -0.097656 -0.194336
v -0.020752 0.055420 -0.029541
v 0.022461 0.068359 -0.059082
v -0.025757 0.070801 -0.027588
v -0.028076 -0.001297 -0.021362
v 0.022217 -0.002106 -0.055908
v -0.059326 0.000182 0.025391
v -0.070312 -0.000496 -0.500000
v -0.072266 0.073242 -0.496094
v 0.500000 -0.002319 -0.500000
v 0.500000 -0.077148 -0.500000
v -0.069336 -0.074707 -0.498047
v -0.198242 -0.001953 -0.488281
v -0.200195 0.075195 -0.482422
v -0.198242 -0.075684 -0.486328
v -0.496094 0.085449 -0.099121
v -0.472656 0.085449 -0.227539
v -0.500000 0.074219 -0.098145
v -0.496094 0.090332 0.500000
v -0.435547 0.112305 -0.041016
v -0.421875 0.110840 -0.200195
v -0.466797 -0.071289 -0.222656
v -0.498047 0.002289 -0.097656
v -0.076172 0.089355 0.500000
v -0.130859 0.044189 0.498047
v -0.081543 0.068359 0.500000
v -0.140625 0.112305 0.429688
v -0.078613 0.083008 0.063477
v -0.069824 0.073242 0.500000
v 0.417969 -0.098145 -0.140625
v 0.494141 -0.080078 -0.084961
v -0.069336 0.068359 0.018066
v -0.136719 -0.107422 0.022583
v -0.138672 -0.110352 0.433594
v 0.500000 0.044434 -0.439453
v 0.500000 0.043945 -0.123535
v -0.063477 0.043945 -0.423828
v 0.500000 -0.000444 -0.437500
v 0.018311 0.046631 -0.134766
v 0.498047 0.085449 -0.496094
v 0.500000 0.077148 -0.500000
v -0.018677 -0.062500 -0.032227
v -0.053711 -0.070312 0.004089
v -0.029663 -0.075195 -0.027100
v 0.022827 -0.069336 -0.059326
v -0.326172 0.085449 -0.419922
v -0.294922 0.110840 -0.373047
v -0.198242 0.084473 -0.478516
v -0.326172 0.077148 -0.421875
v -0.412109 0.085449 -0.339844
v -0.480469 -0.081055 -0.145508
v -0.488281 -0.079590 -0.088867
v -0.464844 -0.080078 -0.224609
v -0.492188 -0.071289 -0.097168
v -0.071289 0.084961 -0.492188
v 0.500000 -0.001617 -0.067871
v 0.071289 0.000096 -0.070801
v 0.070312 -0.068848 -0.072266
v 0.500000 0.077148 -0.069824
v 0.070312 0.070801 -0.071777
v 0.500000 -0.001228 -0.077637
v 0.500000 -0.000448 -0.125000
v -0.008118 0.108887 -0.117676
v -0.173828 0.111328 -0.423828
v -0.369141 0.111328 -0.300781
v -0.081055 0.109375 -0.063477
v -0.318359 -0.075195 -0.406250
v -0.192383 -0.080566 -0.470703
v -0.192383 -0.071777 -0.472656
v -0.406250 -0.071289 -0.333984
v -0.320312 -0.051758 -0.414062
v 0.065918 0.081543 -0.078125
v 0.017578 0.080078 -0.061768
v -0.014587 -0.107422 -0.111328
v 0.023315 -0.081055 -0.065430
v -0.007874 -0.084961 -0.051270
v -0.083984 -0.107910 -0.057617
v -0.174805 -0.111328 -0.421875
v 0.030273 -0.105469 -0.131836
v -0.042725 -0.109863 -0.433594
v -0.498047 -0.073242 -0.101074
v -0.500000 0.002563 -0.098145
v -0.476562 0.001549 -0.231445
v -0.494141 -0.083984 -0.101074
v -0.130859 0.043213 -0.406250
v -0.022339 0.041016 -0.123047
v -0.065918 0.002029 -0.425781
v -0.378906 0.001152 -0.203125
v -0.326172 0.041992 -0.296875
v -0.373047 0.040039 -0.204102
v -0.064941 -0.073730 -0.484375
v -0.069336 -0.054443 -0.488281
v 0.500000 0.086914 -0.076172
v 0.500000 0.066406 -0.078613
v 0.017334 -0.036377 -0.131836
v -0.063965 -0.036377 -0.427734
v -0.021484 -0.035645 -0.123047
v 0.498047 -0.040039 -0.431641
v 0.016479 0.001274 -0.128906
v -0.429688 0.114258 0.431641
v -0.133789 0.109863 0.019531
v -0.421875 -0.107422 -0.197266
v -0.068848 -0.086426 -0.492188
v 0.498047 -0.033691 -0.435547
v 0.500000 -0.069336 -0.490234
v 0.500000 -0.002441 -0.492188
v -0.122559 0.003082 0.500000
v -0.133789 0.004822 0.030640
v -0.131836 -0.037598 0.496094
v 0.034424 0.108887 -0.133789
v -0.051025 0.110840 -0.435547
v 0.429688 0.110840 -0.140625
v 0.429688 0.111816 -0.431641
v -0.045654 -0.084961 -0.020752
v -0.125000 -0.106934 -0.008240
v -0.322266 0.000092 -0.417969
v -0.318359 0.078125 -0.408203
v -0.488281 -0.079590 0.494141
v -0.431641 -0.099609 -0.036621
v -0.494141 -0.070801 0.498047
v -0.021973 0.000736 -0.121094
v -0.062012 -0.034668 -0.111328
v -0.130859 -0.036865 -0.408203
v -0.137695 0.041504 0.026855
v -0.129883 0.040283 -0.015320
v -0.029785 0.079102 -0.027710
v -0.063477 0.075684 0.023193
v -0.059814 0.066406 0.022461
v -0.066895 0.087402 0.007690
v -0.431641 -0.109375 -0.040283
v -0.069824 -0.001060 -0.490234
v -0.072266 0.068359 -0.484375
v -0.195312 0.070312 -0.472656
v -0.195312 -0.001678 -0.478516
v -0.083984 -0.067871 0.064941
v -0.065918 0.000059 0.022095
v -0.070312 -0.069824 0.016113
v -0.090332 -0.078613 0.060059
v -0.084961 -0.080078 0.494141
v -0.083496 -0.000633 0.500000
v -0.079102 0.000389 0.066895
v -0.079590 -0.070312 0.498047
v -0.417969 0.075684 -0.343750
v -0.476562 0.074707 -0.227539
v -0.492188 0.073730 0.498047
v -0.496094 -0.054199 -0.098145
v -0.129883 -0.096680 -0.010498
v -0.057861 -0.084961 -0.038330
v 0.002472 -0.083984 -0.090820
v -0.071777 0.067383 0.065430
v -0.490234 0.081055 -0.096680
v -0.417969 0.100098 -0.199219
v -0.490234 0.079590 0.496094
v 0.016968 0.067383 -0.065918
v 0.069336 0.066895 -0.079102
v 0.017822 -0.001579 -0.059326
v -0.029785 -0.001045 -0.026978
v -0.034424 0.067383 -0.031006
v 0.062988 0.075195 -0.084473
v -0.417969 -0.000002 -0.345703
v -0.496094 -0.086426 0.500000
v -0.427734 -0.109375 0.435547
v -0.292969 0.100098 -0.365234
v -0.363281 0.101562 -0.298828
v -0.328125 -0.000212 -0.427734
v -0.324219 -0.075195 -0.419922
v 0.423828 0.101074 -0.142578
v 0.063477 -0.079590 -0.089355
v -0.423828 -0.099609 0.427734
v 0.069336 0.000721 -0.077148
v -0.034912 -0.069336 -0.033203
v -0.081543 0.066895 0.064941
v -0.086426 0.078125 0.494141
v -0.131836 0.110840 -0.011902
v -0.075684 -0.077637 0.010986
v -0.141602 -0.101074 0.425781
v -0.136719 -0.096191 0.023071
v 0.015747 -0.070312 -0.068848
v 0.012268 -0.077148 -0.077637
v -0.038330 -0.076172 -0.038086
v 0.065918 -0.070801 -0.081055
v -0.192383 0.078125 -0.468750
v -0.171875 0.100586 -0.421875
v -0.199219 -0.086914 -0.482422
vn -0.4075 -0.8633 -0.2979
vn -0.0767 -0.9966 -0.0313
vn -0.4824 -0.8581 -0.1760
vn -0.0394 -0.9985 -0.0378
vn -0.7517 -0.1022 -0.6515
vn -0.2731 -0.8640 -0.4229
vn -0.9260 -0.0820 -0.3685
vn -0.7290 -0.0307 -0.6838
vn -0.0807 0.9955 -0.0504
vn -0.9164 -0.0152 -0.3999
vn -0.0864 -0.9952 -0.0470
vn -0.0772 -0.9845 -0.1578
vn -0.4355 -0.0065 -0.9002
vn -0.0754 0.9941 -0.0782
vn -0.0002 0.9975 0.0712
vn -0.0335 0.9993 0.0191
vn -0.0432 0.9582 0.2829
vn 0.0123 0.9248 0.3804
vn 0.0130 0.9973 0.0717
vn 0.0040 0.9995 -0.0319
vn -0.0167 0.9997 -0.0182
vn -0.0442 -0.9990 0.0036
vn -0.3674 -0.9108 -0.1885
vn -0.4434 -0.8963 -0.0085
vn 0.0904 -0.9959 0.0052
vn -0.0370 -0.9993 0.0021
vn -0.1080 -0.9936 -0.0317
vn 0.0256 -0.9986 -0.0464
vn -0.1015 0.9946 -0.0206
vn 0.1471 0.9816 0.1219
vn 0.1384 0.9887 0.0568
vn -0.1371 0.9906 0.0009
vn -0.9819 0.0006 -0.1893
vn -0.1172 -0.9365 0.3306
vn -0.2120 -0.9498 -0.2299
vn -0.0479 -0.9984 0.0289
vn 0.0022 -0.9955 0.0945
vn 0.0163 -0.8102 0.5859
vn 0.0100 -0.0898 0.9959
vn -0.0106 -0.9999 -0.0022
vn 0.9946 -0.1035 0.0128
vn 0.4736 -0.8807 -0.0057
vn 0.4856 -0.8419 0.2355
vn 0.9992 -0.0192 0.0342
vn 0.9994 -0.0177 0.0301
vn 0.9097 -0.1023 0.4025
vn 0.3201 -0.8309 0.4551
vn 0.9984 -0.0242 0.0509
vn 0.9091 -0.1156 0.4003
vn 0.9434 -0.0063 0.3316
vn 0.8252 0.0036 0.5648
vn 0.7448 -0.1335 0.6538
vn 0.3566 -0.8839 0.3026
vn 0.9975 -0.0613 0.0355
vn 0.4291 -0.8861 0.1755
vn 0.9941 -0.0716 0.0814
vn -0.9996 -0.0064 0.0286
vn 0.9997 0.0135 -0.0224
vn 0.2412 -0.9701 0.0285
vn 0.0741 -0.9908 0.1133
vn -0.9967 0.0783 0.0203
vn 0.1425 0.9897 0.0109
vn 0.9912 -0.0627 0.1170
vn -0.9939 -0.0811 0.0748
vn 0.1323 0.9857 0.1046
vn -0.2104 -0.9351 -0.2851
vn -0.2588 -0.9393 -0.2253
vn -0.0220 -0.9997 -0.0141
vn -0.0074 -0.9997 -0.0214
vn -0.4496 -0.7876 -0.4214
vn 0.0041 -0.9991 -0.0431
vn -0.2074 -0.8810 -0.4252
vn 0.4423 -0.8806 0.1701
vn 0.0281 -0.9943 0.1032
vn 0.0448 -0.9987 -0.0251
vn 0.2353 0.9639 -0.1245
vn 0.0528 -0.1504 0.9872
vn 0.3907 -0.8827 -0.2612
vn -0.0017 -0.8620 0.5070
vn 0.1000 0.1580 -0.9824
vn 0.4908 0.0941 0.8662
vn 0.0886 -0.9858 0.1429
vn 0.7503 0.0295 0.6604
vn 0.0474 0.9963 0.0713
vn 0.0598 0.9859 0.1560
vn 0.3311 0.0067 0.9436
vn 0.0165 0.9997 0.0194
vn -0.0204 0.9996 -0.0178
vn 0.1939 0.9257 0.3247
vn 0.3734 0.8756 0.3064
vn 0.2446 0.9598 0.1377
vn 0.0281 0.9996 0.0084
vn 0.6571 0.0377 0.7528
vn 0.3849 0.0941 0.9181
vn 0.7445 0.1307 0.6548
vn 0.7303 -0.0345 0.6822
vn 0.4738 -0.0031 0.8806
vn 0.8719 0.0047 0.4896
vn -0.0229 0.0109 -0.9997
vn -0.0155 0.0561 -0.9983
vn 0.0715 0.0171 -0.9973
vn 0.0828 -0.0809 -0.9933
vn -0.0210 -0.0967 -0.9951
vn -0.3336 0.0078 -0.9427
vn -0.2241 0.0914 -0.9703
vn -0.2338 -0.0523 -0.9709
vn -0.5186 0.8547 -0.0241
vn -0.5045 0.8425 -0.1888
vn -0.9993 0.0301 -0.0202
vn -0.2465 0.9303 0.2715
vn -0.1064 0.9943 -0.0052
vn -0.0674 0.9975 -0.0213
vn 0.9301 0.0690 0.3608
vn 0.9987 0.0197 0.0474
vn 0.2369 0.7961 0.5569
vn -0.2545 -0.9613 0.1060
vn -0.9928 -0.1052 -0.0580
vn 0.1027 0.9922 0.0704
vn 0.5308 0.8475 -0.0054
vn 0.9952 0.0919 0.0325
vn -0.0208 0.9967 -0.0789
vn -0.1877 0.9644 -0.1861
vn -0.9021 -0.1807 -0.3919
vn 0.0457 -0.9990 -0.0016
vn 0.0992 -0.9925 0.0712
vn 0.0990 -0.9822 0.1594
vn 0.2035 -0.9693 -0.1383
vn 0.0192 -0.9662 0.2572
vn 0.1802 -0.0017 0.9836
vn 0.0030 -0.9912 -0.1326
vn 0.3759 0.8925 -0.2492
vn 0.1364 0.0776 -0.9876
vn 0.6120 -0.0603 0.7886
vn 0.7829 -0.1874 0.5933
vn 0.5717 -0.4431 0.6905
vn 0.3872 -0.1178 0.9145
vn -0.2706 0.8646 -0.4234
vn -0.0426 0.9966 -0.0699
vn -0.1551 0.8484 -0.5060
vn -0.4996 0.1129 -0.8589
vn -0.3756 0.8706 -0.3177
vn 0.3441 0.9344 0.0918
vn 0.4486 0.8937 0.0091
vn 0.5206 0.8348 0.1791
vn 0.9973 0.0725 0.0085
vn -0.0170 0.8340 -0.5515
vn 0.0351 0.0017 0.9994
vn 0.0467 -0.0033 0.9989
vn 0.0101 -0.0664 0.9977
vn 0.0343 0.0933 0.9950
vn 0.0069 0.0925 0.9957
vn -0.0137 0.0197 -0.9997
vn 0.0231 -0.0089 -0.9997
vn 0.0238 0.9990 0.0377
vn -0.0177 0.9962 -0.0856
vn -0.0699 0.9965 -0.0457
vn 0.0337 0.9991 0.0251
vn 0.5169 0.3232 0.7927
vn 0.1249 0.8494 0.5128
vn 0.2621 0.1152 0.9581
vn 0.7500 0.1151 0.6513
vn 0.5023 0.1356 0.8540
vn 0.0048 0.8913 0.4534
vn 0.2197 0.8576 0.4650
vn 0.0285 -0.9992 0.0295
vn 0.1979 -0.8692 0.4532
vn 0.2977 -0.8723 0.3880
vn 0.0160 -0.9993 0.0341
vn -0.0209 -0.9951 -0.0967
vn 0.0004 -0.9990 0.0438
vn 0.0037 -0.9958 -0.0915
vn -0.9985 -0.0414 -0.0364
vn -0.9990 -0.0108 -0.0440
vn -0.9565 -0.0237 -0.2907
vn -0.5149 -0.8570 -0.0199
vn 0.0581 -0.9841 0.1677
vn 0.0070 -0.9953 -0.0970
vn 0.0707 -0.0463 0.9964
vn 0.9108 0.0206 0.4124
vn 0.1278 -0.9887 0.0784
vn 0.1780 -0.9814 0.0715
vn 0.0187 0.3490 0.9369
vn 0.0167 0.0613 0.9980
vn 0.3993 0.8759 0.2707
vn 0.0503 -0.0699 -0.9963
vn 0.0065 0.9930 -0.1184
vn 0.0127 0.9748 0.2226
vn -0.0154 0.9951 -0.0980
vn 0.0527 0.9986 0.0082
vn -0.0238 -0.0331 -0.9992
vn -0.0294 0.9994 0.0184
vn 0.0528 0.9986 -0.0004
vn -0.0662 -0.9977 -0.0150
vn -0.0097 -0.8627 -0.5056
vn 0.1357 0.1385 0.9810
vn 0.0220 0.0990 0.9948
vn 0.0145 -0.0075 0.9999
vn -0.9935 0.0064 0.1136
vn -0.9999 0.0056 0.0136
vn -0.1198 0.9850 0.1238
vn 0.0002 0.9988 0.0494
vn -0.0017 0.9941 -0.1083
vn 0.0786 0.9917 0.1015
vn 0.0222 0.9991 -0.0362
vn 0.3456 -0.8742 0.3410
vn 0.0380 -0.9990 0.0218
vn 0.5869 -0.0270 0.8092
vn 0.4335 -0.5188 0.7368
vn 0.2626 0.9572 -0.1220
vn 0.0812 0.9967 0.0025
vn 0.9963 0.0856 0.0107
vn -0.2603 0.0152 -0.9654
vn -0.0322 0.9949 -0.0960
vn 0.0464 0.9904 0.1303
vn -0.0770 -0.9970 0.0079
vn -0.0632 -0.9980 -0.0072
vn 0.3656 0.8551 0.3676
vn 0.5796 0.7742 0.2545
vn 0.9090 0.0643 0.4118
vn 0.3479 0.9060 0.2410
vn -0.1013 -0.9948 -0.0042
vn 0.0340 -0.0255 0.9991
vn 0.0185 -0.0621 0.9979
vn 0.2315 -0.1135 0.9662
vn 0.3320 -0.0114 0.9432
vn -0.9962 0.0840 -0.0250
vn -0.8778 0.0213 -0.4786
vn -0.8796 0.2038 -0.4298
vn -0.4217 0.9068 -0.0014
vn -0.2224 0.9502 -0.2181
vn -1.0000 0.0015 -0.0085
vn -0.9988 0.0141 -0.0474
vn -0.9945 0.0623 -0.0846
vn -0.7599 0.0989 -0.6425
vn -0.9477 0.0340 -0.3172
vn 0.9934 -0.1124 0.0215
vn 0.9962 0.0815 0.0305
vn -0.0333 0.9994 -0.0047
vn -0.2518 0.9403 -0.2291
vn -0.1630 0.9492 -0.2690
vn 0.9994 0.0301 0.0143
vn 0.4550 -0.8903 0.0172
vn 0.0435 -0.9989 0.0179
vn 0.2716 -0.9524 -0.1384
vn -0.4522 -0.1728 -0.8750
vn -0.0301 -0.0862 -0.9958
vn -0.3858 0.0217 -0.9223
vn -0.6540 0.0168 -0.7563
vn -0.7227 -0.1398 -0.6768
vn -0.0041 -0.9032 -0.4291
vn -0.8328 -0.0252 -0.5530
vn -0.2438 -0.8828 0.4015
vn -0.0336 -0.9993 0.0187
vn 0.0264 -0.9989 0.0387
vn 0.0513 -0.9980 0.0364
vn -0.5794 -0.0211 -0.8148
vn -0.5120 -0.0810 -0.8552
vn -0.0333 -0.9933 -0.1109
vn -0.0003 0.9354 -0.3535
vn 0.0257 0.9989 -0.0391
vn -0.0380 0.0151 -0.9992
vn -0.7267 0.1832 -0.6620
vn -0.9966 -0.0802 -0.0171
vn -0.2278 -0.9450 -0.2347
vn 0.0283 0.9996 0.0073
vn -0.3554 0.9157 -0.1877
vn -0.0894 0.9957 -0.0242
vn -0.0347 0.9994 0.0036
vn -0.4627 0.2257 -0.8573
vn -0.1859 0.8578 -0.4792
vn -0.3803 0.8322 -0.4035
vn -0.0303 0.1309 -0.9909
vn 0.1394 -0.8489 0.5099
vn 0.0265 -0.9957 0.0885
vn -0.1532 -0.8346 -0.5291
vt 0.990499 0.746411
vt 0.953211 0.746411
vt 0.975961 0.676496
vt 0.596067 0.117607
vt 0.673850 0.174120
vt 0.594872 0.166229
vt 0.501906 0.905519
vt 0.500443 0.897222
vt 0.589621 0.903598
vt 0.017705 0.002029
vt 0.090959 0.002987
vt 0.018268 0.008464
vt 0.035477 0.142414
vt 0.126866 0.112720
vt 0.138776 0.162855
vt 0.011964 0.468774
vt 0.006499 0.406311
vt 0.012590 0.404451
vt 0.132904 0.667366
vt 0.100264 0.632801
vt 0.132904 0.630570
vt 0.272404 0.671315
vt 0.304671 0.672044
vt 0.292163 0.698867
vt 0.512047 0.347610
vt 0.543250 0.371355
vt 0.509007 0.382362
vt 0.144282 0.406299
vt 0.141214 0.441359
vt 0.110519 0.404537
vt 0.253640 0.697522
vt 0.101497 0.667408
vt 0.574504 0.145429
vt 0.492303 0.152620
vt 0.477870 0.142044
vt 0.938034 0.312522
vt 0.975329 0.312522
vt 0.964763 0.393792
vt 0.810181 0.919872
vt 0.827104 0.971954
vt 0.740689 0.966061
vt 0.586817 0.964561
vt 0.503736 0.964561
vt 0.506669 0.951249
vt 0.504698 0.255237
vt 0.600858 0.263650
vt 0.500463 0.264587
vt 0.727540 0.390342
vt 0.769279 0.390342
vt 0.731278 0.488268
vt 0.139333 0.163808
vt 0.077974 0.218035
vt 0.051787 0.156343
vt 0.923705 0.343559
vt 0.923705 0.256539
vt 0.933857 0.343241
vt 0.468689 0.545003
vt 0.466959 0.644109
vt 0.397195 0.644424
vt 0.950473 0.719862
vt 0.938905 0.711762
vt 0.948515 0.634519
vt 0.451080 0.189723
vt 0.428831 0.214994
vt 0.397112 0.166151
vt 0.014421 0.260184
vt 0.014421 0.176429
vt 0.060958 0.238843
vt 0.728849 0.281176
vt 0.740069 0.287654
vt 0.736901 0.380596
vt 0.098615 0.594622
vt 0.837641 0.578468
vt 0.825306 0.482716
vt 0.852667 0.493250
vt 0.098129 0.560747
vt 0.132482 0.593854
vt 0.145936 0.198290
vt 0.153728 0.109227
vt 0.155581 0.204527
vt 0.500947 0.907985
vt 0.586179 0.904566
vt 0.513662 0.923138
vt 0.354914 0.154181
vt 0.368552 0.144631
vt 0.452722 0.154928
vt 0.668869 0.794983
vt 0.677409 0.892588
vt 0.668162 0.896157
vt 0.628819 0.992277
vt 0.628819 0.995976
vt 0.612983 0.994466
vt 0.709681 0.544566
vt 0.709681 0.645569
vt 0.707353 0.543858
vt 0.176728 0.546641
vt 0.168526 0.522982
vt 0.227839 0.514646
vt 0.167590 0.139477
vt 0.261904 0.123868
vt 0.262134 0.139477
vt 0.235292 0.539967
vt 0.262170 0.142408
vt 0.730245 0.804762
vt 0.792911 0.815811
vt 0.727892 0.901828
vt 0.686146 0.647516
vt 0.670683 0.646163
vt 0.678329 0.545827
vt 0.714099 0.717415
vt 0.714099 0.818369
vt 0.709788 0.717118
vt 0.564723 0.761635
vt 0.565810 0.823289
vt 0.457685 0.823289
vt 0.887335 0.119736
vt 0.835593 0.047719
vt 0.842431 0.045002
vt 0.564544 0.825672
vt 0.649254 0.882809
vt 0.534049 0.873902
vt 0.569357 0.821566
vt 0.892624 0.117537
vt 0.458883 0.761987
vt 0.109470 0.407212
vt 0.107791 0.340874
vt 0.108466 0.349693
vt 0.397454 0.833354
vt 0.295155 0.833354
vt 0.396500 0.825480
vt 0.223708 0.439397
vt 0.277818 0.417713
vt 0.317501 0.502813
vt 0.282451 0.834749
vt 0.384705 0.834749
vt 0.384236 0.841217
vt 0.224277 0.506638
vt 0.035297 0.673364
vt 0.035297 0.571374
vt 0.042530 0.571404
vt 0.133699 0.671935
vt 0.133818 0.560370
vt 0.165860 0.639774
vt 0.097709 0.406130
vt 0.090949 0.405745
vt 0.090949 0.304100
vt 0.951936 0.806129
vt 0.916359 0.739847
vt 0.949788 0.720547
vt 0.498262 0.924428
vt 0.412653 0.924428
vt 0.498231 0.887613
vt 0.900242 0.760910
vt 0.845918 0.539690
vt 0.919191 0.497386
vt 0.857189 0.570616
vt 0.854643 0.492097
vt 0.732088 0.009015
vt 0.732088 0.034059
vt 0.665856 0.027189
vt 0.148689 0.032503
vt 0.134013 0.048897
vt 0.072826 0.043544
vt 0.937894 0.311570
vt 0.937894 0.230769
vt 0.956379 0.305667
vt 0.060807 0.024844
vt 0.139307 0.021588
vt 0.793671 0.383796
vt 0.797127 0.383796
vt 0.793947 0.475724
vt 0.445946 0.025621
vt 0.532517 0.026830
vt 0.447184 0.029021
vt 0.793981 0.383093
vt 0.793981 0.287489
vt 0.808564 0.365460
vt 0.761375 0.029643
vt 0.765368 0.006996
vt 0.818355 0.030204
vt 0.407626 0.431264
vt 0.355957 0.562863
vt 0.360081 0.448568
vt 0.401703 0.560996
vt 0.952234 0.775308
vt 0.952234 0.747942
vt 0.991966 0.762991
vt 0.732174 0.986363
vt 0.714352 0.998842
vt 0.691712 0.985005
vt 0.427927 0.701572
vt 0.530348 0.696204
vt 0.424131 0.738940
vt 0.738208 0.488795
vt 0.768461 0.395689
vt 0.790915 0.404480
vt 0.133983 0.057351
vt 0.126501 0.099782
vt 0.040270 0.059282
vt 0.619228 0.596575
vt 0.619228 0.493978
vt 0.652431 0.579655
vt 0.778229 0.930445
vt 0.692647 0.930445
vt 0.713143 0.894812
vt 0.457558 0.426355
vt 0.467436 0.482379
vt 0.454248 0.544276
vt 0.781582 0.629340
vt 0.726983 0.611599
vt 0.781308 0.526314
vt 0.873902 0.675099
vt 0.873902 0.586681
vt 0.908045 0.675317
vt 0.971934 0.467234
vt 0.920800 0.453533
vt 0.977377 0.452193
vt 0.981305 0.523172
vt 0.921398 0.522782
vt 0.584297 0.179719
vt 0.592705 0.201622
vt 0.459180 0.175745
vt 0.473831 0.116964
vt 0.538386 0.111674
vt 0.509091 0.141653
vt 0.532238 0.862026
vt 0.533384 0.875125
vt 0.430884 0.867873
vt 0.687194 0.648131
vt 0.672169 0.749813
vt 0.673933 0.648131
vt 0.045648 0.882962
vt 0.098077 0.813858
vt 0.140353 0.844573
vt 0.184260 0.332285
vt 0.100913 0.271729
vt 0.187878 0.282135
vt 0.025660 0.940642
vt 0.040524 0.894893
vt 0.120204 0.921063
vt 0.485856 0.279811
vt 0.383986 0.279811
vt 0.383943 0.266445
vt 0.058823 0.783215
vt 0.257550 0.506617
vt 0.345555 0.557428
vt 0.251831 0.513935
vt 0.704292 0.802428
vt 0.704292 0.903396
vt 0.693162 0.812257
vt 0.357099 0.509749
vt 0.037957 0.408046
vt 0.035954 0.407871
vt 0.037889 0.307079
vt 0.662785 0.647930
vt 0.662785 0.546881
vt 0.664185 0.546890
vt 0.172981 0.236484
vt 0.197183 0.232217
vt 0.176992 0.271943
vt 0.184843 0.984286
vt 0.173425 0.949145
vt 0.247035 0.964044
vt 0.642563 0.550558
vt 0.610981 0.453358
vt 0.657741 0.461767
vt 0.241922 0.197765
vt 0.341534 0.197765
vt 0.243005 0.253043
vt 0.579046 0.007163
vt 0.533228 0.072908
vt 0.555903 0.015131
vt 0.044132 0.058017
vt 0.057710 0.041836
vt 0.134526 0.056264
vt 0.814468 0.880461
vt 0.815788 0.785716
vt 0.829524 0.865405
vt 0.345786 0.887079
vt 0.447655 0.887079
vt 0.431523 0.897062
vt 0.560326 0.001493
vt 0.334474 0.745132
vt 0.355681 0.818745
vt 0.330007 0.759741
vt 0.810711 0.880366
vt 0.277034 0.334305
vt 0.191884 0.272440
vt 0.275758 0.272156
vt 0.520157 0.043984
vt 0.447927 0.031389
vt 0.460477 0.047311
vt 0.641016 0.122774
vt 0.734640 0.116194
vt 0.734640 0.158751
vt 0.638830 0.147200
vt 0.058393 0.222511
vt 0.355087 0.202072
vt 0.175204 0.429864
vt 0.759615 0.050990
vt 0.838418 0.032797
vt 0.756296 0.065588
vt 0.370305 0.142378
vt 0.275314 0.142378
vt 0.290025 0.127813
vt 0.235931 0.897562
vt 0.274399 0.842936
vt 0.236517 0.897469
vt 0.681024 0.877876
vt 0.681024 0.777532
vt 0.689020 0.877859
vt 0.356335 0.903515
vt 0.703215 0.793501
vt 0.693750 0.809895
vt 0.694499 0.708460
vt 0.631821 0.993037
vt 0.621864 0.986065
vt 0.648817 0.985426
vt 0.639786 0.424353
vt 0.607972 0.326438
vt 0.662219 0.325035
vt 0.465250 0.497374
vt 0.530484 0.459712
vt 0.499806 0.547862
vt 0.659588 0.461949
vt 0.728263 0.541841
vt 0.644590 0.547004
vt 0.083595 0.970059
vt 0.015279 0.971970
vt 0.065596 0.954956
vt 0.727168 0.449362
vt 0.642271 0.445164
vt 0.227017 0.063443
vt 0.219932 0.103621
vt 0.134166 0.060377
vt 0.226627 0.057827
vt 0.859162 0.587305
vt 0.814221 0.671828
vt 0.811702 0.570463
vt 0.865733 0.589569
vt 0.345751 0.092835
vt 0.309869 0.072118
vt 0.403298 0.076587
vt 0.849436 0.379745
vt 0.859579 0.322219
vt 0.850750 0.416442
vt 0.602070 0.059427
vt 0.638188 0.146642
vt 0.599208 0.100359
vt 0.618395 0.999579
vt 0.632171 0.997150
vt 0.634175 0.999913
vt 0.628735 0.091883
vt 0.931770 0.344206
vt 0.931770 0.431124
vt 0.923345 0.344618
vt 0.458916 0.903549
vt 0.357041 0.903549
vt 0.357138 0.889403
vt 0.985357 0.319591
vt 0.985357 0.246244
vt 0.991148 0.247034
vt 0.334036 0.885865
vt 0.334228 0.883668
vt 0.435910 0.886279
vt 0.913775 0.108703
vt 0.913775 0.199028
vt 0.899245 0.199178
vt 0.899664 0.199883
vt 0.916293 0.199883
vt 0.914964 0.290572
vt 0.688837 0.909734
vt 0.605701 0.909734
vt 0.689137 0.898158
vt 0.739136 0.169246
vt 0.739136 0.077450
vt 0.753767 0.166955
vt 0.915796 0.307008
vt 0.915796 0.398816
vt 0.901140 0.396136
vt 0.168532 0.642793
vt 0.168532 0.577043
vt 0.259100 0.638691
vt 0.407557 0.412014
vt 0.286030 0.372527
vt 0.401805 0.368701
vt 0.727524 0.744952
vt 0.727524 0.646629
vt 0.769294 0.674547
vt 0.107225 0.819271
vt 0.111694 0.790112
vt 0.214361 0.817622
vt 0.133238 0.103700
vt 0.618649 0.494502
vt 0.618649 0.597520
vt 0.593784 0.596662
vt 0.912798 0.676212
vt 0.916082 0.583366
vt 0.921986 0.583210
vt 0.243781 0.027465
vt 0.329842 0.027465
vt 0.330374 0.034209
vt 0.566371 0.708615
vt 0.566371 0.601713
vt 0.584877 0.706756
vt 0.381403 0.691797
vt 0.394591 0.707514
vt 0.303139 0.744326
vt 0.123606 0.105155
vt 0.227682 0.880813
vt 0.141627 0.823846
vt 0.227682 0.820448
vt 0.141959 0.886356
vt 0.243591 0.822991
vt 0.242875 0.885161
vt 0.923563 0.441096
vt 0.000087 0.274006
vt 0.028932 0.322288
vt 0.000087 0.329702
vt 0.321499 0.922860
vt 0.340500 0.981339
vt 0.264493 0.984140
vt 0.385252 0.310372
vt 0.490910 0.310372
vt 0.476354 0.342589
vt 0.041029 0.262075
vt 0.274029 0.783964
vt 0.163563 0.783964
vt 0.179417 0.745160
vt 0.600003 0.879822
vt 0.600003 0.903340
vt 0.498871 0.895896
vt 0.347255 0.904192
vt 0.433949 0.904192
vt 0.351680 0.916659
vt 0.048317 0.509167
vt 0.048317 0.611244
vt 0.035383 0.510779
vt 0.674863 0.344238
vt 0.674863 0.445777
vt 0.662875 0.444323
vt 0.401150 0.250360
vt 0.401150 0.264079
vt 0.300269 0.262597
vt 0.195195 0.335813
vt 0.662969 0.429737
vt 0.662969 0.328937
vt 0.675749 0.328462
vt 0.169070 0.645201
vt 0.284675 0.645201
vt 0.254856 0.693027
vt 0.039301 0.886404
vt 0.128249 0.857771
vt 0.132505 0.865776
vt 0.707309 0.704370
vt 0.709235 0.704370
vt 0.707583 0.805664
vt 0.042291 0.894125
vt 0.453451 0.557919
vt 0.406951 0.534087
vt 0.453548 0.453378
vt 0.678150 0.446028
vt 0.678150 0.345111
vt 0.720284 0.446862
vt 0.789858 0.164563
vt 0.789858 0.186881
vt 0.693255 0.175297
vt 0.973943 0.678614
vt 0.951633 0.747276
vt 0.950678 0.672205
vt 0.034699 0.670230
vt 0.006132 0.624398
vt 0.034699 0.622826
vt 0.005927 0.671839
vt 0.828709 0.984117
vt 0.828709 0.919946
vt 0.850194 0.924054
vt 0.549005 0.572801
vt 0.546725 0.687600
vt 0.503369 0.683807
vt 0.348156 0.435558
vt 0.348156 0.397993
vt 0.362512 0.435234
vt 0.508056 0.575461
vt 0.856535 0.482718
vt 0.333993 0.436564
vt 0.671314 0.951726
vt 0.751615 0.938010
vt 0.754041 0.943211
vt 0.773795 0.996839
vt 0.723513 0.996839
vt 0.772972 0.993371
vt 0.753482 0.956263
vt 0.886050 0.999794
vt 0.886050 0.974264
vt 0.934312 0.987614
vt 0.443527 0.053833
vt 0.368128 0.029335
vt 0.455171 0.046954
vt 0.291576 0.573695
vt 0.271221 0.644408
vt 0.261202 0.622860
vt 0.525159 0.851904
vt 0.525978 0.861262
vt 0.423606 0.860298
vt 0.417770 0.963233
vt 0.335534 0.963233
vt 0.417285 0.952576
vt 0.039844 0.810852
vt 0.039844 0.708971
vt 0.104551 0.710299
vt 0.235208 0.890539
vt 0.235208 0.898497
vt 0.133368 0.895895
vt 0.428065 0.878495
vt 0.325728 0.878495
vt 0.412242 0.825372
vt 0.269281 0.841532
vt 0.371443 0.841532
vt 0.370842 0.849608
vt 0.106330 0.516657
vt 0.107174 0.479837
vt 0.141257 0.515447
vt 0.378013 0.335561
vt 0.449459 0.334314
vt 0.453607 0.435632
vt 0.775302 0.045372
vt 0.755775 0.031700
vt 0.843833 0.030496
vt 0.768657 0.918477
vt 0.838052 0.868058
vt 0.848573 0.919019
vt 0.882646 0.399648
vt 0.889594 0.320228
vt 0.893663 0.412028
vt 0.582913 0.363417
vt 0.569931 0.390033
vt 0.485249 0.325092
vt 0.588173 0.331312
vt 0.094664 0.969790
vt 0.150490 0.951652
vt 0.157905 0.982758
vt 0.569243 0.144322
vt 0.526015 0.556433
vt 0.664863 0.648657
vt 0.666897 0.648657
vt 0.667002 0.750266
vt 0.671592 0.648183
vt 0.656181 0.999788
vt 0.635058 0.999788
vt 0.635142 0.997765
vt 0.826200 0.482060
vt 0.864111 0.433717
vt 0.865751 0.454366
vt 0.825332 0.435605
vt 0.821857 0.994957
vt 0.817403 0.988596
vt 0.828140 0.991714
vt 0.775874 0.987155
vt 0.363099 0.237666
vt 0.681445 0.545309
vt 0.690557 0.545309
vt 0.687036 0.647055
vt 0.782042 0.261406
vt 0.696318 0.205118
vt 0.778057 0.198902
vt 0.099241 0.283118
vt 0.099241 0.385017
vt 0.090186 0.283981
vt 0.261575 0.378759
vt 0.288983 0.334897
vt 0.381107 0.343107
vt 0.858554 0.760644
vt 0.798412 0.764393
vt 0.798412 0.674396
vt 0.924850 0.236508
vt 0.932334 0.150966
vt 0.937118 0.238657
vt 0.595482 0.949796
vt 0.589288 0.963077
vt 0.512203 0.951116
vt 0.865807 0.668794
vt 0.642237 0.087101
vt 0.569911 0.034553
vt 0.656717 0.032331
vt 0.191424 0.948939
vt 0.259062 0.899797
vt 0.296094 0.948955
vt 0.944782 0.241817
vt 0.992938 0.193238
vt 0.992177 0.245963
vt 0.936088 0.202904
vt 0.984840 0.075305
vt 0.963913 0.033982
vt 0.987139 0.056577
vt 0.465111 0.538731
vt 0.510936 0.574552
vt 0.554744 0.751242
vt 0.599210 0.687738
vt 0.603357 0.794396
vt 0.042300 0.942372
vt 0.106432 0.668229
vt 0.172569 0.759258
vt 0.108425 0.761041
vt 0.894703 0.200707
vt 0.894703 0.290727
vt 0.886501 0.201579
vt 0.531162 0.073508
vt 0.588760 0.073508
vt 0.588502 0.166335
vt 0.275643 0.143005
vt 0.373892 0.143005
vt 0.284448 0.153128
vt 0.861923 0.285384
vt 0.865738 0.307021
vt 0.826381 0.287936
vt 0.713978 0.881626
vt 0.712381 0.882966
vt 0.715911 0.782722
vt 0.780320 0.361992
vt 0.780320 0.263069
vt 0.782088 0.263759
vt 0.671117 0.936461
vt 0.754238 0.936461
vt 0.672802 0.948023
vt 0.543932 0.421990
vt 0.505368 0.455711
vt 0.507016 0.419762
vt 0.244910 0.057731
vt 0.247379 0.042816
vt 0.332721 0.035349
vt 0.547006 0.461005
vt 0.602926 0.264360
vt 0.601718 0.326437
vt 0.520288 0.326437
vt 0.519542 0.266906
vt 0.867034 0.690691
vt 0.873621 0.689128
vt 0.894382 0.779052
vt 0.953618 0.775907
vt 0.989200 0.787469
vt 0.951573 0.848664
vt 0.593737 0.457574
vt 0.593737 0.352998
vt 0.617227 0.357870
vt 0.108357 0.440813
vt 0.140877 0.479143
vt 0.502321 0.961711
vt 0.422626 0.954739
vt 0.505421 0.951652
vt 0.965956 0.523834
vt 0.977265 0.523834
vt 0.970344 0.605388
vt 0.917231 0.383832
vt 0.919694 0.383832
vt 0.916331 0.474710
vt 0.219320 0.557256
vt 0.663939 0.747789
vt 0.663939 0.647218
vt 0.665479 0.747427
vt 0.432906 0.104744
vt 0.448331 0.057272
vt 0.534299 0.094614
vt 0.947071 0.891592
vt 0.939894 0.809562
vt 0.951932 0.806890
vt 0.332692 0.398925
vt 0.229265 0.399431
vt 0.189783 0.272691
vt 0.274524 0.334259
vt 0.186073 0.326493
vt 0.163300 0.901110
vt 0.098937 0.936480
vt 0.159632 0.897442
vt 0.417860 0.743767
vt 0.184470 0.936625
vt 0.729074 0.104998
vt 0.655647 0.040127
vt 0.747192 0.037380
vt 0.010610 0.472293
vt 0.001627 0.469886
vt 0.006133 0.413659
vt 0.711335 0.421975
vt 0.712365 0.323102
vt 0.728139 0.326678
vt 0.725985 0.424818
vt 0.670304 0.107015
vt 0.686448 0.341722
vt 0.215604 0.120215
vt 0.236051 0.057285
vt 0.264991 0.123459
vt 0.670071 0.964715
vt 0.599673 0.964715
vt 0.670993 0.912157
vt 0.959191 0.605800
vt 0.952555 0.529951
vt 0.965213 0.523911
vt 0.500255 0.253781
vt 0.600577 0.253781
vt 0.599804 0.261638
vt 0.237564 0.801559
vt 0.985630 0.167155
vt 0.190314 0.226252
vt 0.114911 0.265672
vt 0.093206 0.228079
vt 0.861805 0.903055
vt 0.852341 0.901386
vt 0.854200 0.813538
vt 0.245960 0.803842
vt 0.346952 0.821649
vt 0.240420 0.821709
vt 0.697138 0.544315
vt 0.706680 0.544315
vt 0.698302 0.646091
vt 0.852604 0.104638
vt 0.760221 0.104638
vt 0.835565 0.074510
vt 0.092235 0.227105
vt 0.115960 0.186013
vt 0.191171 0.223745
vt 0.807024 0.190352
vt 0.804572 0.105291
vt 0.852108 0.105291
vt 0.546080 0.852950
vt 0.445030 0.844109
vt 0.547628 0.840638
vt 0.755822 0.106567
vt 0.376734 0.337637
vt 0.281363 0.266072
vt 0.383140 0.264419
vt 0.664719 0.752092
vt 0.667635 0.751031
vt 0.664891 0.851514
vt 0.328840 0.026374
vt 0.260760 0.026722
vt 0.324187 0.009010
vt 0.056254 0.264500
vt 0.056254 0.366435
vt 0.040662 0.267362
vt 0.277653 0.333612
vt 0.852320 0.857366
vt 0.838016 0.764453
vt 0.852939 0.761822
vt 0.835754 0.765659
vt 0.874382 0.780418
vt 0.877313 0.870297
vt 0.868859 0.871036
vt 0.918774 0.778988
vt 0.920680 0.859014
vt 0.866398 0.779335
vt 0.340642 0.564846
vt 0.190123 0.343140
vt 0.706715 0.699133
vt 0.706715 0.800622
vt 0.694656 0.700873
vt 0.399668 0.249479
vt 0.298974 0.261257
vt 0.298815 0.258302
vt 0.320109 0.488965
vt 0.493457 0.885908
vt 0.494520 0.873759
vt 0.594649 0.879728
vt 0.075809 0.231080
vt 0.075809 0.331803
vt 0.064181 0.331818
vt 0.298948 0.248778
vt 0.346570 0.770899
vt 0.443167 0.735741
vt 0.458128 0.772335
vt 0.948236 0.887775
vt 0.969778 0.821476
vt 0.990580 0.883351
vt 0.691028 0.984952
vt 0.691028 0.997916
vt 0.657479 0.989096
vt 0.504442 0.324265
vt 0.499375 0.271991
vt 0.619156 0.674620
vt 0.582019 0.686687
vt 0.585123 0.574694
vt 0.338194 0.000099
vt 0.413057 0.000099
vt 0.337310 0.041996
vt 0.484933 0.307641
vt 0.380461 0.307641
vt 0.477605 0.288052
vt 0.879265 0.197103
vt 0.848306 0.181058
vt 0.880542 0.111929
vt 0.149784 0.478725
vt 0.176544 0.551095
vt 0.146511 0.556390
vt 0.509974 0.248071
vt 0.456540 0.272988
vt 0.495296 0.221873
vt 0.477243 0.012124
vt 0.478419 0.023648
vt 0.684749 0.675162
vt 0.684749 0.776577
vt 0.669142 0.776625
vt 0.829537 0.763325
vt 0.829537 0.858799
vt 0.813635 0.765821
vt 0.662094 0.792817
vt 0.605119 0.792817
vt 0.656328 0.689864
vt 0.798090 0.286938
vt 0.820119 0.286938
vt 0.812191 0.383155
vt 0.060433 0.253764
vt 0.062753 0.354135
vt 0.056817 0.354655
vt 0.398898 0.247975
vt 0.298116 0.247975
vt 0.398817 0.241110
vt 0.064084 0.354089
vt 0.165265 0.208856
vt 0.156276 0.186827
vt 0.186610 0.168600
vt 0.071808 0.234753
vt 0.063932 0.324771
vt 0.061330 0.224910
vt 0.240690 0.247455
vt 0.887294 0.221337
vt 0.894062 0.298706
vt 0.883715 0.311702
vt 0.222259 0.688243
vt 0.262274 0.723027
vt 0.177518 0.739477
vt 0.133712 0.703775
vt 0.174623 0.650146
vt 0.230333 0.680966
vt 0.856096 0.585240
vt 0.922559 0.582079
vt 0.002840 0.341836
vt 0.013463 0.402080
vt 0.000242 0.407552
vt 0.727690 0.781302
vt 0.727690 0.882428
vt 0.717243 0.863946
vt 0.937136 0.326826
vt 0.923363 0.248714
vt 0.936525 0.239498
vt 0.755990 0.101263
vt 0.829938 0.047537
vt 0.839213 0.071904
vt 0.659340 0.038449
vt 0.664739 0.029098
vt 0.747904 0.036440
vt 0.623606 0.990790
vt 0.622780 0.988391
vt 0.627342 0.991541
vt 0.778608 0.988269
vt 0.771034 0.992641
vt 0.728979 0.989929
vt 0.726217 0.542877
vt 0.726217 0.644592
vt 0.724591 0.543255
vt 0.824411 0.386271
vt 0.532848 0.463655
vt 0.594480 0.463655
vt 0.526420 0.571492
vt 0.853214 0.001201
vt 0.917130 0.014787
vt 0.844984 0.037957
vt 0.408427 0.430823
vt 0.727121 0.749935
vt 0.719122 0.841361
vt 0.715366 0.740136
vt 0.090156 0.261767
vt 0.986554 0.080623
vt 0.938066 0.096378
vt 0.945719 0.011307
vt 0.862107 0.892143
vt 0.855118 0.812258
vt 0.866369 0.800466
vt 0.397913 0.233669
vt 0.731245 0.281259
vt 0.688205 0.213596
vt 0.682471 0.197938
vt 0.610303 0.252979
vt 0.510598 0.252979
vt 0.609457 0.227686
vt 0.659656 0.692515
vt 0.627612 0.594190
vt 0.654650 0.588934
vt 0.599277 0.609825
vt 0.614144 0.509441
vt 0.593884 0.504012
vt 0.606960 0.406369
vt 0.157604 0.947963
vt 0.085064 0.971533
vt 0.071471 0.932530
vt 0.395424 0.603223
vt 0.280543 0.640550
vt 0.289496 0.584609
vt 0.922491 0.674203
vt 0.647864 0.002526
vt 0.647864 0.031724
vt 0.591490 0.032227
vt 0.794588 0.593169
vt 0.794588 0.504061
vt 0.796699 0.502768
vt 0.574329 0.920605
vt 0.889920 0.305912
vt 0.891954 0.304205
vt 0.894221 0.395256
vt 0.899665 0.302360
vt 0.899665 0.211590
vt 0.913355 0.287860
vt 0.160262 0.598123
vt 0.843907 0.945277
vt 0.885220 0.983802
vt 0.826968 0.998140
vt 0.477040 0.010014
vt 0.471999 0.020823
vt 0.396675 0.014807
vt 0.366903 0.700198
vt 0.334560 0.699595
vt 0.336875 0.672535
vt 0.368974 0.672319
vt 0.000000 0.408357
vt 0.004405 0.409961
vt 0.000480 0.471721
vt 0.340499 0.240791
vt 0.865689 0.324904
vt 0.863324 0.418358
vt 0.471594 0.642491
vt 0.491371 0.696827
vt 0.387698 0.696871
vt 0.044812 0.605674
vt 0.044812 0.707590
vt 0.040846 0.606244
vt 0.494035 0.638820
vt 0.477094 0.142671
vt 0.461683 0.153462
vt 0.379490 0.144873
vt 0.677296 0.878891
vt 0.668801 0.781799
vt 0.680195 0.777497
vt 0.824710 0.985953
vt 0.777012 0.363169
vt 0.777012 0.264339
vt 0.779522 0.265700
vt 0.137574 0.058236
vt 0.149797 0.047980
vt 0.227576 0.056684
vt 0.362675 0.163819
vt 0.264833 0.163819
vt 0.347034 0.146999
vt 0.350050 0.824737
vt 0.411810 0.772913
vt 0.457097 0.821531
vt 0.883224 0.493802
vt 0.883224 0.401940
vt 0.897001 0.491622
vt 0.900351 0.393963
vt 0.900351 0.303068
vt 0.914627 0.303052
vt 0.112018 0.339672
vt 0.140398 0.304217
vt 0.181850 0.334334
vt 0.100088 0.272663
vt 0.452278 0.754975
vt 0.543140 0.688434
vt 0.536277 0.760849
vt 0.104977 0.508471
vt 0.035324 0.508471
vt 0.108582 0.406360
vt 0.707197 0.178204
vt 0.627390 0.236188
vt 0.576210 0.166162
vt 0.856291 0.798208
vt 0.864494 0.704451
vt 0.865686 0.799709
vt 0.986626 0.608470
vt 0.986626 0.677385
vt 0.955616 0.671761
vt 0.804764 0.873162
vt 0.798066 0.777841
vt 0.812994 0.779096
vt 0.556510 0.825438
vt 0.553812 0.840739
vt 0.453769 0.826313
vt 0.815248 0.780563
vt 0.685442 0.821877
vt 0.685442 0.721676
vt 0.688518 0.822132
vt 0.036358 0.409174
vt 0.035410 0.162575
vt 0.722111 0.645082
vt 0.718632 0.644150
vt 0.723855 0.543366
vt 0.665342 0.648026
vt 0.665342 0.546296
vt 0.677292 0.546607
vt 0.273421 0.270026
vt 0.304257 0.067491
vt 0.324289 0.089845
vt 0.225945 0.053687
vt 0.138601 0.046045
vt 0.227038 0.044698
vt 0.389554 0.300034
vt 0.382439 0.280485
vt 0.487850 0.285452
vt 0.255594 0.013215
vt 0.834193 0.763221
vt 0.848137 0.842302
vt 0.835369 0.857434
vt 0.703690 0.907443
vt 0.692786 0.915078
vt 0.694014 0.828436
vt 0.409752 0.223541
vt 0.451817 0.222832
vt 0.428485 0.270787
vt 0.958711 0.901644
vt 0.958711 0.962365
vt 0.876825 0.963750
vt 0.935101 0.107619
vt 0.883505 0.036603
vt 0.937346 0.021603
vt 0.968575 0.000564
vt 0.593051 0.353643
vt 0.593051 0.462803
vt 0.545960 0.432634
vt 0.396287 0.604079
vt 0.382250 0.664980
vt 0.283596 0.644011
vt 0.504593 0.342727
vt 0.504593 0.460503
vt 0.451844 0.377622
vt 0.788354 0.701479
vt 0.788354 0.797622
vt 0.728533 0.798766
vt 0.755920 0.067134
vt 0.833410 0.037388
vt 0.763319 0.094281
vt 0.362040 0.398434
vt 0.311149 0.752301
vt 0.199375 0.752301
vt 0.271839 0.720043
vt 0.039834 0.403096
vt 0.696502 0.672045
vt 0.687908 0.770275
vt 0.685289 0.668785
vt 0.981218 0.429507
vt 0.938824 0.443281
vt 0.938018 0.357502
vt 0.730986 0.489000
vt 0.738445 0.574250
vt 0.727047 0.587358
vt 0.797348 0.410802
vt 0.797348 0.501335
vt 0.793939 0.502560
vt 0.607219 0.894091
vt 0.243393 0.029395
vt 0.819144 0.008013
vt 0.352571 0.037425
vt 0.438562 0.065365
vt 0.351453 0.065347
vt 0.345034 0.136666
vt 0.337943 0.096451
vt 0.428683 0.142903
vt 0.778393 0.191603
vt 0.865757 0.284582
vt 0.786705 0.286613
vt 0.863490 0.190137
vt 0.853770 0.103925
vt 0.864749 0.105725
vt 0.840743 0.162082
vt 0.832625 0.159096
vt 0.940279 0.138924
vt 0.980290 0.083854
vt 0.980859 0.169205
vt 0.932504 0.147314
vt 0.325557 0.507887
vt 0.369048 0.429434
vt 0.019466 0.051324
vt 0.376985 0.673454
vt 0.733618 0.169660
vt 0.013112 0.327695
vt 0.013112 0.394283
vt 0.006467 0.329262
vt 0.587450 0.909979
vt 0.654581 0.794377
vt 0.663070 0.793635
vt 0.663089 0.894569
vt 0.131992 0.557262
vt 0.549191 0.760906
vt 0.126283 0.761248
vt 0.037216 0.653954
vt 0.039142 0.653954
vt 0.037490 0.755248
vt 0.619882 0.324460
vt 0.703130 0.295706
vt 0.720794 0.310527
vt 0.438385 0.063947
vt 0.353588 0.036395
vt 0.426129 0.049298
vt 0.708732 0.324044
vt 0.144604 0.553224
vt 0.139127 0.044908
vt 0.158346 0.031450
vt 0.227491 0.043139
vt 0.713240 0.543319
vt 0.722883 0.543319
vt 0.716851 0.645129
vt 0.640757 0.119845
vt 0.656908 0.106293
vt 0.735161 0.114897
vt 0.897503 0.382923
vt 0.897503 0.473661
vt 0.894959 0.473131
vt 0.899297 0.492467
vt 0.914996 0.403436
vt 0.901238 0.494013
vt 0.501222 0.962697
vt 0.418504 0.962697
vt 0.418579 0.955561
vt 0.246224 0.189620
vt 0.225595 0.220204
vt 0.168079 0.140540
vt 0.248912 0.184163
vt 0.959467 0.963269
vt 0.959467 0.893804
vt 0.990117 0.954599
vt 0.340576 0.977818
vt 0.339217 0.972745
vt 0.409682 0.973046
vt 0.519651 0.249609
vt 0.687591 0.981193
vt 0.678978 0.954686
vt 0.738056 0.956313
vt 0.223910 0.562225
vt 0.270466 0.141442
vt 0.504617 0.696961
vt 0.034642 0.570778
vt 0.034642 0.622076
vt 0.007942 0.615115
vt 0.863032 0.960694
vt 0.849357 0.918607
vt 0.935273 0.917915
vt 0.943379 0.608677
vt 0.943379 0.523971
vt 0.951873 0.608674
vt 0.774669 0.265417
vt 0.774669 0.364050
vt 0.761307 0.274513
vt 0.725465 0.779540
vt 0.756881 0.697699
vt 0.786038 0.702832
vt 0.201524 0.388768
vt 0.144536 0.470155
vt 0.145261 0.347760
vt 0.019775 0.181312
vt 0.031623 0.114118
vt 0.034556 0.197679
vt 0.974669 0.325689
vt 0.981397 0.402591
vt 0.968677 0.407057
vt 0.926237 0.196074
vt 0.926237 0.108391
vt 0.936220 0.108381
vt 0.234502 0.046806
vt 0.170979 0.000654
vt 0.254865 0.000183
vt 0.828327 0.381772
vt 0.600266 0.689806
vt 0.898260 0.486433
vt 0.898260 0.394624
vt 0.912802 0.409491
vt 0.918951 0.496286
vt 0.916332 0.495332
vt 0.920672 0.404840
vt 0.343867 0.056739
vt 0.253132 0.056739
vt 0.344518 0.041645
vt 0.936664 0.917156
vt 0.849924 0.917156
vt 0.932094 0.851321
vt 0.974506 0.630375
vt 0.961372 0.646028
vt 0.962493 0.570810
vt 0.331709 0.071256
vt 0.253558 0.057476
vt 0.347030 0.057488
vt 0.015863 0.052475
vt 0.027955 0.051417
vt 0.020047 0.133605
vt 0.688854 0.195222
vt 0.709082 0.178249
vt 0.786917 0.190203
vt 0.444868 0.028888
vt 0.938001 0.694852
vt 0.938001 0.610135
vt 0.951377 0.609602
vt 0.726856 0.647348
vt 0.726856 0.748355
vt 0.687730 0.646652
vt 0.052190 0.826298
vt 0.026505 0.905345
vt 0.014379 0.824953
vt 0.621020 0.321032
vt 0.697726 0.230607
vt 0.715053 0.290479
vt 0.601638 0.257376
vt 0.655178 0.985036
vt 0.659814 0.999301
vt 0.629467 0.995279
vt 0.653910 0.874225
vt 0.598914 0.792178
vt 0.038944 0.721995
vt 0.038944 0.821971
vt 0.037903 0.822303
vt 0.035411 0.794539
vt 0.035411 0.694307
vt 0.037521 0.794679
vt 0.444500 0.054531
vt 0.520369 0.045216
vt 0.529557 0.086453
vt 0.045981 0.081324
vt 0.135085 0.110276
vt 0.044064 0.125724
vt 0.436556 0.551346
vt 0.431135 0.595497
vt 0.318216 0.588428
vt 0.736905 0.495042
vt 0.772640 0.490654
vt 0.739788 0.583257
vt 0.171808 0.899358
vt 0.257952 0.899358
vt 0.174322 0.917088
vt 0.710072 0.739811
vt 0.710072 0.840032
vt 0.707941 0.840708
vt 0.431688 0.072832
vt 0.338258 0.072832
vt 0.339995 0.065200
vt 0.581429 0.575920
vt 0.581429 0.681169
vt 0.572756 0.573359
vt 0.040704 0.376166
vt 0.040704 0.274286
vt 0.052786 0.376228
vt 0.366836 0.883553
vt 0.468574 0.883553
vt 0.468700 0.885415
vt 0.876576 0.029065
vt 0.922605 0.094618
vt 0.432493 0.097334
vt 0.915681 0.496221
vt 0.878504 0.999902
vt 0.190951 0.949680
vt 0.256430 0.949680
vt 0.252890 0.964172
vt 0.797114 0.536031
vt 0.797114 0.622974
vt 0.794663 0.624027
vt 0.773705 0.490972
vt 0.786366 0.511235
vt 0.742757 0.583918
vt 0.050217 0.069481
vt 0.590093 0.573056
vt 0.129428 0.911196
vt 0.788409 0.903021
vt 0.201347 0.436395
vt 0.203117 0.335019
vt 0.274423 0.335445
vt 0.275386 0.144501
vt 0.826545 0.996436
vt 0.774532 0.996436
vt 0.775511 0.991816
vt 0.992639 0.259385
vt 0.992639 0.307814
vt 0.991698 0.246762
vt 0.691901 0.842101
s 1
usemtl Material
f 1/1/1 2/2/2 3/3/3
f 1/4/1 4/5/4 2/6/2
f 1/7/1 5/8/5 6/9/6
f 1/10/1 7/11/7 5/12/5
f 1/13/1 6/14/6 4/15/4
f 1/16/1 3/17/3 7/18/7
f 8/19/8 9/20/9 10/21/10
f 8/22/8 10/23/10 11/24/11
f 8/25/8 12/26/12 13/27/13
f 8/28/8 13/29/13 14/30/14
f 8/22/8 11/24/11 12/31/12
f 8/19/8 14/32/14 9/20/9
f 15/33/15 16/34/16 17/35/17
f 15/36/15 18/37/18 19/38/19
f 15/39/15 20/40/20 16/41/16
f 15/42/15 21/43/21 20/44/20
f 15/45/15 17/46/17 18/47/18
f 15/48/15 19/49/19 21/50/21
f 22/51/22 23/52/23 24/53/24
f 22/54/22 25/55/25 26/56/26
f 22/57/22 27/58/27 28/59/28
f 22/60/22 24/61/24 27/62/27
f 22/63/22 26/64/26 23/65/23
f 22/66/22 28/67/28 25/68/25
f 29/69/29 9/70/9 30/71/30
f 29/72/29 10/21/10 9/20/9
f 29/73/29 30/74/30 31/75/31
f 29/72/29 32/76/32 33/77/33
f 29/78/29 31/79/31 32/80/32
f 29/72/29 33/77/33 10/21/10
f 34/81/34 35/82/35 36/83/36
f 34/84/34 36/85/36 37/86/37
f 34/87/34 37/88/37 38/89/38
f 34/90/34 39/91/39 40/92/40
f 34/93/34 38/94/38 39/95/39
f 41/96/41 42/97/42 43/98/43
f 41/99/41 44/100/44 45/101/45
f 41/96/41 43/98/43 46/102/46
f 41/99/41 45/101/45 47/103/47
f 41/104/41 46/105/46 48/106/48
f 41/107/41 48/108/48 44/109/44
f 41/110/41 47/111/47 42/112/42
f 49/113/49 50/114/50 51/115/51
f 49/116/49 52/117/52 53/118/53
f 49/119/49 54/120/54 50/121/50
f 49/119/49 55/122/55 54/120/54
f 49/116/49 53/118/53 55/123/55
f 49/113/49 51/115/51 52/124/52
f 56/125/56 57/126/57 58/127/58
f 56/128/56 59/129/59 60/130/60
f 56/131/56 58/132/58 61/133/61
f 56/134/56 62/135/62 63/136/63
f 56/131/56 61/133/61 57/137/57
f 56/138/56 63/139/63 59/140/59
f 56/141/56 64/142/64 65/143/65
f 56/144/56 65/145/65 62/146/62
f 66/147/66 67/148/67 68/149/68
f 66/150/66 68/151/68 69/152/69
f 66/147/66 70/153/70 67/148/67
f 66/154/66 71/155/71 72/156/72
f 66/154/66 69/157/69 71/155/71
f 66/158/66 72/159/72 70/160/70
f 73/161/73 74/162/74 75/163/75
f 73/164/73 76/165/76 77/166/77
f 73/161/73 78/167/78 76/168/76
f 73/169/73 77/170/77 79/171/79
f 73/161/73 75/163/75 78/167/78
f 73/172/73 17/173/17 80/174/80
f 73/175/73 79/176/79 74/177/74
f 81/178/81 82/179/82 83/180/83
f 81/181/81 30/182/30 84/183/84
f 81/181/81 83/184/83 30/182/30
f 81/185/81 84/186/84 85/187/85
f 81/188/81 85/189/85 86/190/86
f 81/191/81 86/192/86 82/193/82
f 87/194/87 88/195/88 21/196/21
f 87/197/87 89/198/89 90/199/90
f 87/200/87 21/201/21 19/202/19
f 87/203/87 90/204/90 91/205/91
f 87/206/87 91/207/91 92/208/92
f 87/209/87 92/210/92 88/211/88
f 87/212/87 19/213/19 89/214/89
f 93/215/93 94/216/94 95/217/95
f 93/215/93 96/218/96 97/219/97
f 93/215/93 97/219/97 94/216/94
f 93/220/93 95/221/95 98/222/98
f 93/223/93 98/224/98 96/225/96
f 99/226/99 100/227/100 101/228/101
f 99/229/99 102/230/102 103/231/103
f 99/232/99 104/233/104 105/234/105
f 99/235/99 105/236/105 100/237/100
f 99/238/99 103/239/103 106/240/106
f 99/241/99 101/242/101 102/243/102
f 99/232/99 106/244/106 104/233/104
f 107/245/107 108/246/108 109/247/109
f 107/248/107 110/249/110 111/250/111
f 107/245/107 112/251/112 108/246/108
f 107/252/107 109/253/109 61/254/61
f 107/255/107 61/256/61 110/257/110
f 107/258/107 111/259/111 112/260/112
f 50/261/50 113/262/113 51/263/51
f 50/264/50 54/265/54 114/266/114
f 50/267/50 114/268/114 113/269/113
f 115/270/115 116/271/116 117/272/117
f 115/273/115 118/274/118 110/275/110
f 115/276/115 119/277/119 118/278/118
f 115/279/115 110/280/110 60/281/60
f 115/270/115 117/272/117 120/282/120
f 115/283/115 60/284/60 116/285/116
f 115/276/115 120/286/120 119/277/119
f 16/287/16 20/288/20 121/289/121
f 16/290/16 122/291/122 17/173/17
f 16/290/16 121/292/121 122/291/122
f 23/293/23 67/294/67 70/295/70
f 23/293/23 70/295/70 123/296/123
f 23/52/23 123/297/123 24/53/24
f 23/65/23 26/64/26 67/298/67
f 42/97/42 124/299/124 43/98/43
f 42/300/42 125/301/125 124/302/124
f 42/303/42 47/304/47 125/305/125
f 126/306/126 127/307/127 40/308/40
f 126/309/126 128/310/128 129/311/129
f 126/306/126 40/308/40 130/312/130
f 126/313/126 131/314/131 127/315/127
f 126/316/126 129/317/129 132/318/132
f 126/319/126 130/320/130 128/321/128
f 133/322/133 96/323/96 134/324/134
f 133/325/133 97/326/97 96/327/96
f 133/328/133 134/329/134 135/330/135
f 133/325/133 136/331/136 97/326/97
f 133/325/133 135/332/135 136/331/136
f 137/333/137 138/334/138 139/335/139
f 137/333/137 139/335/139 140/336/140
f 137/337/137 141/338/141 138/339/138
f 137/337/137 140/340/140 141/338/141
f 142/341/142 143/342/143 92/343/92
f 142/344/142 144/345/144 145/346/145
f 142/347/142 91/348/91 144/349/144
f 142/350/142 145/351/145 143/352/143
f 142/347/142 92/353/92 91/348/91
f 100/354/100 139/355/139 146/356/146
f 100/357/100 132/358/132 101/359/101
f 100/360/100 105/361/105 139/362/139
f 100/363/100 146/364/146 132/365/132
f 147/366/147 148/367/148 149/368/149
f 147/369/147 150/370/150 151/371/151
f 147/372/147 77/373/77 152/374/152
f 147/375/147 149/376/149 77/377/77
f 147/378/147 151/379/151 148/380/148
f 147/381/147 153/382/153 150/383/150
f 138/384/138 154/385/154 155/386/155
f 138/387/138 141/388/141 156/389/156
f 138/390/138 156/391/156 157/392/157
f 138/334/138 155/393/155 139/335/139
f 138/394/138 157/395/157 154/396/154
f 158/397/158 159/398/159 160/399/160
f 158/400/158 161/401/161 90/402/90
f 158/397/158 89/214/89 159/398/159
f 158/403/158 160/404/160 162/405/162
f 158/406/158 162/407/162 161/408/161
f 158/409/158 90/199/90 89/198/89
f 94/410/94 148/411/148 151/412/151
f 94/410/94 97/413/97 148/411/148
f 94/410/94 163/414/163 164/415/164
f 94/216/94 164/416/164 95/217/95
f 94/410/94 151/412/151 163/414/163
f 165/417/165 166/418/166 167/419/167
f 165/420/165 167/421/167 168/422/168
f 165/423/165 4/424/4 169/425/169
f 165/417/165 170/426/170 166/418/166
f 165/427/165 169/428/169 171/429/171
f 165/430/165 168/431/168 4/432/4
f 165/433/165 171/434/171 170/435/170
f 57/436/57 172/437/172 64/438/64
f 57/439/57 109/440/109 173/441/173
f 57/442/57 61/443/61 109/444/109
f 57/126/57 64/445/64 58/127/58
f 57/446/57 173/447/173 172/448/172
f 172/449/172 174/450/174 7/451/7
f 172/452/172 7/453/7 3/454/3
f 172/455/172 175/456/175 64/457/64
f 172/452/172 3/454/3 175/458/175
f 172/459/172 173/460/173 174/461/174
f 176/462/176 177/463/177 82/464/82
f 176/465/176 128/466/128 177/467/177
f 176/468/176 82/469/82 86/470/86
f 176/471/176 178/472/178 128/473/128
f 176/471/176 86/474/86 178/472/178
f 179/475/179 30/476/30 83/477/83
f 179/478/179 83/479/83 180/480/180
f 179/481/179 63/482/63 31/483/31
f 179/478/179 180/480/180 181/484/181
f 179/485/179 31/75/31 30/74/30
f 179/481/179 181/486/181 63/482/63
f 159/487/159 18/488/18 182/489/182
f 159/398/159 89/214/89 19/213/19
f 159/490/159 183/491/183 160/492/160
f 159/487/159 182/489/182 183/493/183
f 159/494/159 19/495/19 18/496/18
f 127/497/127 131/498/131 184/499/184
f 127/500/127 184/501/184 185/502/185
f 127/307/127 130/312/130 40/308/40
f 127/503/127 153/504/153 130/505/130
f 186/506/186 187/507/187 188/508/188
f 186/509/186 76/510/76 189/511/189
f 186/512/186 190/513/190 153/514/153
f 186/515/186 189/516/189 187/517/187
f 186/518/186 153/519/153 76/520/76
f 186/521/186 188/522/188 190/523/190
f 191/524/191 118/525/118 192/526/192
f 191/527/191 110/528/110 118/529/118
f 191/530/191 192/531/192 111/532/111
f 191/533/191 111/534/111 110/535/110
f 2/536/2 4/537/4 168/538/168
f 2/536/2 168/538/168 193/539/193
f 2/540/2 193/541/193 3/542/3
f 96/225/96 98/224/98 46/543/46
f 96/323/96 46/544/46 134/324/134
f 102/545/102 78/546/78 194/547/194
f 102/230/102 194/548/194 103/231/103
f 102/549/102 195/550/195 189/551/189
f 102/552/102 129/553/129 195/554/195
f 102/552/102 101/555/101 129/553/129
f 102/556/102 196/557/196 78/558/78
f 102/556/102 197/559/197 196/557/196
f 67/298/67 26/64/26 68/560/68
f 198/561/198 116/562/116 199/563/199
f 198/564/198 45/565/45 44/566/44
f 198/567/198 199/568/199 200/569/200
f 198/570/198 200/571/200 47/572/47
f 201/573/201 154/574/154 164/575/164
f 201/576/201 202/577/202 154/578/154
f 201/579/201 163/580/163 203/581/203
f 201/573/201 164/575/164 163/582/163
f 201/583/201 204/584/204 202/585/202
f 201/586/201 203/587/203 204/588/204
f 205/589/205 206/590/206 168/591/168
f 205/589/205 43/592/43 206/590/206
f 205/593/205 167/594/167 135/595/135
f 205/596/205 134/324/134 43/597/43
f 205/598/205 168/599/168 167/600/167
f 205/601/205 135/330/135 134/329/134
f 52/602/52 207/603/207 208/604/208
f 52/605/52 208/606/208 53/607/53
f 52/608/52 51/609/51 207/610/207
f 143/611/143 209/612/209 210/613/210
f 143/614/143 210/615/210 92/616/92
f 143/617/143 145/618/145 211/619/211
f 143/620/143 211/621/211 209/622/209
f 177/623/177 128/624/128 130/625/130
f 177/626/177 190/627/190 212/628/212
f 177/629/177 12/630/12 82/631/82
f 177/626/177 13/27/13 12/26/12
f 177/626/177 130/632/130 190/627/190
f 177/626/177 212/628/212 13/27/13
f 148/633/148 97/634/97 136/635/136
f 148/633/148 136/635/136 149/636/149
f 139/637/139 105/638/105 140/639/140
f 139/640/139 155/641/155 146/642/146
f 213/643/213 214/644/214 85/645/85
f 213/646/213 13/29/13 212/647/212
f 213/648/213 85/649/85 14/650/14
f 213/651/213 188/652/188 214/653/214
f 213/646/213 212/647/212 188/522/188
f 213/646/213 14/30/14 13/29/13
f 150/654/150 184/655/184 151/656/151
f 150/383/150 152/657/152 185/502/185
f 150/383/150 185/502/185 184/501/184
f 18/658/18 17/659/17 182/660/182
f 59/661/59 215/662/215 60/663/60
f 59/664/59 216/665/216 215/666/215
f 59/667/59 63/482/63 181/486/181
f 59/667/59 181/486/181 216/668/216
f 161/669/161 207/670/207 51/671/51
f 161/672/161 113/673/113 90/674/90
f 161/408/161 162/407/162 207/675/207
f 161/672/161 51/676/51 113/673/113
f 217/677/217 154/678/154 157/679/157
f 217/680/217 95/681/95 164/682/164
f 217/683/217 218/684/218 219/685/219
f 217/683/217 219/685/219 95/686/95
f 217/677/217 164/687/164 154/678/154
f 217/683/217 220/688/220 218/684/218
f 217/689/217 157/690/157 220/691/220
f 74/692/74 170/693/170 75/694/75
f 74/695/74 79/696/79 170/697/170
f 116/698/116 215/699/215 199/700/199
f 116/285/116 60/284/60 215/701/215
f 206/590/206 43/592/43 124/702/124
f 206/703/206 221/704/221 193/705/193
f 206/706/206 124/707/124 221/708/221
f 206/709/206 193/710/193 168/711/168
f 222/712/222 183/713/183 197/714/197
f 222/715/222 160/716/160 183/717/183
f 222/718/222 223/719/223 224/720/224
f 222/721/222 225/722/225 160/723/160
f 222/724/222 197/725/197 223/726/223
f 222/721/222 224/727/224 225/722/225
f 226/728/226 227/729/227 228/730/228
f 226/731/226 229/732/229 230/733/230
f 226/734/226 228/735/228 229/736/229
f 226/737/226 231/738/231 232/739/232
f 226/728/226 232/740/232 227/729/227
f 226/741/226 233/742/233 231/743/231
f 226/741/226 230/744/230 233/742/233
f 108/745/108 141/746/141 234/747/234
f 108/745/108 112/748/112 156/749/156
f 108/745/108 156/749/156 141/746/141
f 108/745/108 234/747/234 235/750/235
f 108/246/108 235/751/235 109/247/109
f 58/127/58 64/445/64 211/752/211
f 58/753/58 54/754/54 236/755/236
f 58/756/58 145/757/145 237/758/237
f 58/132/58 236/759/236 61/133/61
f 58/760/58 211/761/211 145/762/145
f 58/763/58 114/764/114 54/765/54
f 58/756/58 237/758/237 114/766/114
f 154/767/154 202/768/202 155/769/155
f 166/770/166 170/771/170 79/772/79
f 166/773/166 136/774/136 167/775/167
f 166/776/166 149/636/149 136/635/136
f 166/776/166 79/777/79 149/636/149
f 207/778/207 162/779/162 225/780/225
f 207/781/207 225/782/225 208/783/208
f 88/784/88 92/785/92 238/786/238
f 88/787/88 239/788/239 240/789/240
f 88/790/88 240/791/240 21/792/21
f 88/793/88 238/794/238 239/795/239
f 44/796/44 120/282/120 231/797/231
f 44/798/44 48/799/48 241/800/241
f 44/801/44 241/802/241 120/803/120
f 187/804/187 178/805/178 214/806/214
f 187/807/187 214/808/214 188/809/188
f 187/810/187 195/811/195 129/812/129
f 187/813/187 129/814/129 178/815/178
f 187/810/187 189/816/189 195/811/195
f 25/817/25 242/818/242 243/819/243
f 25/820/25 244/821/244 242/822/242
f 25/817/25 243/819/243 26/823/26
f 25/824/25 28/825/28 244/826/244
f 245/827/245 246/828/246 247/829/247
f 245/827/245 248/830/248 249/831/249
f 245/827/245 249/831/249 72/832/72
f 245/827/245 247/829/247 248/830/248
f 245/833/245 72/156/72 250/834/250
f 245/835/245 250/836/250 246/837/246
f 76/838/76 78/839/78 189/840/189
f 118/841/118 119/842/119 192/843/192
f 9/844/9 84/845/84 30/846/30
f 9/847/9 14/848/14 84/849/84
f 132/850/132 131/851/131 39/852/39
f 132/853/132 39/854/39 197/855/197
f 132/856/132 146/857/146 131/858/131
f 132/859/132 129/553/129 101/555/101
f 43/597/43 134/324/134 46/544/46
f 174/860/174 235/861/235 251/862/251
f 174/863/174 251/864/251 7/865/7
f 174/461/174 173/460/173 235/866/235
f 221/867/221 252/868/252 175/869/175
f 221/704/221 175/870/175 193/705/193
f 221/871/221 124/872/124 253/873/253
f 221/874/221 253/875/253 252/876/252
f 128/877/128 178/815/178 129/814/129
f 45/565/45 231/878/231 233/879/233
f 45/565/45 233/879/233 47/880/47
f 68/881/68 254/882/254 69/883/69
f 68/884/68 255/885/255 254/886/254
f 68/884/68 243/887/243 255/885/255
f 68/888/68 26/889/26 243/890/243
f 104/891/104 256/892/256 140/893/140
f 104/894/104 257/895/257 256/896/256
f 104/897/104 140/639/140 105/638/105
f 104/898/104 106/899/106 257/900/257
f 35/901/35 246/902/246 250/903/250
f 35/82/35 258/904/258 36/83/36
f 35/905/35 185/906/185 246/907/246
f 35/908/35 250/909/250 258/910/258
f 20/911/20 21/792/21 240/791/240
f 20/912/20 240/913/240 259/914/259
f 20/915/20 259/916/259 121/917/121
f 215/918/215 216/919/216 33/920/33
f 215/918/215 33/920/33 199/921/199
f 113/922/113 144/923/144 90/924/90
f 113/269/113 114/268/114 237/925/237
f 113/926/113 237/927/237 144/345/144
f 119/928/119 218/929/218 192/930/192
f 119/931/119 120/932/120 241/933/241
f 119/928/119 241/934/241 218/929/218
f 78/935/78 75/936/75 171/937/171
f 78/938/78 171/939/171 194/940/194
f 78/558/78 196/557/196 17/941/17
f 10/23/10 216/919/216 11/24/11
f 10/23/10 33/920/33 216/919/216
f 209/942/209 233/943/233 230/944/230
f 209/945/209 260/946/260 210/947/210
f 209/948/209 230/949/230 260/950/260
f 246/951/246 261/952/261 247/953/247
f 246/954/246 152/955/152 261/956/261
f 246/957/246 185/958/185 152/959/152
f 227/960/227 248/961/248 262/962/262
f 227/960/227 249/963/249 248/961/248
f 227/964/227 262/965/262 228/966/228
f 227/967/227 232/968/232 123/969/123
f 227/970/227 123/971/123 249/972/249
f 141/973/141 140/974/140 234/975/234
f 144/976/144 91/977/91 90/978/90
f 144/345/144 237/927/237 145/346/145
f 263/979/263 231/980/231 117/981/117
f 263/982/263 232/983/232 231/984/231
f 263/979/263 117/981/117 264/985/264
f 263/986/263 264/987/264 24/988/24
f 263/989/263 123/969/123 232/968/232
f 263/990/263 24/53/24 123/297/123
f 183/991/183 182/992/182 196/993/196
f 183/994/183 196/995/196 197/996/197
f 265/997/265 112/260/112 111/259/111
f 265/998/265 192/999/192 220/691/220
f 265/998/265 220/691/220 157/690/157
f 265/1000/265 111/1001/111 192/1002/192
f 265/1003/265 157/1004/157 112/1005/112
f 229/736/229 228/735/228 266/1006/266
f 229/1007/229 267/1008/267 230/1009/230
f 229/1010/229 268/1011/268 267/1012/267
f 229/1013/229 266/1014/266 268/1015/268
f 36/1016/36 258/1017/258 71/1018/71
f 36/1019/36 71/1020/71 37/1021/37
f 167/594/167 136/1022/136 135/595/135
f 256/1023/256 5/1024/5 251/1025/251
f 256/1026/256 257/1027/257 5/1028/5
f 256/1029/256 234/1030/234 140/1031/140
f 256/1032/256 251/1033/251 234/1034/234
f 62/1035/62 32/1036/32 31/1037/31
f 62/1038/62 31/483/31 63/482/63
f 62/1039/62 200/1040/200 32/1041/32
f 62/146/62 65/145/65 200/1042/200
f 202/1043/202 131/1044/131 146/1045/146
f 202/1046/202 146/1047/146 155/1048/155
f 202/1049/202 204/1050/204 131/1051/131
f 77/1052/77 149/1053/149 79/1054/79
f 77/373/77 80/1055/80 152/374/152
f 82/631/82 12/630/12 11/1056/11
f 82/179/82 180/1057/180 83/180/83
f 82/1058/82 11/1059/11 180/1060/180
f 4/1061/4 6/1062/6 169/1063/169
f 269/1064/269 248/1065/248 247/1066/247
f 269/1064/269 262/1067/262 248/1065/248
f 269/1068/269 270/1069/270 271/1070/271
f 269/1068/269 271/1070/271 262/1071/262
f 269/1072/269 247/1073/247 272/1074/272
f 269/1072/269 272/1074/272 270/1075/270
f 110/1076/110 61/133/61 236/759/236
f 110/1076/110 236/759/236 60/1077/60
f 5/12/5 7/11/7 251/1078/251
f 5/1028/5 257/1027/257 6/1079/6
f 70/295/70 249/1080/249 123/296/123
f 70/1081/70 72/1082/72 249/1083/249
f 170/693/170 171/1084/171 75/694/75
f 199/1085/199 32/1086/32 200/1087/200
f 199/1088/199 33/77/33 32/76/32
f 228/966/228 262/965/262 266/1089/266
f 231/797/231 120/282/120 117/272/117
f 112/1090/112 157/392/157 156/391/156
f 252/1091/252 64/1092/64 175/1093/175
f 252/1094/252 125/1095/125 47/1096/47
f 252/1097/252 200/1098/200 65/1099/65
f 252/1094/252 47/1096/47 200/1100/200
f 252/1101/252 65/143/65 64/142/64
f 252/1102/252 253/1103/253 125/1104/125
f 190/1105/190 130/1106/130 153/1107/153
f 190/523/190 188/522/188 212/647/212
f 122/1108/122 121/1109/121 259/1110/259
f 122/1111/122 259/1112/259 272/1113/272
f 122/291/122 80/174/80 17/173/17
f 122/1114/122 272/1115/272 80/1116/80
f 273/1117/273 223/1118/223 38/1119/38
f 273/1120/273 274/1121/274 208/1122/208
f 273/1120/273 208/1122/208 224/1123/224
f 273/1124/273 38/1125/38 274/1126/274
f 273/1127/273 224/1128/224 223/1129/223
f 95/221/95 219/1130/219 98/222/98
f 160/1131/160 225/1132/225 162/1133/162
f 109/247/109 235/751/235 173/1134/173
f 218/1135/218 220/691/220 192/999/192
f 218/929/218 241/934/241 219/1136/219
f 194/1137/194 169/1138/169 275/1139/275
f 194/1140/194 171/1141/171 169/1142/169
f 194/1143/194 275/1144/275 103/1145/103
f 216/1146/216 180/1147/180 11/1148/11
f 216/1149/216 181/1150/181 180/1151/180
f 267/1152/267 268/1153/268 260/1154/260
f 267/1155/267 260/1156/260 230/1157/230
f 258/1158/258 250/1159/250 71/1160/71
f 210/1161/210 268/1162/268 238/1163/238
f 210/1164/210 260/1165/260 268/1166/268
f 210/615/210 238/1167/238 92/616/92
f 178/805/178 86/1168/86 214/806/214
f 163/1169/163 184/1170/184 203/1171/203
f 163/1172/163 151/1173/151 184/1174/184
f 261/1175/261 152/1176/152 272/1177/272
f 261/1178/261 272/1179/272 247/1180/247
f 27/1181/27 264/1182/264 28/1183/28
f 27/1184/27 24/1185/24 264/1186/264
f 262/1187/262 271/1188/271 266/1189/266
f 131/1190/131 204/1191/204 203/1192/203
f 131/498/131 203/1193/203 184/499/184
f 37/1194/37 71/1195/71 69/1196/69
f 37/1197/37 69/1198/69 274/1199/274
f 37/1200/37 274/1201/274 38/1202/38
f 219/1203/219 48/1204/48 98/1205/98
f 219/1203/219 241/1206/241 48/1204/48
f 214/1207/214 86/1208/86 85/1209/85
f 242/1210/242 54/120/54 55/122/55
f 242/1210/242 55/122/55 243/1211/243
f 242/1212/242 244/1213/244 236/1214/236
f 242/1215/242 236/1216/236 54/1217/54
f 254/1218/254 255/1219/255 53/1220/53
f 254/1221/254 53/1222/53 208/1223/208
f 254/1224/254 274/1225/274 69/1226/69
f 254/1227/254 208/1228/208 274/1229/274
f 84/1230/84 14/1231/14 85/1232/85
f 182/1233/182 17/1234/17 196/1235/196
f 257/1236/257 106/1237/106 275/1238/275
f 257/1239/257 275/1240/275 6/1241/6
f 268/1015/268 266/1014/266 238/794/238
f 39/1242/39 223/1243/223 197/1244/197
f 39/1245/39 38/1246/38 223/1247/223
f 55/123/55 255/1248/255 243/1249/243
f 55/123/55 53/118/53 255/1248/255
f 169/1063/169 6/1062/6 275/1250/275
f 152/1251/152 80/1116/80 272/1115/272
f 270/1069/270 240/789/240 271/1070/271
f 270/1252/270 259/914/259 240/913/240
f 270/1253/270 272/1254/272 259/1255/259
f 244/1256/244 264/1257/264 117/1258/117
f 244/1259/244 28/1260/28 264/1261/264
f 71/155/71 250/834/250 72/156/72
f 239/788/239 271/1070/271 240/789/240
f 239/795/239 238/794/238 266/1014/266
f 239/1262/239 266/1189/266 271/1188/271
f 234/1263/234 251/862/251 235/861/235
f 175/458/175 3/454/3 193/1264/193
f 98/1265/98 48/106/48 46/105/46
f 124/1266/124 125/1267/125 253/1268/253
f 225/1269/225 224/1123/224 208/1122/208
f 103/1270/103 275/1271/275 106/1272/106
f 231/878/231 45/565/45 198/564/198
f 231/1273/231 198/1274/198 44/1275/44
f 152/657/152 150/383/150 153/382/153
f 152/374/152 153/1276/153 147/372/147
