# www.meshy.ai
mtllib Meshy_AI_Golden_Apex_0918134417_texture.mtl
o Meshy_AI_Golden_Apex_0918134417_texture
v -0.421875 -0.496094 -0.008728
v -0.375000 -0.470703 -0.009460
v -0.373047 -0.472656 -0.000062
v -0.423828 -0.500000 -0.001678
v -0.404297 -0.445312 -0.009644
v -0.408203 -0.484375 -0.013550
v -0.410156 -0.447266 -0.000031
v 0.000347 -0.271484 0.006439
v 0.096680 -0.304688 0.037109
v -0.000362 -0.227539 0.065918
v -0.094727 -0.306641 0.038086
v -0.092773 -0.328125 0.003601
v 0.000648 -0.285156 -0.003677
v 0.095215 -0.330078 0.003281
v 0.375000 -0.447266 -0.015137
v 0.404297 -0.476562 -0.009094
v 0.390625 -0.449219 -0.009766
v 0.237305 -0.384766 -0.019165
v 0.373047 -0.460938 -0.008362
v 0.242188 -0.363281 -0.044922
v 0.339844 -0.357422 -0.013245
v 0.249023 -0.353516 -0.046875
v -0.188477 0.018066 0.009460
v -0.081055 -0.079102 0.061768
v -0.213867 -0.222656 0.035889
v -0.267578 -0.203125 0.014343
v -0.281250 -0.198242 0.008057
v -0.198242 0.020020 0.000017
v -0.094238 0.237305 0.009399
v -0.292969 -0.197266 -0.000565
v -0.068848 0.183594 0.025269
v -0.094727 -0.302734 0.029053
v -0.096191 -0.326172 -0.001083
v -0.234375 -0.380859 0.017456
v -0.246094 -0.365234 0.045654
v 0.000717 -0.261719 0.009033
v 0.000086 -0.220703 0.063477
v -0.096680 -0.271484 0.084961
v 0.096191 0.236328 -0.013306
v 0.200195 0.018433 -0.000427
v 0.190430 0.016602 -0.014465
v 0.070312 0.185547 -0.032227
v 0.022339 0.357422 -0.020874
v 0.033936 0.390625 -0.011658
v 0.105469 0.246094 0.000060
v 0.238281 -0.386719 0.023682
v 0.373047 -0.458984 0.018677
v 0.373047 -0.443359 0.020142
v 0.238281 -0.402344 0.006805
v 0.246094 -0.369141 0.054443
v -0.279297 -0.199219 -0.010132
v -0.369141 -0.388672 -0.006409
v -0.330078 -0.335938 -0.012817
v -0.232422 -0.213867 -0.028076
v -0.189453 0.020996 -0.009338
v -0.371094 -0.441406 0.020630
v -0.236328 -0.384766 0.027344
v -0.243164 -0.367188 0.056885
v -0.363281 -0.388672 0.016357
v -0.392578 -0.447266 0.014404
v -0.373047 -0.458984 0.018311
v -0.255859 -0.333984 0.047607
v 0.068848 0.184570 -0.025024
v -0.000538 -0.042236 -0.086914
v 0.087402 -0.076660 -0.059570
v -0.000496 0.255859 -0.036133
v 0.189453 0.019165 -0.009399
v 0.094238 0.237305 -0.008362
v 0.022217 0.355469 -0.014771
v 0.419922 -0.496094 0.007263
v 0.375000 -0.472656 -0.001060
v 0.423828 -0.500000 -0.000340
v 0.414062 -0.474609 0.008667
v 0.408203 -0.478516 0.012756
v 0.373047 -0.468750 0.009094
v 0.412109 -0.449219 -0.000576
v -0.000805 -0.203125 -0.122070
v -0.097168 -0.275391 -0.069824
v 0.000656 -0.219727 -0.061768
v 0.087891 -0.215820 -0.084961
v -0.001648 -0.166016 -0.113281
v 0.097656 -0.259766 -0.087402
v 0.099121 -0.273438 -0.081055
v -0.091309 -0.228516 -0.084473
v -0.095215 -0.263672 -0.086914
v -0.289062 -0.435547 0.000397
v -0.371094 -0.468750 -0.000744
v -0.349609 -0.455078 0.008057
v -0.232422 -0.398438 -0.000740
v -0.369141 -0.460938 -0.008118
v 0.263672 -0.207031 0.023315
v 0.363281 -0.394531 0.016602
v 0.285156 -0.201172 0.011902
v 0.208008 -0.229492 0.046143
v 0.240234 -0.320312 0.049561
v 0.153320 -0.016724 0.029785
v 0.088867 -0.235352 -0.096680
v -0.001381 -0.170898 -0.123047
v 0.092285 -0.074219 -0.069336
v 0.210938 -0.241211 -0.050537
v 0.243164 -0.316406 -0.052002
v -0.000456 -0.211914 -0.130859
v 0.099609 -0.275391 -0.098145
v -0.106445 0.246094 0.000118
v -0.097656 0.237305 0.012573
v -0.035400 0.388672 0.010559
v -0.097656 0.239258 -0.013000
v -0.202148 0.019165 -0.000334
v -0.040771 0.396484 0.000565
v -0.035645 0.390625 -0.011475
v -0.373047 -0.386719 -0.000843
v -0.371094 -0.386719 0.005493
v -0.400391 -0.449219 -0.004730
v -0.402344 -0.451172 -0.000410
v -0.001007 0.451172 0.016479
v 0.033936 0.388672 0.010864
v -0.000759 0.490234 0.010193
v -0.022827 0.357422 0.020264
v -0.000854 0.259766 0.042969
v 0.021729 0.357422 0.019897
v 0.414062 -0.490234 -0.005249
v 0.400391 -0.451172 -0.005463
v -0.000278 -0.164062 0.111816
v -0.085938 -0.229492 0.085449
v 0.000450 -0.039307 0.085449
v -0.236328 -0.400391 0.006256
v 0.378906 -0.376953 -0.000717
v 0.402344 -0.447266 0.009705
v 0.376953 -0.388672 -0.010071
v 0.296875 -0.199219 -0.000341
v 0.375000 -0.388672 0.009949
v 0.406250 -0.447266 -0.009277
v 0.238281 -0.382812 0.017212
v 0.371094 -0.462891 0.006714
v 0.236328 -0.398438 0.000984
v 0.098145 -0.302734 0.030151
v 0.249023 -0.365234 0.044678
v 0.098145 -0.324219 0.001175
v 0.376953 -0.453125 0.013245
v -0.071777 0.185547 -0.031250
v -0.023071 0.359375 -0.021118
v -0.005463 0.261719 -0.040771
v -0.000919 -0.041504 -0.097656
v -0.089844 -0.076660 -0.071289
v -0.191406 0.018066 -0.013977
v -0.388672 -0.476562 0.006195
v -0.404297 -0.478516 0.006165
v -0.386719 -0.449219 0.010498
v -0.414062 -0.490234 0.002029
v -0.373047 -0.451172 0.013733
v -0.089844 -0.236328 -0.096680
v 0.394531 -0.449219 0.015320
v -0.000443 0.453125 -0.017212
v -0.246094 -0.363281 -0.046631
v -0.371094 -0.453125 -0.015747
v -0.235352 -0.378906 -0.018433
v -0.376953 -0.449219 -0.014038
v -0.095215 -0.300781 -0.030273
v 0.067871 0.183594 0.024780
v 0.188477 0.016724 0.009399
v 0.081055 -0.078613 0.061279
v 0.021240 0.355469 0.014771
v 0.092773 0.235352 0.008240
v -0.001068 0.255859 0.037598
v 0.235352 -0.408203 -0.004150
v 0.373047 -0.466797 -0.011047
v 0.097168 -0.335938 -0.005066
v 0.238281 -0.392578 -0.021973
v -0.192383 -0.066406 0.026123
v -0.285156 -0.199219 0.013733
v -0.373047 -0.384766 0.009583
v -0.219727 -0.228516 0.042236
v -0.400391 -0.451172 0.004089
v -0.392578 -0.451172 0.008606
v 0.004242 0.259766 -0.041992
v -0.090332 -0.324219 -0.016846
v -0.093750 -0.337891 -0.002716
v -0.237305 -0.390625 -0.020264
v -0.094238 -0.304688 -0.041260
v 0.000452 -0.232422 -0.064453
v 0.281250 -0.199219 0.008667
v 0.369141 -0.390625 0.006073
v 0.326172 -0.328125 0.013611
v 0.291016 -0.200195 -0.000523
v 0.375000 -0.384766 0.000148
v 0.233398 -0.398438 -0.002274
v 0.098145 -0.300781 -0.032715
v 0.100098 -0.326172 -0.005310
v -0.190430 0.016357 0.013184
v -0.069824 0.182617 0.030029
v -0.235352 -0.406250 -0.003189
v -0.373047 -0.464844 -0.010620
v 0.087891 -0.225586 0.082520
v 0.205078 -0.217773 0.034912
v 0.099609 -0.271484 0.083984
v 0.000546 -0.202148 0.124512
v 0.394531 -0.449219 -0.014954
v 0.408203 -0.480469 -0.015747
v 0.373047 -0.441406 -0.021729
v 0.365234 -0.392578 -0.018311
v -0.023193 0.355469 0.014832
v -0.001228 0.449219 0.012634
v -0.031738 0.386719 0.006836
v -0.086426 -0.237305 0.094727
v -0.000576 -0.171875 0.122070
v -0.083008 -0.088379 0.070312
v -0.097168 -0.279297 0.097656
v -0.000162 -0.210938 0.128906
v 0.031982 0.392578 0.000278
v 0.029907 0.384766 0.006439
v -0.000900 0.484375 0.006531
v 0.031250 0.384766 -0.006531
v 0.099121 0.243164 0.000050
v -0.000511 0.494141 0.000215
v 0.373047 -0.466797 -0.001617
v -0.285156 -0.199219 -0.014465
v -0.294922 -0.198242 -0.000334
v -0.328125 -0.333984 -0.019775
v -0.373047 -0.388672 -0.011108
v -0.235352 -0.211914 -0.036377
v 0.263672 -0.211914 -0.026489
v 0.392578 -0.449219 0.009338
v 0.373047 -0.443359 0.014526
v 0.402344 -0.451172 -0.000051
v 0.402344 -0.451172 0.004272
v -0.000854 0.490234 -0.010681
v 0.039551 0.398438 -0.000202
v -0.000385 0.500000 0.000177
v 0.000534 -0.275391 -0.002640
v 0.000546 -0.253906 -0.024170
v 0.417969 -0.496094 -0.009094
v 0.373047 -0.457031 -0.021118
v -0.357422 -0.386719 0.011108
v -0.392578 -0.449219 -0.009338
v 0.416016 -0.492188 -0.000759
v 0.414062 -0.490234 0.004486
v 0.085449 -0.238281 0.094238
v 0.082520 -0.087402 0.070312
v -0.000534 -0.037598 0.095703
v -0.373047 -0.466797 0.008911
v -0.421875 -0.496094 0.006683
v 0.101074 -0.277344 0.094238
v -0.100098 0.245117 0.000125
v -0.095215 0.238281 -0.008179
v -0.404297 -0.447266 0.008240
v -0.406250 -0.480469 0.012756
v -0.000908 0.451172 -0.012329
v -0.023438 0.355469 -0.015015
v -0.001549 0.488281 -0.006592
v -0.031738 0.386719 -0.006317
v 0.404297 -0.476562 0.008179
v -0.099121 -0.277344 -0.098633
v -0.242188 -0.332031 -0.055420
v -0.402344 -0.476562 -0.009460
v 0.197266 0.018921 0.000671
v 0.287109 -0.201172 -0.012390
v 0.210938 -0.238281 -0.037598
v -0.069336 0.185547 -0.024658
v 0.371094 -0.390625 -0.005859
v 0.068848 0.183594 0.030273
v 0.096680 0.235352 0.012878
v 0.190430 0.016113 0.013611
v 0.279297 -0.202148 -0.010559
v -0.417969 -0.490234 -0.000839
v -0.416016 -0.492188 -0.005707
v -0.034668 0.394531 0.000496
v -0.242188 -0.369141 -0.057617
v -0.371094 -0.439453 -0.021851
v -0.084473 -0.079102 -0.060791
v -0.373047 -0.457031 -0.021484
v -0.394531 -0.449219 -0.015381
v 0.097168 -0.306641 -0.039795
v 0.245117 -0.369141 -0.058350
v -0.375000 -0.371094 -0.000629
vn -0.3518 -0.4385 -0.8270
vn 0.3827 -0.7443 -0.5473
vn 0.4511 -0.8848 0.1166
vn -0.5647 -0.8253 0.0000
vn -0.6475 0.2779 -0.7096
vn -0.1154 -0.1906 -0.9749
vn -0.9195 0.3598 0.1584
vn 0.0053 -0.7844 0.6202
vn -0.4178 -0.7631 0.4930
vn 0.0170 -0.8958 0.4442
vn 0.4295 -0.7742 0.4649
vn 0.3838 -0.7169 0.5821
vn -0.0597 -0.8886 -0.4549
vn -0.3849 -0.7163 0.5820
vn -0.1000 0.1991 0.9749
vn -0.1401 0.1079 0.9842
vn -0.3852 -0.1771 0.9057
vn 0.3272 0.6732 0.6631
vn 0.2909 0.6032 0.7427
vn 0.2933 0.6898 0.6619
vn -0.3385 -0.1604 0.9272
vn -0.3157 -0.1124 0.9422
vn 0.3562 -0.1527 -0.9219
vn 0.3435 -0.1505 -0.9270
vn 0.3343 -0.1421 -0.9317
vn 0.3332 -0.1429 -0.9320
vn 0.4918 -0.2129 -0.8442
vn 0.9124 -0.3972 -0.0986
vn 0.4141 -0.1822 -0.8918
vn 0.9143 -0.3912 0.1044
vn 0.3252 -0.1438 -0.9347
vn -0.4107 0.7558 -0.5100
vn -0.4628 0.8841 0.0654
vn -0.3491 0.6922 -0.6317
vn 0.1386 0.1759 -0.9746
vn -0.0004 0.7801 -0.6257
vn -0.0029 0.8805 -0.4740
vn -0.2829 0.6896 -0.6666
vn 0.4842 0.2096 -0.8494
vn 0.9138 0.3941 -0.0984
vn 0.4097 0.1820 -0.8939
vn 0.3437 0.1611 -0.9252
vn 0.3425 0.1453 -0.9282
vn 0.5506 0.2209 -0.8050
vn 0.9216 0.3880 0.0063
vn -0.3408 -0.7063 0.6205
vn -0.2130 -0.4991 0.8400
vn 0.0452 -0.2855 0.9573
vn -0.3697 -0.7175 0.5903
vn -0.0578 -0.4622 0.8849
vn 0.3762 -0.1597 0.9127
vn 0.4767 -0.2124 0.8530
vn 0.3302 -0.1452 0.9327
vn 0.3369 -0.1444 0.9304
vn 0.3571 -0.1544 0.9212
vn -0.1532 -0.1612 0.9750
vn 0.3446 -0.7313 0.5886
vn 0.1410 -0.5858 0.7981
vn -0.3513 0.1555 0.9233
vn -0.3616 0.1238 0.9241
vn 0.2312 -0.5555 0.7988
vn -0.3463 0.1520 0.9257
vn -0.3225 -0.1479 0.9349
vn -0.0011 -0.1714 0.9852
vn -0.3425 -0.1492 0.9276
vn 0.0002 -0.1549 0.9879
vn -0.3712 -0.1621 0.9143
vn -0.4353 -0.1941 0.8791
vn -0.3284 -0.1359 0.9347
vn 0.0791 -0.6309 0.7718
vn -0.4508 -0.8907 -0.0582
vn 0.5335 -0.8434 -0.0637
vn 0.6983 0.2173 0.6820
vn 0.1116 -0.2049 0.9724
vn -0.3741 -0.7573 0.5352
vn 0.9416 0.3269 0.0812
vn -0.0368 0.5152 0.8563
vn -0.4275 0.7927 0.4346
vn 0.0275 0.8764 0.4809
vn -0.3838 -0.1650 0.9086
vn 0.0114 -0.1969 0.9804
vn -0.3383 -0.1011 0.9356
vn 0.3796 0.7625 0.5239
vn 0.3665 -0.1524 0.9178
vn 0.1074 0.2843 0.9527
vn -0.4414 0.8705 0.2176
vn -0.4215 0.9003 0.1086
vn -0.2830 0.5480 -0.7871
vn -0.4751 0.8718 0.1191
vn -0.3026 0.5754 0.7598
vn 0.3484 0.1611 0.9234
vn 0.3516 0.1524 0.9237
vn 0.4386 0.1971 0.8768
vn 0.3461 0.1571 0.9249
vn 0.3386 0.1455 0.9296
vn 0.3449 0.1522 0.9262
vn 0.3628 0.1511 -0.9195
vn 0.0053 0.1753 -0.9845
vn 0.3553 0.1585 -0.9212
vn 0.3506 0.1523 -0.9241
vn 0.3434 0.1439 -0.9281
vn 0.0040 -0.5113 -0.8594
vn -0.1637 -0.5746 -0.8019
vn -0.9197 0.3913 0.0337
vn -0.4481 0.1917 0.8732
vn -0.5335 0.2148 0.8180
vn -0.4776 0.2055 -0.8542
vn -0.9194 0.3903 0.0482
vn -0.9284 0.3700 0.0334
vn -0.5732 0.2321 -0.7859
vn 0.8791 -0.3901 -0.2740
vn 0.5840 -0.2645 -0.7675
vn 0.6795 -0.2967 0.6710
vn 0.8957 -0.3813 -0.2288
vn 0.0004 0.1406 0.9901
vn 0.5296 0.2140 0.8208
vn 0.0145 0.3542 0.9351
vn -0.3423 0.1385 0.9293
vn -0.0011 0.1641 0.9865
vn 0.3379 0.1395 0.9308
vn 0.0425 0.5201 0.8531
vn -0.6862 -0.2854 0.6691
vn -0.0039 -0.2020 -0.9794
vn 0.3671 -0.1486 -0.9182
vn -0.0028 -0.1674 -0.9859
vn 0.3665 -0.7280 0.5794
vn 0.9021 0.4183 0.1064
vn 0.6563 0.2880 0.6974
vn 0.6291 0.2915 -0.7206
vn 0.8948 0.4044 0.1892
vn 0.5938 0.2765 0.7556
vn 0.6715 0.2699 -0.6901
vn 0.3460 0.6912 -0.6344
vn 0.3291 0.6477 -0.6871
vn 0.3719 0.7145 -0.5925
vn 0.4055 0.7530 -0.5183
vn -0.1276 0.1664 -0.9778
vn 0.3937 0.7350 -0.5521
vn 0.2321 0.5707 -0.7877
vn -0.3413 0.1610 -0.9261
vn -0.3314 0.1402 -0.9330
vn -0.2949 0.1572 -0.9425
vn 0.0003 0.1791 -0.9838
vn -0.3594 0.1598 -0.9194
vn -0.4163 0.1827 -0.8907
vn -0.1596 0.4938 -0.8548
vn 0.2444 0.0446 -0.9687
vn 0.2595 -0.0601 -0.9639
vn 0.3310 0.4503 -0.8292
vn 0.0109 0.2897 -0.9570
vn -0.3623 0.1494 -0.9200
vn 0.3342 0.1228 0.9345
vn -0.0008 0.1403 -0.9901
vn 0.1605 0.1365 0.9776
vn -0.2983 0.6371 0.7107
vn -0.3522 0.6902 0.6321
vn 0.3245 -0.1391 0.9356
vn -0.3844 0.7320 0.5625
vn -0.3302 -0.1469 -0.9324
vn -0.3477 -0.1480 -0.9259
vn -0.3498 -0.1464 -0.9253
vn -0.3493 -0.1389 -0.9266
vn -0.4126 -0.1837 -0.8922
vn -0.0031 -0.1534 -0.9882
vn -0.4281 -0.8710 -0.2412
vn -0.3484 -0.7155 -0.6056
vn -0.4203 -0.8109 -0.4072
vn -0.3566 -0.7199 -0.5955
vn -0.3415 0.1523 0.9275
vn -0.5203 0.2336 0.8214
vn -0.6267 0.2851 0.7252
vn -0.3463 0.1572 0.9249
vn 0.6463 -0.2402 -0.7243
vn 0.4378 -0.1648 -0.8838
vn 0.2780 0.1588 -0.9474
vn 0.3665 -0.7025 -0.6101
vn 0.4383 -0.8727 -0.2152
vn 0.3610 -0.7378 -0.5704
vn 0.4079 -0.7716 -0.4882
vn 0.0285 -0.8641 -0.5026
vn -0.5571 -0.2430 -0.7941
vn -0.4694 -0.2115 -0.8573
vn -0.3112 -0.1400 -0.9400
vn -0.9064 -0.3941 0.1522
vn -0.8373 -0.3721 -0.4007
vn 0.3962 0.7802 0.4842
vn 0.3982 0.7321 0.5527
vn 0.3850 0.7244 0.5719
vn -0.4572 0.1992 0.8668
vn -0.3470 0.1520 0.9255
vn 0.4222 -0.8657 -0.2689
vn 0.3353 -0.6626 -0.6697
vn -0.3950 -0.1578 -0.9050
vn -0.3274 -0.1388 -0.9346
vn -0.0044 0.3750 -0.9270
vn -0.0213 0.4514 -0.8920
vn 0.4050 0.1765 -0.8971
vn 0.1666 -0.1457 -0.9752
vn 0.3205 0.0997 -0.9420
vn 0.3839 0.1668 -0.9082
vn 0.3376 -0.1360 -0.9314
vn -0.0054 -0.1362 -0.9907
vn 0.5423 -0.2122 -0.8129
vn -0.3693 0.1602 0.9154
vn 0.0021 0.1789 0.9839
vn -0.3630 0.1572 0.9184
vn 0.1932 -0.5921 0.7824
vn 0.0025 -0.5296 0.8483
vn -0.9219 -0.3527 -0.1605
vn -0.5183 -0.2029 -0.8308
vn -0.1939 -0.2806 -0.9400
vn -0.5815 -0.2260 0.7815
vn -0.9086 -0.4000 -0.1202
vn 0.3598 -0.9317 0.0493
vn 0.4645 0.8815 0.0846
vn -0.4702 0.2037 -0.8588
vn -0.9121 0.4029 -0.0752
vn -0.3759 0.1641 -0.9120
vn -0.5435 0.2507 -0.8011
vn -0.3636 0.1578 -0.9181
vn 0.3680 0.1638 -0.9153
vn -0.3502 -0.1554 -0.9237
vn -0.3205 -0.1311 -0.9381
vn -0.9189 -0.3930 0.0354
vn -0.7271 -0.3004 -0.6173
vn -0.0180 0.4016 -0.9157
vn 0.9287 0.3702 0.0235
vn -0.0243 0.9997 0.0001
vn 0.0580 0.9779 0.2008
vn 0.0066 0.7366 0.6763
vn 0.2863 -0.4900 -0.8233
vn -0.2404 -0.6332 -0.7357
vn 0.3251 -0.1378 -0.9356
vn 0.3638 -0.1692 0.9160
vn -0.9483 0.2867 0.1359
vn 0.0746 0.6326 -0.7709
vn 0.3717 0.1537 0.9155
vn 0.3721 0.1578 0.9147
vn -0.0019 0.1749 0.9846
vn 0.3778 -0.7425 0.5531
vn -0.2724 -0.4353 0.8581
vn -0.1950 -0.6068 0.7706
vn 0.9149 -0.3997 -0.0560
vn 0.4246 -0.1885 0.8855
vn -0.6010 0.2397 0.7625
vn -0.1404 -0.1754 0.9744
vn -0.0014 -0.1303 0.9915
vn 0.3307 -0.1345 0.9341
vn -0.0054 -0.2802 0.9599
vn 0.5680 -0.2186 0.7935
vn -0.1304 0.1324 -0.9826
vn 0.2036 -0.6166 -0.7605
vn -0.3522 0.1422 -0.9251
vn 0.1529 0.1129 0.9818
vn -0.9114 -0.3970 -0.1079
vn 0.5737 0.2573 -0.7776
vn -0.3464 -0.1563 0.9250
vn 0.3234 -0.1467 0.9348
vn -0.5381 -0.2423 0.8073
vn 0.3469 0.1502 0.9258
vn 0.4571 0.1974 0.8672
vn 0.4308 0.1841 0.8835
vn -0.3510 -0.1452 0.9251
vn 0.8757 0.4692 -0.1138
vn -0.0108 0.5155 0.8568
vn 0.9285 -0.3713 0.0000
vn 0.1857 -0.6067 -0.7730
vn -0.3468 0.1273 -0.9293
vn 0.3462 -0.1523 0.9257
vn 0.2343 -0.6342 -0.7368
vn -0.3447 0.1347 -0.9290
vn -0.3990 -0.7475 -0.5311
vn -0.1097 -0.5097 -0.8533
vn -0.8990 0.4189 0.1273
vt 0.847286 0.061002
vt 0.919404 0.048286
vt 0.922625 0.061350
vt 0.588243 0.740925
vt 0.646762 0.660382
vt 0.597498 0.752795
vt 0.681861 0.653627
vt 0.660098 0.756402
vt 0.656096 0.679392
vt 0.682207 0.753241
vt 0.609693 0.974321
vt 0.641487 0.962749
vt 0.706433 0.971958
vt 0.213803 0.249039
vt 0.207207 0.234892
vt 0.309509 0.242556
vt 0.583740 0.356811
vt 0.592156 0.260608
vt 0.650774 0.360135
vt 0.558888 0.726966
vt 0.498947 0.726966
vt 0.554452 0.641012
vt 0.319871 0.780021
vt 0.211103 0.780021
vt 0.216135 0.738662
vt 0.116225 0.724472
vt 0.116225 0.612795
vt 0.132054 0.717191
vt 0.725039 0.683329
vt 0.711048 0.676805
vt 0.721495 0.582158
vt 0.333718 0.820434
vt 0.226754 0.820434
vt 0.239267 0.781828
vt 0.119514 0.854116
vt 0.220702 0.886994
vt 0.143033 0.889247
vt 0.048354 0.391947
vt 0.057470 0.287750
vt 0.058332 0.395632
vt 0.445501 0.636544
vt 0.554499 0.607149
vt 0.552129 0.630956
vt 0.087123 0.646116
vt 0.103088 0.638671
vt 0.084571 0.748251
vt 0.552153 0.598952
vt 0.458052 0.581277
vt 0.433141 0.616855
vt 0.339883 0.584632
vt 0.321046 0.637528
vt 0.376840 0.598460
vt 0.434117 0.635877
vt 0.902860 0.250442
vt 0.966363 0.250442
vt 0.961887 0.331663
vt 0.326222 0.144737
vt 0.230676 0.150499
vt 0.230339 0.144063
vt 0.044062 0.386167
vt 0.038043 0.387228
vt 0.041523 0.279930
vt 0.231868 0.175353
vt 0.228842 0.138315
vt 0.769483 0.998474
vt 0.674253 0.994824
vt 0.768535 0.993097
vt 0.796203 0.117918
vt 0.758823 0.053174
vt 0.846880 0.093610
vt 0.473521 0.214467
vt 0.576626 0.214467
vt 0.559636 0.234894
vt 0.323060 0.722589
vt 0.323982 0.696188
vt 0.426694 0.683016
vt 0.467232 0.940153
vt 0.564880 0.940153
vt 0.565216 0.961027
vt 0.196660 0.537424
vt 0.301330 0.565470
vt 0.181954 0.573687
vt 0.118953 0.895258
vt 0.063853 0.805434
vt 0.118953 0.809511
vt 0.621905 0.138620
vt 0.529029 0.163506
vt 0.614741 0.101880
vt 0.067018 0.895647
vt 0.333408 0.772516
vt 0.441911 0.772516
vt 0.440431 0.780090
vt 0.576669 0.213821
vt 0.473479 0.213821
vt 0.560889 0.193259
vt 0.654373 0.161439
vt 0.569235 0.176451
vt 0.553100 0.161307
vt 0.122410 0.055652
vt 0.142866 0.076108
vt 0.056741 0.074869
vt 0.961094 0.434358
vt 0.961094 0.514512
vt 0.952377 0.437112
vt 0.228923 0.853361
vt 0.226803 0.845450
vt 0.333178 0.848759
vt 0.095656 0.248831
vt 0.095656 0.358347
vt 0.085760 0.353030
vt 0.737692 0.394558
vt 0.737692 0.295216
vt 0.761816 0.303800
vt 0.445138 0.847934
vt 0.450577 0.832991
vt 0.550929 0.847611
vt 0.432115 0.164449
vt 0.533223 0.164449
vt 0.431870 0.189534
vt 0.521924 0.881188
vt 0.621712 0.889918
vt 0.518406 0.895607
vt 0.593013 0.361892
vt 0.616427 0.361892
vt 0.606331 0.467016
vt 0.282890 0.764135
vt 0.391643 0.764135
vt 0.358199 0.771264
vt 0.591218 0.805590
vt 0.485314 0.805590
vt 0.592858 0.767665
vt 0.781081 0.483305
vt 0.800688 0.474983
vt 0.825791 0.569265
vt 0.532315 0.759804
vt 0.530803 0.768385
vt 0.423928 0.768711
vt 0.774504 0.485200
vt 0.162432 0.537005
vt 0.209249 0.629079
vt 0.187825 0.641449
vt 0.924965 0.391721
vt 0.930743 0.325681
vt 0.950649 0.404443
vt 0.340301 0.735215
vt 0.347522 0.745529
vt 0.237532 0.745611
vt 0.163281 0.649819
vt 0.216933 0.525930
vt 0.216933 0.394916
vt 0.245702 0.492852
vt 0.962639 0.757504
vt 0.962639 0.713981
vt 0.993605 0.744529
vt 0.901924 0.166730
vt 0.901872 0.259524
vt 0.864654 0.259524
vt 0.490073 0.937021
vt 0.462360 0.919703
vt 0.557798 0.894346
vt 0.695813 0.572121
vt 0.711200 0.484858
vt 0.717166 0.587413
vt 0.915644 0.278354
vt 0.936372 0.299083
vt 0.919817 0.363730
vt 0.837505 0.210208
vt 0.590239 0.190255
vt 0.488915 0.190255
vt 0.540994 0.161270
vt 0.251394 0.432128
vt 0.285721 0.526442
vt 0.233093 0.430535
vt 0.808189 0.017556
vt 0.764574 0.017556
vt 0.768415 0.002109
vt 0.322634 0.724036
vt 0.427612 0.689927
vt 0.426361 0.712363
vt 0.290986 0.346714
vt 0.130003 0.138242
vt 0.227913 0.138242
vt 0.173976 0.149369
vt 0.420801 0.832007
vt 0.383850 0.853341
vt 0.314695 0.834486
vt 0.520017 0.395009
vt 0.520017 0.512070
vt 0.472117 0.423596
vt 0.310523 0.322530
vt 0.227819 0.292428
vt 0.324274 0.290761
vt 0.202766 0.324775
vt 0.413242 0.329062
vt 0.413242 0.452649
vt 0.402884 0.442471
vt 0.427462 0.550222
vt 0.441835 0.581046
vt 0.341155 0.576657
vt 0.397418 0.389429
vt 0.407430 0.503866
vt 0.392471 0.517651
vt 0.322668 0.551013
vt 0.682850 0.603070
vt 0.628851 0.585525
vt 0.662522 0.487884
vt 0.254959 0.022164
vt 0.192436 0.015219
vt 0.210964 0.010376
vt 0.311018 0.834286
vt 0.352010 0.853401
vt 0.263751 0.827145
vt 0.369976 0.825557
vt 0.194943 0.022564
vt 0.055239 0.672955
vt 0.055239 0.564999
vt 0.067672 0.670280
vt 0.822380 0.002999
vt 0.811778 0.018141
vt 0.788239 0.003433
vt 0.181249 0.409994
vt 0.127994 0.376717
vt 0.150227 0.301904
vt 0.906274 0.475816
vt 0.916257 0.475468
vt 0.888052 0.561760
vt 0.880695 0.474130
vt 0.445840 0.896014
vt 0.414669 0.945363
vt 0.362192 0.892887
vt 0.889921 0.883078
vt 0.941323 0.812329
vt 0.947837 0.922185
vt 0.156643 0.803980
vt 0.083332 0.792681
vt 0.071306 0.747802
vt 0.728114 0.464941
vt 0.697388 0.381026
vt 0.729876 0.361506
vt 0.702444 0.492477
vt 0.572719 0.613614
vt 0.572719 0.725127
vt 0.553141 0.630277
vt 0.959128 0.247329
vt 0.950901 0.249533
vt 0.952697 0.170329
vt 0.346095 0.879928
vt 0.345351 0.887325
vt 0.239942 0.887325
vt 0.029655 0.191166
vt 0.131604 0.182326
vt 0.130273 0.191166
vt 0.961581 0.671711
vt 0.954774 0.749513
vt 0.953365 0.670349
vt 0.343577 0.872754
vt 0.127817 0.174615
vt 0.226171 0.814856
vt 0.226491 0.818511
vt 0.119625 0.819854
vt 0.442584 0.769532
vt 0.551025 0.778549
vt 0.442883 0.772958
vt 0.847769 0.062000
vt 0.932467 0.062000
vt 0.848438 0.070743
vt 0.676621 0.064620
vt 0.764382 0.064620
vt 0.761143 0.070089
vt 0.427687 0.780207
vt 0.321023 0.780207
vt 0.319118 0.772890
vt 0.923928 0.149631
vt 0.932021 0.148204
vt 0.929034 0.237243
vt 0.681384 0.093289
vt 0.620456 0.082546
vt 0.712877 0.080261
vt 0.826569 0.293080
vt 0.839114 0.339900
vt 0.827843 0.390302
vt 0.855855 0.437246
vt 0.843998 0.469824
vt 0.843260 0.375800
vt 0.495689 0.001634
vt 0.564783 0.001634
vt 0.544887 0.016556
vt 0.646452 0.160555
vt 0.549222 0.160555
vt 0.599479 0.148197
vt 0.966420 0.265697
vt 0.979682 0.315190
vt 0.963779 0.334598
vt 0.027818 0.996101
vt 0.000207 0.974530
vt 0.080422 0.999905
vt 0.702512 0.261202
vt 0.680559 0.193638
vt 0.728979 0.284162
vt 0.388204 0.069910
vt 0.413258 0.138745
vt 0.388119 0.156246
vt 0.936552 0.076733
vt 0.937475 0.134166
vt 0.888230 0.125482
vt 0.847677 0.078716
vt 0.961707 0.588214
vt 0.998469 0.576269
vt 0.995171 0.628745
vt 0.846580 0.059399
vt 0.453363 0.727736
vt 0.563353 0.727736
vt 0.459478 0.745223
vt 0.446497 0.896500
vt 0.545145 0.896500
vt 0.449211 0.917659
vt 0.101854 0.751918
vt 0.209817 0.751918
vt 0.210338 0.780039
vt 0.132259 0.139627
vt 0.135032 0.155358
vt 0.037534 0.147279
vt 0.487814 0.824037
vt 0.587852 0.827521
vt 0.591832 0.846245
vt 0.600299 0.478050
vt 0.606185 0.473111
vt 0.599261 0.577528
vt 0.593422 0.473413
vt 0.923814 0.907608
vt 0.937051 0.918715
vt 0.928899 0.986689
vt 0.952835 0.435966
vt 0.952835 0.355577
vt 0.963586 0.424104
vt 0.583556 0.857871
vt 0.039574 0.671488
vt 0.039574 0.564009
vt 0.054330 0.666318
vt 0.642989 0.594096
vt 0.610698 0.693477
vt 0.621622 0.588234
vt 0.663479 0.944413
vt 0.572474 0.960459
vt 0.565626 0.939737
vt 0.031641 0.674126
vt 0.055380 0.674126
vt 0.034555 0.781627
vt 0.057168 0.781155
vt 0.057168 0.673614
vt 0.066234 0.674059
vt 0.591317 0.190596
vt 0.587540 0.176501
vt 0.688763 0.175760
vt 0.671778 0.876480
vt 0.671778 0.774946
vt 0.697445 0.825624
vt 0.888095 0.272090
vt 0.914984 0.285791
vt 0.918198 0.354262
vt 0.716410 0.217146
vt 0.739834 0.193721
vt 0.739277 0.294479
vt 0.057180 0.077164
vt 0.149801 0.076901
vt 0.149801 0.114104
vt 0.628933 0.503387
vt 0.644430 0.415504
vt 0.650811 0.519107
vt 0.100497 0.141388
vt 0.963880 0.656733
vt 0.995404 0.651174
vt 0.962806 0.713133
vt 0.151532 0.008519
vt 0.204417 0.008519
vt 0.177917 0.019505
vt 0.680261 0.174323
vt 0.654804 0.162452
vt 0.720212 0.171964
vt 0.619021 0.171896
vt 0.003178 0.081917
vt 0.029787 0.030513
vt 0.075071 0.038498
vt 0.003100 0.029686
vt 0.776805 0.997880
vt 0.747981 0.947957
vt 0.830285 0.951277
vt 0.142663 0.256539
vt 0.138829 0.219500
vt 0.223887 0.196709
vt 0.347179 0.943317
vt 0.843956 0.999929
vt 0.961797 0.656289
vt 0.961797 0.590515
vt 0.990514 0.643038
vt 0.364746 0.002182
vt 0.364746 0.023875
vt 0.294546 0.009473
vt 0.883522 0.867666
vt 0.883522 0.776385
vt 0.897206 0.865471
vt 0.753458 0.018946
vt 0.688528 0.018946
vt 0.694906 0.003670
vt 0.342597 0.173244
vt 0.429567 0.188579
vt 0.327562 0.189097
vt 0.548330 0.017156
vt 0.567542 0.001035
vt 0.617354 0.014149
vt 0.392506 0.947561
vt 0.439419 0.960132
vt 0.342412 0.956589
vt 0.723381 0.932025
vt 0.775793 0.834361
vt 0.789015 0.834361
vt 0.315778 0.672312
vt 0.426601 0.672312
vt 0.319968 0.695928
vt 0.435265 0.307877
vt 0.504754 0.312736
vt 0.504669 0.403038
vt 0.633223 0.472243
vt 0.612166 0.465402
vt 0.645454 0.366006
vt 0.143655 0.049218
vt 0.229501 0.049218
vt 0.157044 0.101225
vt 0.586223 0.582384
vt 0.559152 0.481356
vt 0.587358 0.471204
vt 0.118639 0.536136
vt 0.118639 0.424041
vt 0.123249 0.426175
vt 0.811497 0.832970
vt 0.819392 0.929635
vt 0.002845 0.158705
vt 0.000100 0.083130
vt 0.055728 0.077284
vt 0.747294 0.974248
vt 0.664702 0.914641
vt 0.740197 0.940862
vt 0.690061 0.968719
vt 0.073646 0.106201
vt 0.784826 0.792334
vt 0.756663 0.718967
vt 0.817575 0.795290
vt 0.433344 0.195678
vt 0.448141 0.216810
vt 0.345369 0.209861
vt 0.333109 0.873071
vt 0.230302 0.885706
vt 0.226871 0.878347
vt 0.017148 0.777703
vt 0.008910 0.777703
vt 0.016714 0.677066
vt 0.228722 0.870931
vt 0.129629 0.173824
vt 0.027697 0.173824
vt 0.126524 0.158526
vt 0.612678 0.691783
vt 0.644942 0.592483
vt 0.621304 0.693652
vt 0.033786 0.779876
vt 0.017836 0.784150
vt 0.018021 0.677502
vt 0.129485 0.260313
vt 0.121594 0.372430
vt 0.118524 0.322479
vt 0.224556 0.886874
vt 0.123476 0.854031
vt 0.226573 0.880707
vt 0.192015 0.426001
vt 0.216200 0.492447
vt 0.187439 0.548925
vt 0.142047 0.325843
vt 0.946049 0.323187
vt 0.993351 0.707445
vt 0.975028 0.708330
vt 0.670744 0.052553
vt 0.716779 0.028076
vt 0.746168 0.032689
vt 0.962929 0.332413
vt 0.962929 0.413408
vt 0.953492 0.334109
vt 0.517547 0.093762
vt 0.518603 0.099749
vt 0.429775 0.092934
vt 0.513528 0.083323
vt 0.341309 0.961485
vt 0.008176 0.158994
vt 0.008176 0.259057
vt 0.004983 0.158348
vt 0.275261 0.162338
vt 0.327810 0.186842
vt 0.225779 0.190661
vt 0.031398 0.181881
vt 0.285257 0.945991
vt 0.383376 0.945991
vt 0.335115 0.957156
vt 0.546129 0.819404
vt 0.445103 0.810566
vt 0.548997 0.810389
vt 0.227141 0.990096
vt 0.236557 0.957790
vt 0.249130 0.987396
vt 0.968185 0.031683
vt 0.999491 0.036027
vt 0.998013 0.120726
vt 0.937087 0.077127
vt 0.237690 0.616944
vt 0.229707 0.571669
vt 0.347972 0.616563
vt 0.561050 0.456876
vt 0.587529 0.358054
vt 0.577935 0.468396
vt 0.036585 0.251027
vt 0.018734 0.352265
vt 0.017407 0.245081
vt 0.164425 0.515014
vt 0.133708 0.505113
vt 0.118560 0.381741
vt 0.046999 0.258327
vt 0.193141 0.416819
vt 0.030740 0.346672
vt 0.030740 0.453721
vt 0.023341 0.415698
vt 0.674546 0.987413
vt 0.768366 0.987413
vt 0.672637 0.992429
vt 0.021798 0.515443
vt 0.021798 0.476124
vt 0.027249 0.582873
vt 0.440387 0.820366
vt 0.334648 0.820366
vt 0.333457 0.815327
vt 0.442250 0.813180
vt 0.439362 0.819373
vt 0.336511 0.812879
vt 0.042384 0.276462
vt 0.057419 0.279113
vt 0.045427 0.384305
vt 0.119508 0.842559
vt 0.125242 0.821158
vt 0.226117 0.841698
vt 0.228844 0.156675
vt 0.130903 0.156675
vt 0.228979 0.142243
vt 0.620564 0.895658
vt 0.716703 0.864421
vt 0.713053 0.887317
vt 0.642968 0.875588
vt 0.539431 0.875588
vt 0.625819 0.854009
vt 0.705789 0.371092
vt 0.690442 0.284057
vt 0.706313 0.269026
vt 0.046427 0.605554
vt 0.046427 0.497691
vt 0.054360 0.499137
vt 0.767959 0.616930
vt 0.782530 0.584202
vt 0.816109 0.680302
vt 0.080800 0.431841
vt 0.075371 0.541119
vt 0.073863 0.432447
vt 0.083985 0.434972
vt 0.166659 0.962094
vt 0.074839 0.960491
vt 0.176736 0.949706
vt 0.783576 0.183842
vt 0.839233 0.184103
vt 0.823725 0.246301
vt 0.486373 0.151539
vt 0.430420 0.099363
vt 0.527299 0.100757
vt 0.766470 0.167478
vt 0.830155 0.166219
vt 0.507536 0.163666
vt 0.012824 0.959253
vt 0.087496 0.998957
vt 0.003458 0.974165
vt 0.328135 0.467291
vt 0.377863 0.396271
vt 0.342909 0.526050
vt 0.102735 0.964111
vt 0.091247 0.999466
vt 0.006902 0.954320
vt 0.044917 0.077628
vt 0.059394 0.049215
vt 0.125682 0.049868
vt 0.199725 0.006496
vt 0.267335 0.006496
vt 0.264853 0.022020
vt 0.491421 0.948006
vt 0.538233 0.960549
vt 0.440134 0.959711
vt 0.266172 0.020463
vt 0.286858 0.008520
vt 0.335106 0.021470
vt 0.135429 0.999939
vt 0.174154 0.955813
vt 0.229369 0.965549
vt 0.212808 0.995850
vt 0.724874 0.653570
vt 0.732373 0.567854
vt 0.739236 0.668626
vt 0.238000 0.071484
vt 0.283927 0.091696
vt 0.249960 0.138447
vt 0.440717 0.267077
vt 0.543059 0.324255
vt 0.445993 0.291900
vt 0.524395 0.261783
vt 0.175759 0.089074
vt 0.281395 0.074005
vt 0.467317 0.641968
vt 0.501703 0.634391
vt 0.447012 0.717469
vt 0.413634 0.059328
vt 0.419207 0.054652
vt 0.416163 0.129222
vt 0.749551 0.651830
vt 0.744948 0.647494
vt 0.753285 0.552202
vt 0.754560 0.648201
vt 0.707799 0.111519
vt 0.623635 0.111519
vt 0.616193 0.104804
vt 0.858223 0.747324
vt 0.934551 0.747324
vt 0.853060 0.752676
vt 0.709997 0.118706
vt 0.801754 0.118706
vt 0.803277 0.122690
vt 0.056298 0.673630
vt 0.056298 0.781139
vt 0.050389 0.779338
vt 0.589186 0.174202
vt 0.590836 0.752913
vt 0.589098 0.755394
vt 0.483402 0.756920
vt 0.576962 0.975166
vt 0.576962 0.968157
vt 0.671948 0.991657
vt 0.069287 0.655100
vt 0.075685 0.728226
vt 0.063941 0.763287
vt 0.576331 0.997920
vt 0.065443 0.543098
vt 0.065443 0.434779
vt 0.074184 0.541308
vt 0.134185 0.197984
vt 0.134185 0.238549
vt 0.031498 0.193920
vt 0.508319 0.077242
vt 0.912683 0.999944
vt 0.855095 0.981232
vt 0.922683 0.906644
vt 0.844116 0.778666
vt 0.882981 0.777034
vt 0.882981 0.870459
vt 0.702769 0.002558
vt 0.767241 0.002558
vt 0.759486 0.019566
vt 0.817608 0.826533
vt 0.387195 0.099243
vt 0.298154 0.104689
vt 0.314174 0.079677
vt 0.393346 0.073064
vt 0.402869 0.068001
vt 0.415897 0.142913
vt 0.708755 0.098301
vt 0.616221 0.104082
vt 0.616371 0.098301
vt 0.283767 0.796728
vt 0.240422 0.780951
vt 0.347582 0.781301
vt 0.625115 0.086183
vt 0.746946 0.051628
vt 0.818853 0.045337
vt 0.822376 0.055449
vt 0.800130 0.719741
vt 0.827888 0.805169
vt 0.787754 0.716463
vt 0.297216 0.029101
vt 0.297216 0.104626
vt 0.287347 0.101812
vt 0.862074 0.561797
vt 0.872384 0.554578
vt 0.867802 0.648471
vt 0.095334 0.923570
vt 0.008894 0.951656
vt 0.062914 0.921992
vt 0.685893 0.094244
vt 0.715818 0.080289
vt 0.778217 0.089351
vt 0.322520 0.297643
vt 0.441983 0.290802
vt 0.434002 0.307396
vt 0.736844 0.396109
vt 0.719892 0.299973
vt 0.736614 0.295632
vt 0.238728 0.325077
vt 0.199817 0.444834
vt 0.200471 0.335452
vt 0.705294 0.374843
vt 0.682120 0.383278
vt 0.688083 0.280930
vt 0.882836 0.564919
vt 0.882836 0.658778
vt 0.867902 0.654839
vt 0.441960 0.337517
vt 0.433653 0.244459
vt 0.542749 0.244459
vt 0.444217 0.265865
vt 0.430235 0.544323
vt 0.390923 0.549150
vt 0.434544 0.437084
vt 0.610650 0.466554
vt 0.614538 0.392354
vt 0.643038 0.366779
vt 0.017404 0.588476
vt 0.017404 0.481828
vt 0.026352 0.584734
vt 0.535903 0.328009
vt 0.561096 0.430983
vt 0.528193 0.330815
vt 0.565710 0.317296
vt 0.124667 0.538883
vt 0.147701 0.642910
vt 0.121147 0.639683
vt 0.162530 0.644008
vt 0.021069 0.464893
vt 0.008016 0.513605
vt 0.005480 0.413140
vt 0.692803 0.102227
vt 0.753751 0.091480
vt 0.782615 0.102046
vt 0.621498 0.015596
vt 0.602930 0.002595
vt 0.671898 0.005363
vt 0.442631 0.027746
vt 0.518619 0.027746
vt 0.520495 0.033709
vt 0.770906 0.281143
vt 0.770906 0.182476
vt 0.783666 0.266697
vt 0.820018 0.941497
vt 0.813958 0.949830
vt 0.722755 0.933749
vt 0.821149 0.930484
vt 0.812822 0.835304
vt 0.825330 0.833036
vt 0.815810 0.930701
vt 0.916910 0.477444
vt 0.925876 0.485497
vt 0.900256 0.564345
vt 0.947708 0.777901
vt 0.947708 0.864184
vt 0.939214 0.783734
vt 0.891873 0.561704
vt 0.805612 0.733068
vt 0.851511 0.700929
vt 0.852732 0.777235
vt 0.002661 0.952594
vt 0.020098 0.898930
vt 0.049453 0.927962
vt 0.805007 0.713269
vt 0.963405 0.525674
vt 0.998862 0.574475
vt 0.954432 0.588879
vt 0.066458 0.434229
vt 0.614573 0.754072
vt 0.323084 0.256686
vt 0.328722 0.277729
vt 0.213068 0.271080
vt 0.048863 0.805787
vt 0.649440 0.254418
vt 0.741287 0.177736
vt 0.647126 0.147142
vt 0.753562 0.141339
vt 0.452722 0.885753
vt 0.346688 0.882033
vt 0.348958 0.876675
vt 0.770191 0.988251
vt 0.348386 0.886845
vt 0.033442 0.563542
vt 0.038829 0.565503
vt 0.038344 0.670971
vt 0.386577 0.067754
vt 0.365491 0.002859
vt 0.412083 0.059151
vt 0.007118 0.953628
vt 0.100060 0.923429
vt 0.070289 0.954643
vt 0.430970 0.165269
vt 0.427530 0.184780
vt 0.329600 0.170085
vt 0.869272 0.274697
vt 0.885534 0.272482
vt 0.914701 0.348462
vt 0.857177 0.278100
vt 0.815402 0.335635
vt 0.802593 0.287831
vt 0.814317 0.236636
vt 0.767263 0.501526
vt 0.756193 0.564309
vt 0.757207 0.470779
vt 0.620114 0.896444
vt 0.719119 0.896444
vt 0.668089 0.908866
vt 0.560237 0.022500
vt 0.508985 0.019814
vt 0.492860 0.002082
vt 0.514599 0.025893
vt 0.444103 0.025893
vt 0.463108 0.013438
vt 0.215472 0.962035
vt 0.183686 0.953518
vt 0.276224 0.946028
vt 0.485814 0.578634
vt 0.471248 0.496903
vt 0.488042 0.460888
vt 0.158625 0.895632
vt 0.156400 0.889520
vt 0.261987 0.894561
vt 0.617223 0.755034
vt 0.649247 0.656471
vt 0.636164 0.752413
vt 0.455497 0.579427
vt 0.230471 0.159757
vt 0.739772 0.846596
vt 0.663374 0.757642
vt 0.739772 0.745341
vt 0.713044 0.845696
vt 0.739171 0.392602
vt 0.819334 0.334360
vt 0.814053 0.459642
vt 0.092776 0.258246
vt 0.083559 0.363600
vt 0.076840 0.254394
vt 0.702725 0.585742
vt 0.717629 0.588370
vt 0.706993 0.688103
vt 0.653968 0.975012
vt 0.749670 0.975012
vt 0.655001 0.981724
vt 0.017709 0.353197
vt 0.025555 0.352510
vt 0.020294 0.459682
vt 0.319565 0.989717
vt 0.687727 0.018582
vt 0.621024 0.018582
vt 0.686814 0.003051
vt 0.458302 0.867952
vt 0.458953 0.860513
vt 0.564313 0.868592
vt 0.096484 0.359664
vt 0.096484 0.249480
vt 0.126722 0.270691
vt 0.071238 0.410006
vt 0.047944 0.496940
vt 0.042332 0.388999
vt 0.556607 0.506225
vt 0.564473 0.505537
vt 0.564829 0.618849
vt 0.348136 0.780867
vt 0.455207 0.780867
vt 0.440629 0.812054
vt 0.907884 0.342748
vt 0.908951 0.373310
vt 0.860475 0.284356
vt 0.832403 0.311971
vt 0.832403 0.214578
vt 0.839180 0.216283
vt 0.814537 0.137047
vt 0.720862 0.137047
vt 0.784069 0.123524
vt 0.575697 0.967699
vt 0.574895 0.974858
vt 0.480861 0.974858
vt 0.004951 0.894664
vt 0.004951 0.794127
vt 0.030939 0.883744
vt 0.291191 0.026590
vt 0.294829 0.039735
vt 0.231228 0.070755
vt 0.242613 0.255476
vt 0.240600 0.247965
vt 0.350845 0.248404
vt 0.045557 0.517318
vt 0.763158 0.373523
vt 0.763158 0.274461
vt 0.814029 0.334730
vt 0.713582 0.496844
vt 0.718815 0.497464
vt 0.718815 0.597308
vt 0.132621 0.780874
vt 0.239720 0.780874
vt 0.131961 0.786481
vt 0.547673 0.820535
vt 0.442002 0.820535
vt 0.443320 0.812700
vt 0.459224 0.879865
vt 0.459881 0.872347
vt 0.564867 0.877442
vt 0.281550 0.946118
vt 0.340619 0.961945
vt 0.251251 0.953838
vt 0.489070 0.945540
vt 0.442203 0.958098
vt 0.390969 0.946046
vt 0.086367 0.367941
vt 0.094819 0.464548
vt 0.083648 0.477684
vt 0.115313 0.579822
vt 0.115313 0.689598
vt 0.091177 0.581734
vt 0.837570 0.945236
vt 0.820739 0.939110
vt 0.835841 0.848275
vt 0.827019 0.488026
vt 0.827019 0.391030
vt 0.832764 0.393571
vt 0.811114 0.547679
vt 0.754732 0.591730
vt 0.771031 0.483492
vt 0.818523 0.570631
vt 0.935906 0.548784
vt 0.936434 0.621216
vt 0.886575 0.571787
vt 0.157487 0.896268
vt 0.256476 0.896268
vt 0.208701 0.924774
vt 0.686507 0.177219
vt 0.702501 0.190640
vt 0.601825 0.191021
vt 0.921161 0.656002
vt 0.938397 0.720329
vt 0.917552 0.741245
vt 0.641314 0.409916
vt 0.128428 0.158407
vt 0.732536 0.497972
vt 0.724228 0.493140
vt 0.741126 0.397308
vt 0.881289 0.562702
vt 0.967117 0.920680
vt 0.973406 0.848806
vt 0.977327 0.925530
vt 0.741358 0.495718
vt 0.105695 0.704143
vt 0.886041 0.785555
vt 0.897926 0.777233
vt 0.899793 0.867172
vt 0.998791 0.196344
vt 0.960165 0.249509
vt 0.958436 0.170845
vt 0.866553 0.384277
vt 0.285856 0.069107
vt 0.304884 0.057984
vt 0.304884 0.034936
vt 0.375549 0.036768
vt 0.786264 0.717271
vt 0.755329 0.700907
vt 0.755329 0.619012
vt 0.922836 0.999903
vt 0.965026 0.922417
vt 0.999485 0.934959
vt 0.707735 0.497268
vt 0.692174 0.585520
vt 0.685579 0.482818
vt 0.798260 0.659092
vt 0.044771 0.921278
vt 0.020750 0.897257
vt 0.119368 0.896323
vt 0.998297 0.974477
vt 0.998621 0.993566
vt 0.473602 0.744938
vt 0.486199 0.762928
vt 0.377125 0.754515
vt 0.228740 0.922810
vt 0.258427 0.896266
vt 0.327308 0.896266
vt 0.326198 0.917929
vt 0.222780 0.411146
vt 0.176327 0.386911
vt 0.149574 0.287067
vt 0.182285 0.275822
vt 0.675028 0.193375
vt 0.680420 0.255003
vt 0.577201 0.193995
vt 0.589548 0.466361
vt 0.589548 0.361072
vt 0.604159 0.459099
vt 0.443751 0.024451
vt 0.438852 0.000093
vt 0.061193 0.275166
vt 0.069584 0.272918
vt 0.068803 0.380966
vt 0.945804 0.441895
vt 0.906212 0.454759
vt 0.910683 0.364808
vt 0.754459 0.649575
vt 0.754459 0.749639
vt 0.695885 0.728422
vt 0.119527 0.843255
vt 0.226097 0.843255
vt 0.121356 0.850944
vt 0.121494 0.853099
vt 0.205882 0.845716
vt 0.228064 0.853399
vt 0.961878 0.501295
vt 0.961878 0.433808
vt 0.982075 0.489131
vt 0.619650 0.963266
vt 0.620728 0.969379
vt 0.524306 0.964206
vt 0.801044 0.680976
vt 0.859231 0.681385
vt 0.454908 0.769542
vt 0.561891 0.769542
vt 0.563282 0.777164
vt 0.903619 0.377754
vt 0.908878 0.384806
vt 0.893711 0.470820
vt 0.893482 0.378414
vt 0.670332 0.053164
vt 0.757888 0.053164
vt 0.752160 0.061389
vt 0.961079 0.591180
vt 0.961079 0.670374
vt 0.952392 0.593965
vt 0.427016 0.142670
vt 0.416642 0.144500
vt 0.421348 0.058549
vt 0.948530 0.829400
vt 0.948530 0.769912
vt 0.989032 0.785306
vt 0.926354 0.148439
vt 0.649885 0.761590
vt 0.639072 0.829855
vt 0.567913 0.825087
vt 0.552046 0.421536
vt 0.552046 0.534708
vt 0.544808 0.528732
vt 0.414479 0.995067
vt 0.375173 0.962085
vt 0.468977 0.960685
vt 0.299003 0.161445
vt 0.397142 0.161445
vt 0.295582 0.167013
vt 0.950248 0.249684
vt 0.944340 0.245062
vt 0.944340 0.169687
vt 0.961965 0.679089
vt 0.961965 0.757489
vt 0.955931 0.755024
vt 0.242468 0.959018
vt 0.325474 0.209467
vt 0.326811 0.247760
vt 0.231202 0.211215
vt 0.747389 0.551008
vt 0.747389 0.451939
vt 0.754577 0.551502
vt 0.480489 0.983882
vt 0.575558 0.983882
vt 0.574686 0.990061
vt 0.060096 0.382921
vt 0.060096 0.274896
vt 0.067731 0.381626
vt 0.735968 0.888525
vt 0.737223 0.895644
vt 0.636425 0.895277
vt 0.229852 0.837887
vt 0.529100 0.605947
vt 0.426420 0.620378
vt 0.533758 0.582178
vt 0.264660 0.324104
vt 0.390699 0.324104
vt 0.318394 0.366653
vt 0.048236 0.259374
vt 0.181977 0.292686
vt 0.203471 0.307736
vt 0.188205 0.413313
vt 0.371536 0.549939
vt 0.246950 0.549939
vt 0.318836 0.508075
vt 0.156766 0.247890
vt 0.240378 0.250809
vt 0.137203 0.290458
vt 0.936936 0.775072
vt 0.854665 0.775318
vt 0.853133 0.757802
vt 0.933227 0.757131
vt 0.445603 0.780124
vt 0.983177 0.850264
vt 0.983177 0.927513
vt 0.977983 0.925795
vt 0.758317 0.718806
vt 0.777401 0.721828
vt 0.819363 0.794960
vt 0.750928 0.466173
vt 0.801187 0.212916
vt 0.801187 0.311666
vt 0.777476 0.289656
vt 0.857594 0.194603
vt 0.803372 0.119971
vt 0.887386 0.174836
vt 0.885511 0.945819
vt 0.839874 0.929208
vt 0.886412 0.881344
vt 0.888488 0.636565
vt 0.180815 0.915948
vt 0.175933 0.772234
vt 0.170824 0.780101
vt 0.070379 0.746448
vt 0.350192 0.160703
vt 0.274971 0.106052
vt 0.386780 0.103308
vt 0.424979 0.083890
vt 0.439878 0.038037
vt 0.512091 0.076079
vt 0.325206 0.290085
vt 0.441263 0.262296
vt 0.432409 0.290085
vt 0.337291 0.256310
vt 0.327874 0.296296
vt 0.456905 0.859787
vt 0.458617 0.879353
vt 0.352593 0.875948
vt 0.963710 0.384787
vt 0.963710 0.335468
vt 0.993025 0.351259
vt 0.637360 0.750794
vt 0.424960 0.831069
vt 0.130820 0.882547
vt 0.698699 0.192731
vt 0.618924 0.076907
vt 0.538698 0.078475
vt 0.032982 0.886935
vt 0.012316 0.809606
vt 0.588901 0.463634
vt 0.586953 0.583317
vt 0.586953 0.694461
vt 0.579714 0.586884
vt 0.762477 0.974983
vt 0.763499 0.986669
vt 0.667671 0.982675
vt 0.587742 0.692090
vt 0.620223 0.592125
vt 0.602161 0.695978
vt 0.636771 0.081550
vt 0.596855 0.026611
vt 0.695180 0.028903
vt 0.214145 0.748142
vt 0.104440 0.748142
vt 0.145677 0.706627
vt 0.084466 0.420166
vt 0.066468 0.402167
vt 0.079373 0.310906
vt 0.782732 0.727649
vt 0.973981 0.833321
vt 0.983247 0.829949
vt 0.977332 0.906531
vt 0.478455 0.881530
vt 0.517541 0.895756
vt 0.414121 0.894083
vt 0.429362 0.551451
vt 0.299307 0.081322
vt 0.931229 0.147367
vt 0.943574 0.125986
vt 0.996991 0.145666
vt 0.427187 0.671554
vt 0.316175 0.671554
vt 0.420937 0.653913
vt 0.952979 0.592756
vt 0.952979 0.512947
vt 0.961476 0.516208
vt 0.723926 0.512022
vt 0.738879 0.526975
vt 0.723265 0.612855
vt 0.326624 0.485020
vt 0.288893 0.506804
vt 0.265163 0.404943
vt 0.331690 0.365860
vt 0.587704 0.688288
vt 0.587704 0.582607
vt 0.616327 0.583503
vt 0.440835 0.707656
vt 0.458184 0.744861
vt 0.348109 0.745637
vt 0.438670 0.193436
vt 0.541664 0.193436
vt 0.450368 0.219051
vt 0.471432 0.375224
vt 0.471432 0.494491
vt 0.414015 0.402376
vt 0.576170 0.981662
vt 0.123056 0.807386
vt 0.229943 0.807386
vt 0.221621 0.814049
vt 0.709655 0.192775
vt 0.731878 0.289034
vt 0.700767 0.193103
vt 0.615764 0.478448
vt 0.629073 0.473604
vt 0.625277 0.577527
vt 0.754471 0.772504
vt 0.754471 0.872039
vt 0.739629 0.851325
vt 0.755181 0.815541
vt 0.755181 0.717891
vt 0.778742 0.793003
vt 0.314858 0.652505
vt 0.427522 0.652505
vt 0.321031 0.661654
vt 0.159558 0.627614
vt 0.132267 0.525761
vt 0.161243 0.514962
vt 0.376286 0.504490
vt 0.011991 0.673529
vt 0.011991 0.566884
vt 0.034224 0.671145
vt 0.839863 0.680276
vt 0.839863 0.584228
vt 0.846469 0.678621
vt 0.534482 0.766806
vt 0.532976 0.758268
vt 0.638607 0.761136
vt 0.577427 0.250500
vt 0.100650 0.638304
vt 0.066509 0.654225
vt 0.067277 0.544891
vt 0.544845 0.256867
vt 0.585441 0.258284
vt 0.582848 0.361619
vt 0.192534 0.661322
vt 0.283035 0.727075
vt 0.164851 0.717132
vt 0.592967 0.576124
vt 0.588229 0.574873
vt 0.588229 0.470582
vt 0.598104 0.573892
vt 0.279190 0.504572
vt 0.222574 0.872748
vt 0.301906 0.978817
vt 0.250809 0.960219
vt 0.340145 0.963370
vt 0.688879 0.613696
vt 0.701977 0.577710
vt 0.696482 0.679910
vt 0.412318 0.070600
vt 0.264554 0.891403
vt 0.367610 0.891403
vt 0.262676 0.895716
vt 0.825945 0.623508
vt 0.298642 0.062985
vt 0.375364 0.038056
vt 0.387199 0.098129
vt 0.887212 0.563906
vt 0.810428 0.508119
vt 0.873855 0.438552
vt 0.905503 0.775895
vt 0.996556 0.919996
vt 0.984270 0.928598
vt 0.984319 0.851146
vt 0.671054 0.775557
vt 0.671054 0.878327
vt 0.627373 0.853276
vt 0.211301 0.617730
vt 0.320431 0.617730
vt 0.207593 0.670864
vt 0.216859 0.219988
vt 0.311606 0.665648
vt 0.334042 0.568897
vt 0.543793 0.400143
vt 0.548144 0.393930
vt 0.545288 0.507250
vt 0.728102 0.358947
vt 0.706509 0.374067
vt 0.713150 0.271951
vt 0.879962 0.117590
vt 0.488925 0.573042
vt 0.488925 0.456948
vt 0.518450 0.554732
vt 0.344270 0.352886
vt 0.379055 0.338832
vt 0.332351 0.459103
vt 0.838843 0.233568
vt 0.856837 0.272156
vt 0.836378 0.326903
vt 0.562330 0.433202
vt 0.553097 0.538738
vt 0.552714 0.425373
vt 0.070516 0.260265
vt 0.076042 0.258785
vt 0.070467 0.367076
vt 0.723980 0.496104
vt 0.815049 0.138164
vt 0.083691 0.588333
vt 0.083691 0.478530
vt 0.123290 0.546000
vt 0.915619 0.746749
vt 0.852718 0.701048
vt 0.921127 0.637224
vt 0.299621 0.172380
vt 0.596823 0.028533
vt 0.598778 0.033905
vt 0.520691 0.030921
vt 0.606908 0.473078
vt 0.622689 0.562580
vt 0.607090 0.577070
vt 0.507206 0.022933
vt 0.440188 0.001158
vt 0.491389 0.002267
vt 0.928678 0.520354
vt 0.836794 0.852116
vt 0.514500 0.573245
vt 0.542108 0.470212
vt 0.543022 0.584361
vt 0.586423 0.721433
vt 0.587902 0.749650
vt 0.482403 0.755951
vt 0.303995 0.944318
vt 0.228285 0.924032
vt 0.326779 0.919006
vt 0.833920 0.367832
vt 0.535948 0.357996
vt 0.541094 0.456175
vt 0.505612 0.348152
vt 0.178053 0.947948
vt 0.938149 0.249659
vt 0.402195 0.164676
vt 0.407846 0.143584
vt 0.501444 0.161381
vt 0.563374 0.041467
vt 0.528242 0.089821
vt 0.470058 0.034564
vt 0.392948 0.477194
vt 0.374834 0.374469
vt 0.398027 0.348273
s 1
usemtl Material
f 1/1/1 2/2/2 3/3/3
f 1/4/1 3/5/3 4/6/4
f 1/7/1 5/8/5 6/9/6
f 1/7/1 7/10/7 5/8/5
f 1/11/1 6/12/6 2/13/2
f 1/14/1 4/15/4 7/16/7
f 8/17/8 9/18/9 10/19/10
f 8/20/8 10/21/10 11/22/11
f 8/23/8 11/24/11 12/25/12
f 8/26/8 12/27/12 13/28/13
f 8/29/8 13/30/13 14/31/14
f 8/32/8 14/33/14 9/34/9
f 15/35/15 16/36/16 17/37/17
f 15/38/15 18/39/18 19/40/19
f 15/41/15 20/42/20 18/43/18
f 15/44/15 17/45/17 21/46/21
f 15/41/15 22/47/22 20/42/20
f 15/48/15 19/49/19 16/50/16
f 15/51/15 21/52/21 22/53/22
f 23/54/23 24/55/24 25/56/25
f 23/57/23 26/58/26 27/59/27
f 23/60/23 28/61/28 29/62/29
f 23/57/23 25/63/25 26/58/26
f 23/57/23 27/59/27 30/64/30
f 23/65/23 30/66/30 28/67/28
f 23/68/23 31/69/31 24/70/24
f 23/71/23 29/72/29 31/73/31
f 32/74/32 33/75/33 34/76/34
f 32/77/32 34/78/34 35/79/35
f 32/80/32 36/81/36 33/82/33
f 32/83/32 37/84/37 36/85/36
f 32/86/32 35/87/35 38/88/38
f 32/83/32 38/89/38 37/84/37
f 39/90/39 40/91/40 41/92/41
f 39/93/39 41/94/41 42/95/42
f 39/96/39 43/97/43 44/98/44
f 39/99/39 42/100/42 43/101/43
f 39/102/39 44/103/44 45/104/45
f 39/105/39 45/106/45 40/107/40
f 46/108/46 47/109/47 48/110/48
f 46/111/46 9/112/9 14/113/14
f 46/114/46 49/115/49 47/116/47
f 46/117/46 48/118/48 50/119/50
f 46/120/46 14/121/14 49/122/49
f 46/123/46 50/124/50 9/125/9
f 51/126/51 52/127/52 53/128/53
f 51/129/51 53/130/53 54/131/54
f 51/132/51 54/133/54 55/134/55
f 51/135/51 30/136/30 52/137/52
f 51/132/51 55/134/55 30/138/30
f 56/139/56 57/140/57 58/141/58
f 56/142/56 59/143/59 60/144/60
f 56/145/56 61/146/61 57/147/57
f 56/139/56 58/141/58 62/148/62
f 56/149/56 62/150/62 59/151/59
f 56/152/56 60/153/60 61/154/61
f 63/155/63 64/156/64 65/157/65
f 63/158/63 66/159/66 64/160/64
f 63/161/63 67/162/67 68/163/68
f 63/164/63 68/165/68 69/166/69
f 63/155/63 65/157/65 67/167/67
f 63/168/63 69/169/69 66/170/66
f 70/171/70 71/172/71 72/173/72
f 70/174/70 73/175/73 74/176/74
f 70/177/70 75/178/75 71/179/71
f 70/171/70 72/173/72 76/180/76
f 70/181/70 76/182/76 73/183/73
f 70/184/70 74/185/74 75/186/75
f 77/187/77 78/188/78 79/189/79
f 77/190/77 80/191/80 81/192/81
f 77/190/77 82/193/82 80/191/80
f 77/194/77 83/195/83 82/196/82
f 77/197/77 81/198/81 84/199/84
f 77/200/77 85/201/85 78/202/78
f 77/197/77 84/199/84 85/203/85
f 77/204/77 79/205/79 83/206/83
f 86/207/86 87/208/87 88/209/88
f 86/210/86 88/211/88 89/212/89
f 86/210/86 89/212/89 90/213/90
f 86/207/86 90/214/90 87/208/87
f 91/215/91 92/216/92 93/217/93
f 91/218/91 94/219/94 95/220/95
f 91/221/91 95/222/95 92/223/92
f 91/224/91 93/225/93 96/226/96
f 91/224/91 96/226/96 94/227/94
f 97/228/97 98/229/98 99/230/99
f 97/231/97 99/232/99 100/233/100
f 97/234/97 100/235/100 101/236/101
f 97/237/97 102/238/102 98/239/98
f 97/237/97 103/240/103 102/238/102
f 97/241/97 101/242/101 103/243/103
f 104/244/104 105/245/105 106/246/106
f 104/247/104 107/248/107 108/249/108
f 104/250/104 109/251/109 110/252/110
f 104/253/104 110/254/110 107/255/107
f 104/247/104 108/249/108 105/256/105
f 104/250/104 106/257/106 109/251/109
f 111/258/111 52/259/52 30/260/30
f 111/261/111 27/262/27 112/263/112
f 111/264/111 113/265/113 52/266/52
f 111/267/111 114/268/114 113/269/113
f 111/270/111 30/271/30 27/272/27
f 111/273/111 112/274/112 114/275/114
f 115/276/115 116/277/116 117/278/117
f 115/279/115 118/280/118 119/281/119
f 115/282/115 117/283/117 106/284/106
f 115/285/115 120/286/120 116/287/116
f 115/288/115 119/289/119 120/290/120
f 115/291/115 106/292/106 118/293/118
f 16/294/16 121/295/121 122/296/122
f 16/297/16 19/298/19 121/299/121
f 16/300/16 122/301/122 17/302/17
f 24/303/24 123/304/123 124/305/124
f 24/303/24 124/305/124 25/306/25
f 24/307/24 125/308/125 123/309/123
f 24/70/24 31/69/31 125/310/125
f 57/311/57 61/312/61 126/313/126
f 57/314/57 11/315/11 58/316/58
f 57/317/57 12/318/12 11/319/11
f 57/320/57 126/321/126 12/322/12
f 127/323/127 128/324/128 76/325/76
f 127/326/127 129/327/129 130/328/130
f 127/326/127 130/328/130 131/329/131
f 127/330/127 131/331/131 128/332/128
f 127/333/127 132/334/132 129/335/129
f 127/323/127 76/325/76 132/336/132
f 133/337/133 134/338/134 135/339/135
f 133/340/133 136/341/136 137/342/137
f 133/343/133 138/344/138 136/345/136
f 133/346/133 137/347/137 139/348/139
f 133/349/133 139/350/139 134/351/134
f 133/352/133 135/353/135 138/354/138
f 140/355/140 141/356/141 142/357/142
f 140/358/140 107/359/107 141/360/141
f 140/361/140 142/362/142 143/363/143
f 140/364/140 143/365/143 144/366/144
f 140/367/140 145/368/145 107/369/107
f 140/364/140 144/366/144 145/370/145
f 146/371/146 147/372/147 148/373/148
f 146/374/146 149/375/149 147/376/147
f 146/377/146 87/378/87 149/379/149
f 146/377/146 88/380/88 87/378/87
f 146/381/146 150/382/150 88/383/88
f 146/381/146 148/384/148 150/382/150
f 98/385/98 151/386/151 144/387/144
f 98/388/98 102/389/102 151/390/151
f 98/229/98 143/391/143 99/230/99
f 98/385/98 144/387/144 143/392/143
f 128/393/128 73/394/73 76/395/76
f 128/396/128 152/397/152 74/398/74
f 128/399/128 131/400/131 152/401/152
f 128/402/128 74/403/74 73/404/73
f 141/405/141 107/406/107 110/407/110
f 141/408/141 110/409/110 153/410/153
f 141/411/141 153/412/153 142/413/142
f 154/414/154 78/415/78 85/416/85
f 154/417/154 155/418/155 156/419/156
f 154/420/154 53/421/53 157/422/157
f 154/423/154 156/424/156 158/425/158
f 154/426/154 54/427/54 53/428/53
f 154/429/154 158/430/158 78/431/78
f 154/432/154 157/433/157 155/434/155
f 154/414/154 85/416/85 84/435/84
f 154/414/154 84/435/84 54/436/54
f 159/437/159 160/438/160 161/439/161
f 159/440/159 162/441/162 163/442/163
f 159/440/159 164/443/164 162/441/162
f 159/437/159 161/439/161 125/444/125
f 159/445/159 125/446/125 164/447/164
f 159/448/159 163/449/163 160/450/160
f 165/451/165 166/452/166 71/453/71
f 165/454/165 49/455/49 167/456/167
f 165/451/165 71/453/71 75/457/75
f 165/458/165 167/459/167 168/460/168
f 165/461/165 75/462/75 49/463/49
f 165/464/165 168/465/168 166/466/166
f 59/467/59 169/468/169 170/469/170
f 59/470/59 170/471/170 171/472/171
f 59/473/59 62/474/62 172/475/172
f 59/467/59 172/476/172 169/468/169
f 59/143/59 171/477/171 60/144/60
f 173/478/173 174/479/174 147/372/147
f 173/480/173 147/481/147 149/482/149
f 173/483/173 149/484/149 114/485/114
f 173/486/173 114/487/114 112/488/112
f 173/486/173 112/488/112 174/489/174
f 175/490/175 142/413/142 153/412/153
f 175/491/175 143/492/143 142/493/142
f 175/494/175 43/495/43 42/496/42
f 175/491/175 42/497/42 143/492/143
f 175/498/175 153/499/153 43/500/43
f 47/501/47 49/502/49 75/503/75
f 47/504/47 152/505/152 48/506/48
f 47/507/47 75/508/75 74/509/74
f 47/507/47 74/509/74 152/510/152
f 78/511/78 158/512/158 79/513/79
f 176/514/176 13/515/13 177/516/177
f 176/517/176 178/518/178 179/519/179
f 176/520/176 179/521/179 180/522/180
f 176/517/176 177/523/177 178/518/178
f 176/520/176 180/522/180 13/524/13
f 181/525/181 182/526/182 183/527/183
f 181/528/181 160/529/160 184/530/184
f 181/531/181 183/532/183 160/533/160
f 181/534/181 185/535/185 182/536/182
f 181/537/181 184/538/184 185/539/185
f 18/540/18 186/541/186 19/542/19
f 18/543/18 20/544/20 187/545/187
f 18/546/18 188/547/188 186/548/186
f 18/549/18 187/550/187 188/551/188
f 105/552/105 189/553/189 190/554/190
f 105/555/105 118/556/118 106/557/106
f 105/558/105 108/559/108 189/560/189
f 105/561/105 190/562/190 118/563/118
f 2/564/2 191/565/191 3/566/3
f 2/564/2 192/567/192 191/565/191
f 2/568/2 6/569/6 192/570/192
f 193/571/193 123/572/123 161/573/161
f 193/574/193 161/575/161 194/576/194
f 193/571/193 195/577/195 196/578/196
f 193/574/193 194/576/194 195/579/195
f 193/571/193 196/578/196 123/572/123
f 197/580/197 129/581/129 132/582/132
f 197/583/197 198/584/198 199/585/199
f 197/586/197 132/587/132 198/588/198
f 197/589/197 199/590/199 200/591/200
f 197/592/197 200/593/200 129/594/129
f 201/595/201 202/596/202 164/597/164
f 201/598/201 203/599/203 202/600/202
f 201/601/201 164/602/164 31/603/31
f 201/601/201 31/603/31 29/604/29
f 201/605/201 29/606/29 203/607/203
f 204/608/204 205/609/205 206/610/206
f 204/611/204 62/612/62 207/613/207
f 204/611/204 172/614/172 62/612/62
f 204/608/204 206/610/206 172/615/172
f 204/608/204 208/616/208 205/609/205
f 204/617/204 207/618/207 208/619/208
f 209/620/209 210/621/210 211/622/211
f 209/623/209 212/624/212 213/625/213
f 209/623/209 213/625/213 210/626/210
f 209/627/209 211/628/211 214/629/214
f 209/630/209 214/631/214 212/632/212
f 186/633/186 188/634/188 138/635/138
f 186/636/186 215/637/215 19/638/19
f 186/639/186 138/354/138 135/353/135
f 186/640/186 135/641/135 215/642/215
f 216/643/216 217/644/217 145/645/145
f 216/646/216 218/647/218 219/648/219
f 216/643/216 145/645/145 220/649/220
f 216/650/216 219/651/219 217/652/217
f 216/653/216 220/654/220 218/655/218
f 174/479/174 148/373/148 147/372/147
f 174/489/174 112/488/112 148/656/148
f 99/657/99 41/658/41 221/659/221
f 99/660/99 143/661/143 42/662/42
f 99/663/99 221/664/221 100/665/100
f 99/660/99 42/662/42 41/666/41
f 182/667/182 222/668/222 223/669/223
f 182/670/182 185/671/185 224/672/224
f 182/673/182 224/674/224 225/675/225
f 182/676/182 223/677/223 183/678/183
f 182/673/182 225/675/225 222/679/222
f 226/680/226 227/681/227 44/682/44
f 226/683/226 109/684/109 228/685/228
f 226/686/226 110/687/110 109/688/109
f 226/689/226 228/690/228 227/691/227
f 226/692/226 44/693/44 153/694/153
f 226/695/226 153/696/153 110/697/110
f 33/698/33 36/699/36 229/700/229
f 33/701/33 156/702/156 89/703/89
f 33/704/33 230/705/230 158/706/158
f 33/707/33 158/708/158 156/709/156
f 33/710/33 89/711/89 34/712/34
f 33/698/33 229/700/229 230/713/230
f 166/714/166 231/715/231 71/716/71
f 166/717/166 232/718/232 198/719/198
f 166/720/166 198/721/198 231/722/231
f 166/723/166 168/724/168 232/725/232
f 26/726/26 233/727/233 27/728/27
f 26/726/26 25/729/25 233/727/233
f 52/730/52 234/731/234 157/732/157
f 52/730/52 113/733/113 234/731/234
f 52/734/52 157/735/157 53/736/53
f 210/737/210 202/738/202 211/739/211
f 210/740/210 162/741/162 202/742/202
f 210/743/210 213/744/213 163/745/163
f 210/746/210 163/747/163 162/748/162
f 235/749/235 121/750/121 215/751/215
f 235/752/235 224/753/224 122/754/122
f 235/749/235 215/751/215 236/755/236
f 235/756/235 236/757/236 225/758/225
f 235/759/235 122/760/122 121/761/121
f 235/756/235 225/758/225 224/762/224
f 205/763/205 237/764/237 238/765/238
f 205/766/205 239/767/239 206/768/206
f 205/763/205 208/769/208 237/764/237
f 205/770/205 238/771/238 239/772/239
f 3/566/3 191/565/191 240/773/240
f 3/5/3 241/774/241 4/6/4
f 3/775/3 240/776/240 241/777/241
f 100/235/100 221/778/221 101/236/101
f 9/18/9 242/779/242 10/19/10
f 9/780/9 50/781/50 242/782/242
f 28/783/28 243/784/243 29/785/29
f 28/67/28 30/66/30 55/786/55
f 28/783/28 244/787/244 243/784/243
f 28/788/28 55/789/55 244/790/244
f 245/791/245 246/792/246 60/793/60
f 245/794/245 241/795/241 246/796/246
f 245/797/245 7/798/7 241/799/241
f 245/800/245 60/801/60 171/802/171
f 245/800/245 171/802/171 7/803/7
f 247/804/247 248/805/248 66/806/66
f 247/807/247 212/808/212 249/809/249
f 247/810/247 66/811/66 69/812/69
f 247/813/247 250/814/250 248/815/248
f 247/816/247 69/817/69 212/818/212
f 247/819/247 249/820/249 250/821/250
f 134/822/134 251/823/251 236/824/236
f 134/825/134 215/826/215 135/827/135
f 134/828/134 236/829/236 215/830/215
f 134/822/134 139/831/139 251/823/251
f 151/390/151 102/389/102 252/832/252
f 151/833/151 253/834/253 220/835/220
f 151/833/151 252/836/252 253/834/253
f 151/837/151 220/838/220 144/839/144
f 191/840/191 192/841/192 178/842/178
f 191/843/191 178/844/178 177/845/177
f 191/846/191 177/847/177 126/848/126
f 191/849/191 126/850/126 240/851/240
f 92/852/92 48/506/48 152/505/152
f 92/853/92 152/854/152 131/855/131
f 92/856/92 131/857/131 93/858/93
f 92/859/92 95/860/95 50/861/50
f 92/862/92 50/863/50 48/864/48
f 20/865/20 22/866/22 83/867/83
f 20/868/20 83/869/83 187/870/187
f 189/871/189 169/872/169 190/873/190
f 189/874/189 217/875/217 170/876/170
f 189/877/189 170/878/170 169/879/169
f 189/880/189 108/881/108 217/882/217
f 155/883/155 254/884/254 90/885/90
f 155/886/155 157/887/157 254/888/254
f 155/889/155 90/890/90 156/891/156
f 160/533/160 183/532/183 194/892/194
f 160/893/160 194/894/194 161/895/161
f 160/896/160 255/897/255 184/898/184
f 160/899/160 163/900/163 255/901/255
f 129/902/129 256/903/256 130/904/130
f 129/905/129 200/906/200 256/907/256
f 202/908/202 203/909/203 211/910/211
f 202/911/202 162/912/162 164/913/164
f 34/914/34 88/915/88 150/916/150
f 34/917/34 150/918/150 35/919/35
f 34/920/34 89/921/89 88/922/88
f 49/923/49 14/924/14 167/925/167
f 80/926/80 257/927/257 65/928/65
f 80/926/80 82/929/82 257/927/257
f 80/930/80 65/931/65 81/932/81
f 248/933/248 258/934/258 66/935/66
f 248/936/248 250/937/250 244/938/244
f 248/939/248 244/940/244 258/941/258
f 102/238/102 103/240/103 180/942/180
f 102/389/102 180/943/180 252/832/252
f 227/944/227 116/945/116 45/946/45
f 227/691/227 228/690/228 117/947/117
f 227/948/227 117/949/117 116/950/116
f 227/944/227 45/946/45 44/951/44
f 17/45/17 259/952/259 21/46/21
f 17/953/17 122/954/122 259/955/259
f 169/956/169 172/957/172 206/958/206
f 169/872/169 206/959/206 190/873/190
f 234/960/234 254/888/254 157/887/157
f 234/961/234 113/962/113 254/963/254
f 260/964/260 261/965/261 120/966/120
f 260/967/260 239/968/239 238/969/238
f 260/970/260 262/971/262 261/972/261
f 260/964/260 120/966/120 119/973/119
f 260/974/260 119/975/119 239/976/239
f 260/967/260 96/977/96 262/978/262
f 260/967/260 238/969/238 96/977/96
f 231/979/231 72/980/72 71/981/71
f 231/982/231 198/983/198 132/984/132
f 231/982/231 132/984/132 76/985/76
f 231/986/231 76/180/76 72/173/72
f 36/987/36 136/988/136 138/989/138
f 36/990/36 37/991/37 136/992/136
f 36/993/36 138/994/138 229/995/229
f 61/996/61 246/792/246 240/997/240
f 61/998/61 240/999/240 126/1000/126
f 61/996/61 60/793/60 246/792/246
f 263/1001/263 257/1002/257 21/1003/21
f 263/1004/263 67/1005/67 65/1006/65
f 263/1007/263 259/1008/259 184/1009/184
f 263/1010/263 21/1011/21 259/1012/259
f 263/1013/263 65/1014/65 257/1015/257
f 263/1016/263 184/1017/184 67/1018/67
f 10/1019/10 242/1020/242 208/769/208
f 10/21/10 208/619/208 207/618/207
f 10/21/10 207/618/207 11/22/11
f 107/1021/107 145/1022/145 108/1023/108
f 264/1024/264 149/1025/149 87/1026/87
f 264/1024/264 87/1026/87 265/1027/265
f 264/1028/264 113/1029/113 114/1030/114
f 264/1031/264 114/1032/114 149/1033/149
f 264/1034/264 265/1035/265 113/1036/113
f 123/1037/123 125/1038/125 161/1039/161
f 123/304/123 196/1040/196 124/305/124
f 22/1041/22 257/1042/257 82/1043/82
f 22/1044/22 82/1045/82 83/1046/83
f 22/1047/22 21/1048/21 257/1049/257
f 203/1050/203 243/1051/243 266/1052/266
f 203/1053/203 266/1054/266 214/1055/214
f 203/1056/203 29/1057/29 243/1058/243
f 203/909/203 214/1059/214 211/910/211
f 11/1060/11 207/1061/207 58/1062/58
f 40/1063/40 256/1064/256 41/1065/41
f 40/1066/40 130/1067/130 256/1068/256
f 40/1069/40 261/1070/261 262/1071/262
f 40/1072/40 262/1073/262 130/1074/130
f 40/107/40 45/106/45 261/1075/261
f 253/1076/253 252/1077/252 267/1078/267
f 253/1079/253 268/1080/268 218/1081/218
f 253/1082/253 218/655/218 220/654/220
f 253/1083/253 267/1084/267 268/1085/268
f 233/1086/233 25/1087/25 35/1088/35
f 233/1089/233 35/1090/35 150/1091/150
f 233/1092/233 150/1093/150 148/1094/148
f 233/1092/233 148/1094/148 112/1095/112
f 233/1096/233 112/263/112 27/262/27
f 212/1097/212 68/1098/68 213/1099/213
f 212/1100/212 69/1101/69 68/1102/68
f 212/808/212 214/1103/214 249/809/249
f 64/1104/64 66/1105/66 258/1106/258
f 64/1107/64 258/1108/258 269/1109/269
f 64/1110/64 269/1111/269 81/1112/81
f 64/1113/64 81/932/81 65/931/65
f 192/570/192 6/569/6 270/1114/270
f 192/1115/192 270/1116/270 178/1117/178
f 183/1118/183 223/1119/223 137/1120/137
f 183/1121/183 137/1122/137 194/1123/194
f 188/1124/188 230/1125/230 229/1126/229
f 188/1124/188 187/1127/187 230/1125/230
f 188/1124/188 229/1126/229 138/1128/138
f 271/1129/271 5/1130/5 219/1131/219
f 271/1132/271 268/1133/268 270/1134/270
f 271/1135/271 6/9/6 5/8/5
f 271/1129/271 219/1131/219 268/1136/268
f 271/1137/271 270/1114/270 6/569/6
f 121/299/121 19/298/19 215/1138/215
f 124/1139/124 35/87/35 25/1140/25
f 124/1139/124 38/88/38 35/87/35
f 124/1141/124 196/1142/196 38/89/38
f 12/1143/12 177/516/177 13/515/13
f 12/1144/12 126/1145/126 177/1146/177
f 256/1147/256 221/1148/221 41/1149/41
f 256/1150/256 200/1151/200 221/1152/221
f 237/1153/237 94/1154/94 238/1155/238
f 237/1156/237 95/1157/95 94/1158/94
f 237/1159/237 242/1160/242 95/1161/95
f 237/764/237 208/769/208 242/1020/242
f 109/684/109 117/1162/117 228/685/228
f 109/1163/109 106/1164/106 117/1165/117
f 246/1166/246 241/1167/241 240/1168/240
f 222/1169/222 251/823/251 139/831/139
f 222/668/222 139/1170/139 223/669/223
f 222/1171/222 225/1172/225 251/1173/251
f 156/1174/156 90/1175/90 89/1176/89
f 116/1177/116 261/1178/261 45/1179/45
f 116/1180/116 120/1181/120 261/1182/261
f 272/1183/272 167/1184/167 13/1185/13
f 272/1183/272 13/1185/13 180/1186/180
f 272/1187/272 273/1188/273 168/1189/168
f 272/1190/272 103/1191/103 273/1192/273
f 272/1193/272 168/1194/168 167/1195/167
f 272/1196/272 180/1197/180 103/1198/103
f 217/882/217 108/881/108 145/1199/145
f 217/1200/217 219/1201/219 274/1202/274
f 217/1203/217 274/1204/274 170/1205/170
f 5/1206/5 7/1207/7 274/1208/274
f 5/1209/5 274/1210/274 219/1211/219
f 164/1212/164 125/1213/125 31/1214/31
f 232/1215/232 273/1216/273 199/1217/199
f 232/1218/232 168/1219/168 273/1220/273
f 232/1221/232 199/585/199 198/584/198
f 58/1222/58 207/1223/207 62/1224/62
f 130/1225/130 262/1226/262 93/1227/93
f 130/1228/130 93/1229/93 131/1230/131
f 136/992/136 37/991/37 195/1231/195
f 136/1232/136 195/1233/195 137/1234/137
f 252/1235/252 179/1236/179 267/1237/267
f 252/1238/252 180/1239/180 179/1240/179
f 213/1241/213 68/1242/68 255/1243/255
f 213/1241/213 255/1243/255 163/1244/163
f 167/1184/167 14/1245/14 13/1185/13
f 170/471/170 274/1246/274 171/472/171
f 254/1247/254 113/1248/113 265/1249/265
f 254/1250/254 265/1251/265 90/1252/90
f 185/671/185 259/1253/259 224/672/224
f 185/1254/185 184/1255/184 259/1256/259
f 118/563/118 190/562/190 119/1257/119
f 54/1258/54 269/1259/269 55/1260/55
f 54/1261/54 84/1262/84 269/1263/269
f 224/1264/224 259/955/259 122/954/122
f 87/1265/87 90/1266/90 265/1267/265
f 94/1268/94 96/1269/96 238/1270/238
f 83/1271/83 79/1272/79 187/1273/187
f 241/1274/241 7/16/7 4/15/4
f 230/1275/230 187/1273/187 79/1272/79
f 230/1276/230 79/513/79 158/512/158
f 223/1277/223 139/1278/139 137/1279/137
f 258/1280/258 244/1281/244 55/1282/55
f 258/1108/258 55/1283/55 269/1109/269
f 273/1284/273 103/1285/103 101/1286/101
f 273/1287/273 101/1288/101 199/1289/199
f 268/1290/268 219/1291/219 218/1292/218
f 268/1293/268 267/1294/267 270/1295/270
f 67/1296/67 255/1297/255 68/1298/68
f 67/1299/67 184/898/184 255/897/255
f 37/84/37 38/89/38 196/1142/196
f 37/1300/37 196/578/196 195/577/195
f 221/1301/221 200/1302/200 101/1303/101
f 195/1304/195 194/1305/194 137/1306/137
f 243/1051/243 250/1307/250 266/1052/266
f 243/1308/243 244/1309/244 250/1310/250
f 7/1311/7 171/1312/171 274/1313/274
f 43/1314/43 153/1315/153 44/1316/44
f 251/1317/251 225/758/225 236/757/236
f 269/1111/269 84/1318/84 81/1112/81
f 178/1319/178 270/1320/270 267/1321/267
f 178/1322/178 267/1323/267 179/1324/179
f 190/1325/190 239/1326/239 119/1327/119
f 190/873/190 206/959/206 239/1328/239
f 95/1329/95 242/1330/242 50/1331/50
f 250/821/250 249/820/249 214/1332/214
f 250/1333/250 214/1055/214 266/1054/266
f 262/1334/262 96/1335/96 93/1336/93
f 145/1337/145 144/1338/144 220/1339/220
f 101/1340/101 200/1341/200 199/1342/199
