# www.meshy.ai
mtllib Meshy_AI__0917133945_texture.mtl
o Meshy_AI__0917133945_texture
v 0.242188 0.069336 0.031494
v 0.230469 0.414062 0.063477
v 0.225586 0.052979 0.062012
v 0.462891 0.067871 0.031738
v 0.462891 0.067383 -0.031982
v 0.247070 0.416016 0.033691
v 0.242188 0.068359 -0.031982
v 0.453125 0.054932 0.061279
v 0.246094 0.414062 -0.033203
v 0.455078 0.003891 -0.081543
v 0.480469 0.006989 -0.062256
v 0.472656 -0.012085 -0.062988
v 0.012695 -0.429688 -0.083984
v 0.196289 0.026978 -0.083008
v 0.445312 0.027954 -0.081055
v 0.470703 0.041992 -0.062500
v 0.480469 0.027954 -0.062012
v -0.229492 0.412109 0.063965
v -0.223633 0.053467 0.063477
v -0.207031 0.416016 0.084473
v -0.223633 0.435547 0.065430
v -0.247070 0.417969 0.033447
v -0.239258 0.068848 0.032227
v -0.195312 0.027954 0.084473
v -0.445312 0.028687 0.081055
v -0.451172 0.054443 0.061279
v 0.229492 0.433594 -0.067871
v 0.213867 0.425781 -0.086426
v 0.218750 0.451172 -0.068359
v 0.251953 0.417969 -0.035156
v 0.234375 0.412109 -0.068848
v 0.244141 0.443359 -0.035400
v 0.009155 -0.447266 0.086914
v 0.022461 -0.441406 0.085938
v 0.011108 -0.429688 0.092285
v 0.013733 -0.470703 0.066895
v 0.028320 -0.464844 0.066406
v -0.007294 -0.441406 0.089844
v -0.000444 -0.470703 0.067383
v -0.455078 0.076660 -0.033447
v -0.464844 0.055908 -0.066895
v -0.474609 0.068359 -0.034424
v -0.243164 0.071289 0.033691
v -0.245117 0.070801 -0.032715
v -0.453125 0.077148 0.035400
v -0.447266 0.061035 -0.066895
v -0.460938 -0.000311 0.087402
v -0.478516 -0.011414 0.067871
v -0.028442 -0.464844 0.066406
v -0.484375 0.003418 0.069336
v -0.022461 -0.441406 0.086914
v -0.447266 0.004333 0.093750
v -0.455078 0.032471 0.089355
v 0.217773 0.466797 -0.032471
v 0.189453 0.480469 0.032471
v 0.218750 0.468750 0.032471
v 0.238281 0.441406 -0.033203
v 0.209961 0.457031 -0.060791
v 0.190430 0.480469 -0.031494
v 0.494141 -0.015198 0.036621
v 0.486328 0.002396 0.068359
v 0.478516 -0.012390 0.066895
v 0.500000 0.002579 0.036377
v 0.494141 -0.014709 -0.036621
v 0.500000 0.002716 -0.037598
v 0.030151 -0.478516 0.035156
v -0.224609 0.052734 -0.062256
v -0.449219 0.024170 -0.080078
v -0.453125 0.053711 -0.059814
v -0.196289 0.027710 -0.083496
v -0.207031 0.416016 -0.083496
v -0.240234 0.068359 -0.030151
v -0.229492 0.414062 -0.062988
v -0.016968 -0.460938 -0.065430
v -0.027588 -0.458984 -0.062012
v -0.011230 -0.433594 -0.084961
v 0.001099 -0.445312 -0.079590
v -0.009338 -0.472656 -0.052002
v -0.029541 -0.474609 -0.032227
v 0.223633 0.435547 0.063965
v 0.208008 0.417969 0.084961
v 0.198242 0.030273 -0.091309
v 0.209961 0.412109 -0.088379
v 0.225586 0.056885 -0.068848
v -0.196289 0.030762 -0.091309
v 0.201172 0.410156 -0.093262
v 0.009766 -0.431641 -0.092773
v 0.435547 0.033936 -0.092285
v 0.451172 0.000694 -0.092285
v -0.239258 0.443359 0.032959
v -0.217773 0.468750 0.032959
v -0.239258 0.443359 -0.031738
v -0.247070 0.416016 -0.033203
v -0.490234 0.046143 -0.031494
v -0.462891 0.067383 -0.031738
v -0.470703 0.043945 -0.062256
v -0.480469 0.030518 -0.060547
v -0.498047 0.022095 -0.031128
v -0.460938 0.068359 0.032227
v -0.490234 0.046143 0.033203
v 0.186523 0.468750 0.070312
v -0.186523 0.466797 0.071289
v -0.186523 0.435547 0.092773
v 0.198242 0.437500 0.089844
v 0.202148 0.464844 0.070312
v 0.186523 0.437500 0.093262
v 0.188477 0.488281 0.036133
v 0.498047 0.011841 -0.031250
v 0.488281 -0.014648 -0.032959
v -0.208008 0.455078 0.063477
v -0.190430 0.458984 0.070801
v -0.013794 -0.470703 0.067383
v -0.000284 -0.488281 0.035400
v -0.015381 -0.484375 0.035645
v 0.494141 0.052490 -0.035645
v 0.500000 0.031982 -0.037109
v 0.480469 0.042236 -0.069336
v 0.474609 0.068848 -0.035889
v 0.492188 0.052734 0.035889
v 0.500000 0.032227 0.037842
v 0.470703 0.041504 0.063477
v 0.443359 0.029419 0.080566
v 0.482422 0.008911 0.061768
v 0.498047 0.010193 0.031494
v 0.455078 0.003571 0.079102
v 0.490234 0.044678 0.031250
v -0.229492 0.435547 -0.068359
v -0.251953 0.417969 -0.034424
v -0.242188 0.443359 -0.034424
v -0.217773 0.453125 -0.069336
v -0.211914 0.427734 -0.086914
v -0.233398 0.412109 -0.069336
v -0.488281 -0.014160 0.032959
v -0.480469 0.007629 0.062988
v -0.498047 0.010193 0.032227
v -0.472656 -0.009521 0.062988
v -0.029663 -0.474609 0.031982
v -0.488281 -0.014648 -0.031006
v 0.198242 0.439453 -0.089355
v 0.488281 0.024048 0.069824
v 0.482422 0.041504 0.068848
v 0.462891 0.016602 0.088379
v -0.191406 0.460938 -0.063477
v 0.191406 0.455078 -0.069336
v -0.192383 0.455078 -0.070312
v -0.208984 0.455078 -0.061523
v -0.190430 0.480469 -0.031494
v -0.480469 0.007507 -0.059814
v -0.470703 -0.009949 -0.061523
v 0.239258 0.443359 0.032471
v -0.000345 -0.490234 -0.036621
v -0.014954 -0.486328 -0.035645
v -0.001434 -0.472656 -0.068359
v 0.013977 -0.486328 0.035645
v 0.013855 -0.488281 -0.036377
v -0.478516 0.042480 0.068359
v -0.486328 0.025269 0.070312
v -0.474609 0.066895 0.036133
v -0.500000 0.034424 0.037598
v -0.462891 0.055420 0.068848
v -0.455078 0.003693 0.081543
v -0.478516 0.031494 0.062988
v 0.223633 0.435547 -0.063477
v 0.207031 0.417969 -0.083008
v 0.462891 -0.004730 0.086426
v -0.009827 -0.447266 -0.088867
v -0.015747 -0.472656 -0.067383
v -0.027954 -0.462891 -0.069336
v 0.005585 -0.445312 -0.090332
v -0.012268 -0.433594 -0.092773
v 0.472656 0.069336 0.036865
v 0.455078 0.075195 -0.034668
v 0.453125 0.075195 0.034180
v 0.464844 0.053955 0.069824
v 0.453125 0.053223 -0.060791
v 0.225586 0.052490 -0.062012
v -0.202148 0.462891 0.069824
v -0.188477 0.488281 0.035889
v -0.207031 0.482422 0.036133
v -0.217773 0.451172 0.069336
v -0.197266 0.437500 0.089355
v 0.447266 0.060303 0.067871
v 0.435547 0.033203 0.092285
v 0.449219 0.035645 0.087891
v 0.244141 0.071777 0.033691
v 0.224609 0.056396 0.070312
v 0.460938 0.015625 -0.088867
v 0.451172 0.034912 -0.087402
v 0.478516 -0.011414 -0.067871
v 0.486328 0.003067 -0.068848
v 0.488281 0.023926 -0.069824
v -0.189453 0.482422 0.032959
v 0.191406 0.457031 0.070312
v -0.217773 0.468750 -0.031006
v -0.433594 0.034424 0.092285
v -0.445312 0.061035 0.068848
v -0.223633 0.056641 0.069824
v -0.196289 0.031494 0.092773
v 0.228516 0.464844 -0.035156
v 0.208008 0.482422 0.036133
v 0.227539 0.466797 0.035400
v 0.208008 0.482422 -0.034668
v 0.009949 -0.466797 0.062988
v 0.027710 -0.472656 0.031982
v 0.025635 -0.457031 0.062500
v 0.000496 -0.445312 0.079102
v -0.014954 -0.464844 0.064941
v -0.008301 -0.480469 0.031494
v -0.449219 0.033936 -0.087891
v -0.480469 0.042236 -0.067383
v -0.435547 0.034912 -0.090820
v -0.027466 -0.457031 0.063477
v 0.229492 0.412109 -0.062988
v -0.203125 0.464844 -0.069336
v -0.187500 0.486328 -0.035156
v -0.186523 0.468750 -0.070801
v -0.207031 0.482422 -0.034912
v -0.188477 0.439453 -0.091797
v 0.208008 0.457031 0.062988
v 0.026001 -0.457031 -0.063965
v 0.029175 -0.474609 -0.032959
v 0.012878 -0.464844 -0.063965
v -0.498047 0.006378 -0.031494
v 0.218750 0.455078 0.069336
v 0.488281 -0.014832 0.032959
v 0.472656 -0.011780 0.062500
v -0.201172 0.410156 0.093262
v 0.204102 0.412109 0.092773
v -0.211914 0.416016 0.087891
v -0.014771 -0.480469 -0.032227
v 0.447266 0.060547 -0.068359
v 0.464844 0.054688 -0.069824
v 0.011353 -0.429688 0.085449
v 0.195312 0.027222 0.083496
v -0.012085 -0.433594 0.084473
v -0.251953 0.416016 0.034912
v -0.243164 0.443359 0.035645
v -0.500000 0.003830 0.037598
v 0.188477 0.486328 -0.035400
v 0.203125 0.462891 -0.069336
v 0.186523 0.468750 -0.070312
v 0.014221 -0.478516 -0.032959
v -0.204102 0.410156 -0.092773
v -0.224609 0.057373 -0.068359
v -0.031494 -0.474609 0.033936
v -0.031738 -0.476562 -0.035400
v -0.233398 0.410156 0.069336
v -0.230469 0.435547 0.069336
v -0.460938 -0.001953 -0.084473
v -0.486328 0.003876 -0.068359
v -0.462891 0.017212 -0.086914
v -0.478516 -0.012390 -0.066406
v -0.447266 0.004425 -0.091309
v -0.468750 0.043213 0.062500
v -0.494141 0.051758 -0.034912
v -0.500000 0.032471 -0.036377
v -0.494141 -0.015747 0.038574
v -0.494141 -0.016235 -0.035889
v 0.447266 0.002899 0.091797
v 0.243164 0.445312 0.035400
v 0.212891 0.423828 0.086914
v 0.030640 -0.478516 -0.036133
v 0.027588 -0.462891 -0.068848
v -0.010864 -0.427734 0.092773
v 0.197266 0.030762 0.092773
v 0.490234 0.044434 -0.032471
v -0.227539 0.466797 -0.035645
v -0.227539 0.468750 0.036133
v 0.234375 0.412109 0.069336
v 0.245117 0.071777 -0.033936
v 0.251953 0.416016 0.036133
v -0.223633 0.437500 -0.062988
v -0.500000 0.004364 -0.036377
v -0.488281 0.024780 -0.068848
v 0.013245 -0.470703 -0.069336
v 0.187500 0.437500 -0.092773
v 0.230469 0.433594 0.068848
vn 0.8332 0.5075 0.2197
vn 0.8261 -0.0044 0.5635
vn 0.5230 0.3064 0.7953
vn 0.1129 0.9821 0.1509
vn 0.1035 0.9886 -0.1095
vn 0.9859 0.0127 0.1668
vn 0.7988 0.4936 -0.3441
vn 0.0237 0.8155 0.5782
vn 0.9933 0.0119 -0.1146
vn 0.0707 -0.0534 -0.9961
vn 0.7888 -0.1736 -0.5896
vn 0.5555 -0.5493 -0.6242
vn 0.0534 -0.0488 -0.9974
vn 0.0196 0.0112 -0.9997
vn 0.0325 0.4759 -0.8789
vn 0.5149 0.5280 -0.6754
vn 0.7607 0.1917 -0.6202
vn -0.8276 -0.0093 0.5612
vn -0.5283 0.3180 0.7873
vn -0.0838 0.0297 0.9960
vn -0.6831 0.3962 0.6136
vn -0.9827 0.0041 0.1850
vn -0.8349 0.5013 0.2272
vn -0.0145 0.0067 0.9999
vn -0.0378 0.4642 0.8849
vn -0.0240 0.8173 0.5758
vn 0.7875 0.2968 -0.5402
vn 0.5905 0.2386 -0.7710
vn 0.6215 0.5547 -0.5533
vn 0.9865 0.0206 -0.1626
vn 0.8196 -0.0119 -0.5729
vn 0.8629 0.4813 -0.1545
vn 0.1233 -0.5508 0.8255
vn 0.3994 -0.4086 0.8207
vn 0.0383 -0.0380 0.9985
vn 0.1642 -0.7974 0.5807
vn 0.5763 -0.5904 0.5651
vn -0.1019 -0.5125 0.8526
vn -0.0105 -0.7394 0.6732
vn 0.0000 0.9942 -0.1071
vn -0.3498 0.7101 -0.6110
vn -0.5172 0.8444 -0.1397
vn -0.7046 0.6408 0.3047
vn -0.9056 0.3469 -0.2442
vn -0.0455 0.9873 0.1522
vn 0.0030 0.8574 -0.5146
vn -0.4691 -0.4392 0.7662
vn -0.6253 -0.6207 0.4731
vn -0.5760 -0.5878 0.5680
vn -0.7944 -0.2108 0.5697
vn -0.3755 -0.3818 0.8445
vn -0.0350 -0.0321 0.9989
vn -0.3803 0.3222 0.8669
vn 0.5633 0.8182 -0.1150
vn 0.0345 0.9910 0.1297
vn 0.6581 0.7400 0.1390
vn 0.8410 0.5159 -0.1629
vn 0.5157 0.6804 -0.5207
vn 0.0257 0.9489 -0.3145
vn 0.7169 -0.6863 0.1225
vn 0.7447 -0.2190 0.6304
vn 0.6351 -0.6294 0.4478
vn 0.9898 -0.0896 0.1105
vn 0.7107 -0.6991 -0.0786
vn 0.9793 -0.1599 -0.1238
vn 0.6976 -0.7074 0.1140
vn -0.5263 0.3194 -0.7880
vn -0.0739 0.0123 -0.9972
vn -0.0181 0.8009 -0.5985
vn -0.0140 0.0083 -0.9999
vn -0.0774 0.0518 -0.9957
vn -0.8058 0.4902 -0.3324
vn -0.8275 -0.0067 -0.5614
vn -0.2236 -0.7081 -0.6697
vn -0.5545 -0.5525 -0.6223
vn -0.1155 -0.1070 -0.9875
vn 0.0655 -0.5718 -0.8177
vn -0.0827 -0.8426 -0.5322
vn -0.6846 -0.6945 -0.2212
vn 0.6914 0.4095 0.5953
vn 0.0473 0.0298 0.9984
vn 0.0203 0.0114 -0.9997
vn 0.6112 -0.0119 -0.7913
vn 0.5255 0.3382 -0.7807
vn -0.0139 0.0078 -0.9999
vn 0.0056 -0.0022 -1.0000
vn 0.0302 -0.0284 -0.9991
vn 0.0041 0.4617 -0.8870
vn 0.1239 -0.1216 -0.9848
vn -0.8866 0.4433 0.1323
vn -0.6587 0.7341 0.1649
vn -0.8385 0.5304 -0.1251
vn -0.9940 0.0044 -0.1096
vn -0.7389 0.6606 -0.1328
vn -0.0623 0.9919 -0.1106
vn -0.4940 0.6134 -0.6162
vn -0.7528 0.1520 -0.6404
vn -0.9759 0.1996 -0.0876
vn -0.1449 0.9787 0.1451
vn -0.8511 0.4966 0.1703
vn 0.0045 0.6923 0.7216
vn -0.0081 0.7822 0.6230
vn -0.0071 0.3624 0.9320
vn 0.3235 0.4329 0.8414
vn 0.3011 0.7351 0.6074
vn 0.0052 0.3700 0.9290
vn 0.0165 0.9657 0.2590
vn 0.9884 0.0386 -0.1467
vn 0.7183 -0.6922 -0.0698
vn -0.4729 0.7081 0.5244
vn -0.0183 0.5298 0.8479
vn -0.1884 -0.7817 0.5945
vn -0.0483 -0.9692 0.2416
vn -0.3706 -0.9190 0.1344
vn 0.8502 0.5147 -0.1102
vn 0.9869 0.1119 -0.1166
vn 0.6362 0.4640 -0.6163
vn 0.5452 0.8260 -0.1427
vn 0.7576 0.6427 0.1135
vn 0.9737 0.1924 0.1218
vn 0.6478 0.3890 0.6550
vn 0.0337 0.4407 0.8970
vn 0.7691 -0.0502 0.6372
vn 0.9807 -0.0535 0.1879
vn 0.0736 -0.0526 0.9959
vn 0.8444 0.5232 0.1148
vn -0.7943 0.3034 -0.5264
vn -0.9847 0.0245 -0.1725
vn -0.8724 0.4678 -0.1417
vn -0.6045 0.5534 -0.5731
vn -0.5316 0.2458 -0.8106
vn -0.8079 -0.0141 -0.5891
vn -0.7121 -0.6839 0.1585
vn -0.7783 -0.1611 0.6069
vn -0.9821 -0.0850 0.1681
vn -0.6042 -0.5939 0.5312
vn -0.6918 -0.7067 0.1481
vn -0.7151 -0.6919 -0.0999
vn 0.3593 0.4231 -0.8318
vn 0.8361 0.0454 0.5467
vn 0.6288 0.4844 0.6082
vn 0.4469 0.0566 0.8928
vn -0.0055 0.8339 -0.5519
vn 0.0173 0.5520 -0.8337
vn -0.0333 0.4140 -0.9097
vn -0.4453 0.7226 -0.5288
vn -0.0189 0.9900 -0.1395
vn -0.7010 -0.1960 -0.6856
vn -0.5214 -0.5043 -0.6883
vn 0.8976 0.4254 0.1158
vn -0.0687 -0.9947 -0.0766
vn -0.4012 -0.9094 -0.1098
vn -0.0133 -0.7975 -0.6032
vn 0.2755 -0.9481 0.1588
vn 0.3496 -0.9260 -0.1424
vn -0.6592 0.5386 0.5247
vn -0.7609 0.0863 0.6431
vn -0.7106 0.6890 0.1427
vn -0.9458 0.3022 0.1188
vn -0.3909 0.7264 0.5653
vn -0.1230 -0.1061 0.9867
vn -0.7426 0.2134 0.6348
vn 0.6878 0.3472 -0.6375
vn 0.0477 0.0171 -0.9987
vn 0.4191 -0.4129 0.8087
vn -0.1995 -0.5410 -0.8170
vn -0.3218 -0.7825 -0.5331
vn -0.5146 -0.5145 -0.6859
vn 0.1782 -0.4886 -0.8541
vn -0.0690 -0.0654 -0.9955
vn 0.4616 0.8720 0.1630
vn 0.0339 0.9892 -0.1424
vn 0.0039 0.9952 0.0973
vn 0.3241 0.7448 0.5833
vn 0.0229 0.8128 -0.5821
vn 0.5131 0.3151 -0.7984
vn -0.3275 0.6991 0.6356
vn -0.0149 0.9946 0.1027
vn -0.4980 0.8506 0.1689
vn -0.5875 0.5383 0.6042
vn -0.4022 0.3715 0.8368
vn 0.0026 0.8502 0.5264
vn 0.0084 0.4725 0.8813
vn 0.3001 0.4650 0.8329
vn 0.8097 0.4815 0.3356
vn 0.5358 0.3272 0.7783
vn 0.4795 0.0280 -0.8771
vn 0.3117 0.4468 -0.8386
vn 0.6047 -0.5955 -0.5289
vn 0.7653 -0.2549 -0.5911
vn 0.8216 0.0810 -0.5643
vn -0.0339 0.9551 0.2943
vn 0.0224 0.7207 0.6929
vn -0.5721 0.8040 -0.1622
vn -0.0040 0.4964 0.8681
vn 0.0007 0.8445 0.5355
vn -0.5397 0.3475 0.7668
vn -0.0159 0.0087 0.9998
vn 0.7023 0.7010 -0.1239
vn 0.5281 0.8364 0.1468
vn 0.7462 0.6588 0.0961
vn 0.4432 0.8783 -0.1796
vn 0.1870 -0.8295 0.5262
vn 0.6845 -0.7145 0.1448
vn 0.5485 -0.5597 0.6212
vn 0.1188 -0.5221 0.8446
vn -0.2020 -0.7621 0.6151
vn 0.0328 -0.9898 0.1389
vn -0.3322 0.3414 -0.8792
vn -0.6230 0.4864 -0.6126
vn -0.0076 0.4909 -0.8712
vn -0.5288 -0.5292 0.6635
vn 0.8192 -0.0027 -0.5735
vn -0.3287 0.7341 -0.5941
vn -0.0135 0.9827 -0.1848
vn -0.0045 0.7661 -0.6428
vn -0.4225 0.8907 -0.1677
vn -0.0246 0.2629 -0.9645
vn 0.4420 0.7156 0.5410
vn 0.5322 -0.5407 -0.6514
vn 0.6866 -0.7005 -0.1948
vn 0.1591 -0.7978 -0.5816
vn -0.9472 -0.2136 -0.2393
vn 0.6175 0.5447 0.5675
vn 0.7118 -0.6883 0.1402
vn 0.5588 -0.5541 0.6171
vn -0.0122 0.0005 0.9999
vn 0.0508 -0.0013 0.9987
vn -0.6159 0.0062 0.7878
vn -0.1392 -0.9880 -0.0665
vn 0.0014 0.8494 -0.5278
vn 0.3403 0.7386 -0.5819
vn 0.0568 -0.0514 0.9971
vn 0.0239 0.0090 0.9997
vn -0.0730 -0.0685 0.9950
vn -0.9920 -0.0062 0.1258
vn -0.8975 0.4184 0.1392
vn -0.9798 -0.1449 0.1376
vn 0.0078 0.9831 -0.1827
vn 0.3611 0.7328 -0.5767
vn 0.0151 0.7601 -0.6496
vn 0.1591 -0.9834 -0.0873
vn -0.0946 -0.0030 -0.9955
vn -0.5347 0.3248 -0.7801
vn -0.6960 -0.7081 0.1193
vn -0.6902 -0.7012 -0.1788
vn -0.8310 -0.0175 0.5560
vn -0.7745 0.2772 0.5687
vn -0.4230 -0.4100 -0.8081
vn -0.7635 -0.2319 -0.6028
vn -0.4798 0.0876 -0.8730
vn -0.6204 -0.6143 -0.4876
vn -0.0859 -0.0802 -0.9931
vn -0.4868 0.5521 0.6769
vn -0.8105 0.5784 -0.0919
vn -0.9416 0.3269 -0.0803
vn -0.7086 -0.6914 0.1409
vn -0.7150 -0.6955 -0.0704
vn 0.0243 -0.0201 0.9995
vn 0.9028 0.4041 0.1469
vn 0.5689 0.2105 0.7950
vn 0.6895 -0.6990 -0.1898
vn 0.5152 -0.5197 -0.6815
vn -0.0058 -0.0081 1.0000
vn 0.0190 0.0096 0.9998
vn 0.8296 0.5262 -0.1868
vn -0.6972 0.7055 -0.1273
vn -0.7611 0.6371 0.1222
vn 0.8097 -0.0154 0.5867
vn 0.8411 0.4932 -0.2219
vn 0.9935 -0.0040 0.1137
vn -0.6841 0.4063 -0.6057
vn -0.9903 -0.0851 -0.1095
vn -0.8260 0.0973 -0.5552
vn 0.2969 -0.7585 -0.5801
vn 0.0042 0.4461 -0.8950
vn 0.7923 0.2762 0.5440
vt 0.151535 0.936712
vt 0.158354 0.858765
vt 0.159419 0.940327
vt 0.880550 0.086028
vt 0.903641 0.171844
vt 0.878858 0.178485
vt 0.755400 0.595174
vt 0.765193 0.694186
vt 0.755400 0.694579
vt 0.058183 0.325359
vt 0.058183 0.221839
vt 0.085684 0.317447
vt 0.915186 0.164715
vt 0.961485 0.722611
vt 0.948157 0.728826
vt 0.949694 0.641694
vt 0.662360 0.888256
vt 0.662360 0.871966
vt 0.751068 0.873017
vt 0.784227 0.691614
vt 0.851410 0.109386
vt 0.814318 0.066100
vt 0.849538 0.055785
vt 0.237237 0.759604
vt 0.116119 0.759604
vt 0.204258 0.720961
vt 0.464178 0.588626
vt 0.464747 0.595120
vt 0.330306 0.593893
vt 0.871834 0.938216
vt 0.901150 0.903278
vt 0.951488 0.936788
vt 0.783623 0.087308
vt 0.388778 0.897751
vt 0.472908 0.897751
vt 0.457665 0.925571
vt 0.797850 0.112806
vt 0.797850 0.209759
vt 0.789227 0.117232
vt 0.165471 0.848421
vt 0.165471 0.929263
vt 0.158607 0.847618
vt 0.591425 0.500748
vt 0.549866 0.515874
vt 0.569850 0.439181
vt 0.133720 0.028196
vt 0.130394 0.019058
vt 0.224042 0.002394
vt 0.591477 0.556781
vt 0.926483 0.332444
vt 0.918777 0.244371
vt 0.927765 0.240499
vt 0.052220 0.434715
vt 0.061359 0.428316
vt 0.057408 0.527767
vt 0.271942 0.042967
vt 0.356712 0.023396
vt 0.266206 0.058886
vt 0.974792 0.612215
vt 0.974792 0.527613
vt 0.986844 0.529904
vt 0.437979 0.849083
vt 0.431706 0.862535
vt 0.349502 0.848722
vt 0.646445 0.693865
vt 0.682935 0.724484
vt 0.623980 0.725153
vt 0.628956 0.616089
vt 0.678595 0.668064
vt 0.687602 0.091630
vt 0.648728 0.091630
vt 0.687744 0.021949
vt 0.737436 0.028465
vt 0.650000 0.261509
vt 0.683387 0.264243
vt 0.666377 0.300720
vt 0.646814 0.189942
vt 0.682855 0.192825
vt 0.615550 0.283189
vt 0.614947 0.196875
vt 0.813294 0.142459
vt 0.867676 0.142459
vt 0.827079 0.192694
vt 0.591594 0.759632
vt 0.525911 0.725676
vt 0.591594 0.720899
vt 0.866131 0.842509
vt 0.817360 0.909637
vt 0.803228 0.889268
vt 0.941179 0.260035
vt 0.966482 0.256094
vt 0.980043 0.333002
vt 0.245952 0.074392
vt 0.255921 0.101782
vt 0.154983 0.099981
vt 0.522800 0.758915
vt 0.413612 0.952236
vt 0.491991 0.952236
vt 0.416645 0.965987
vt 0.478248 0.459422
vt 0.484083 0.458393
vt 0.486417 0.591077
vt 0.669291 0.396711
vt 0.640987 0.350985
vt 0.669291 0.345278
vt 0.408360 0.392716
vt 0.279171 0.392716
vt 0.407043 0.389717
vt 0.087149 0.168025
vt 0.061253 0.153371
vt 0.089107 0.105125
vt 0.425369 0.648601
vt 0.293460 0.648601
vt 0.296316 0.642666
vt 0.848243 0.251505
vt 0.886235 0.307975
vt 0.856773 0.312200
vt 0.324375 0.183173
vt 0.233754 0.172046
vt 0.331617 0.137877
vt 0.314541 0.818303
vt 0.292840 0.837843
vt 0.294078 0.797965
vt 0.334621 0.753272
vt 0.521540 0.386149
vt 0.557740 0.336323
vt 0.572201 0.415208
vt 0.268328 0.573808
vt 0.240001 0.517802
vt 0.268328 0.516011
vt 0.776629 0.175808
vt 0.759464 0.178235
vt 0.759464 0.146023
vt 0.731094 0.488634
vt 0.761432 0.395263
vt 0.785312 0.401482
vt 0.331693 0.542736
vt 0.466226 0.554506
vt 0.330341 0.557760
vt 0.768052 0.246203
vt 0.334133 0.536132
vt 0.996874 0.372062
vt 0.996874 0.456812
vt 0.983438 0.456274
vt 0.508443 0.674206
vt 0.520835 0.663808
vt 0.519734 0.758201
vt 0.598874 0.747150
vt 0.691859 0.755285
vt 0.592341 0.756132
vt 0.613815 0.921065
vt 0.528538 0.921065
vt 0.607832 0.907809
vt 0.890564 0.282185
vt 0.899947 0.285600
vt 0.896807 0.374554
vt 0.673423 0.494341
vt 0.771851 0.494341
vt 0.772312 0.502630
vt 0.482162 0.975811
vt 0.491068 0.994911
vt 0.420593 0.991057
vt 0.996728 0.764694
vt 0.974893 0.811520
vt 0.973994 0.736688
vt 0.976814 0.857198
vt 0.995249 0.915821
vt 0.964704 0.905769
vt 0.774073 0.736092
vt 0.793870 0.699092
vt 0.853388 0.713931
vt 0.791815 0.753012
vt 0.565402 0.932911
vt 0.612286 0.932911
vt 0.588262 0.993894
vt 0.646619 0.128417
vt 0.657036 0.187496
vt 0.607088 0.130893
vt 0.878425 0.577105
vt 0.886341 0.575709
vt 0.883656 0.669621
vt 0.710642 0.928181
vt 0.624542 0.928181
vt 0.704420 0.920380
vt 0.465519 0.872552
vt 0.465519 0.783633
vt 0.551139 0.873106
vt 0.088869 0.168236
vt 0.190788 0.201351
vt 0.094967 0.252764
vt 0.794828 0.431820
vt 0.794828 0.529303
vt 0.792250 0.529815
vt 0.831512 0.603875
vt 0.866116 0.685397
vt 0.856819 0.695469
vt 0.141105 0.444340
vt 0.102961 0.476346
vt 0.100693 0.355557
vt 0.923733 0.341682
vt 0.909685 0.331845
vt 0.917866 0.249939
vt 0.439230 0.101902
vt 0.406010 0.113993
vt 0.425036 0.073345
vt 0.445652 0.126554
vt 0.001227 0.651597
vt 0.001227 0.590572
vt 0.028051 0.589190
vt 0.494777 0.074292
vt 0.507670 0.111032
vt 0.951522 0.937421
vt 0.932014 0.997460
vt 0.885225 0.943281
vt 0.857472 0.937109
vt 0.838090 0.996763
vt 0.811382 0.938227
vt 0.649966 0.127005
vt 0.553971 0.095814
vt 0.640430 0.080466
vt 0.056739 0.848630
vt 0.143664 0.848630
vt 0.129718 0.885848
vt 0.621939 0.482945
vt 0.583087 0.405094
vt 0.627917 0.384189
vt 0.591293 0.497688
vt 0.483785 0.890710
vt 0.573205 0.890710
vt 0.573257 0.899800
vt 0.278535 0.700555
vt 0.218823 0.679597
vt 0.273958 0.674599
vt 0.358307 0.041066
vt 0.266630 0.060337
vt 0.355315 0.031859
vt 0.215100 0.699224
vt 0.342699 0.693964
vt 0.878198 0.596598
vt 0.868394 0.597456
vt 0.875142 0.503503
vt 0.694129 0.652574
vt 0.754634 0.652243
vt 0.738362 0.696950
vt 0.699050 0.617651
vt 0.824837 0.000659
vt 0.726655 0.334016
vt 0.703249 0.330524
vt 0.701530 0.297709
vt 0.872258 0.936295
vt 0.807197 0.936295
vt 0.859769 0.853710
vt 0.514821 0.248374
vt 0.462640 0.292262
vt 0.475610 0.262646
vt 0.751166 0.048691
vt 0.777174 0.145755
vt 0.711416 0.063377
vt 0.931415 0.729744
vt 0.891473 0.814190
vt 0.899492 0.726951
vt 0.928883 0.812749
vt 0.786817 0.045563
vt 0.969355 0.729106
vt 0.949620 0.065805
vt 0.921902 0.030329
vt 0.999854 0.004116
vt 0.802714 0.632423
vt 0.830072 0.612547
vt 0.859578 0.708503
vt 0.183931 0.124545
vt 0.277196 0.099554
vt 0.287044 0.127604
vt 0.994747 0.094823
vt 0.712421 0.712679
vt 0.652773 0.630582
vt 0.731376 0.691563
vt 0.049579 0.585370
vt 0.111956 0.600862
vt 0.062872 0.616686
vt 0.195154 0.959476
vt 0.166219 0.919650
vt 0.236103 0.895143
vt 0.595205 0.496793
vt 0.618151 0.519263
vt 0.600041 0.545126
vt 0.000106 0.724268
vt 0.058099 0.660760
vt 0.068041 0.724268
vt 0.094472 0.548842
vt 0.002563 0.656852
vt 0.061435 0.505979
vt 0.176177 0.415330
vt 0.204101 0.481971
vt 0.160541 0.473685
vt 0.143442 0.404529
vt 0.176631 0.774425
vt 0.168498 0.820550
vt 0.117455 0.773219
vt 0.214865 0.417720
vt 0.187873 0.373367
vt 0.274206 0.995880
vt 0.238382 0.946573
vt 0.294177 0.958714
vt 0.548029 0.239216
vt 0.488199 0.253895
vt 0.482298 0.220431
vt 0.465049 0.530356
vt 0.330140 0.535031
vt 0.463212 0.523500
vt 0.465418 0.543637
vt 0.951941 0.899802
vt 0.917101 0.899802
vt 0.950173 0.814917
vt 0.838426 0.551296
vt 0.808820 0.558459
vt 0.804338 0.494366
vt 0.920269 0.377185
vt 0.928292 0.377185
vt 0.926531 0.468347
vt 0.853406 0.567048
vt 0.801145 0.602292
vt 0.930477 0.531314
vt 0.919908 0.491870
vt 0.999587 0.512712
vt 0.548793 0.188930
vt 0.599457 0.209400
vt 0.544378 0.225507
vt 0.485854 0.219707
vt 0.542753 0.128033
vt 0.525502 0.093756
vt 0.552778 0.097180
vt 0.653048 0.092585
vt 0.706660 0.092585
vt 0.657650 0.120428
vt 0.267340 0.063408
vt 0.358266 0.042416
vt 0.267649 0.065593
vt 0.089644 0.196105
vt 0.089644 0.210925
vt 0.059944 0.202998
vt 0.887690 0.574737
vt 0.878589 0.573941
vt 0.884267 0.481295
vt 0.799080 0.163128
vt 0.816347 0.161617
vt 0.798665 0.198001
vt 0.900648 0.381527
vt 0.900648 0.289346
vt 0.911568 0.290181
vt 0.143567 0.576539
vt 0.177992 0.612258
vt 0.136800 0.700594
vt 0.058792 0.851180
vt 0.127026 0.898107
vt 0.095521 0.917440
vt 0.998743 0.345568
vt 0.925537 0.369354
vt 0.930894 0.326255
vt 0.052681 0.930749
vt 0.134982 0.577967
vt 0.538286 0.670673
vt 0.498259 0.606216
vt 0.532207 0.601188
vt 0.607487 0.194148
vt 0.886315 0.444094
vt 0.848667 0.431861
vt 0.879093 0.343892
vt 0.550434 0.188554
vt 0.714950 0.300664
vt 0.683585 0.204131
vt 0.723280 0.208710
vt 0.928297 0.088643
vt 0.928297 0.180029
vt 0.882910 0.088018
vt 0.924983 0.182975
vt 0.956943 0.175596
vt 0.950031 0.257444
vt 0.673448 0.495346
vt 0.774305 0.507282
vt 0.767778 0.525995
vt 0.839025 0.242483
vt 0.898283 0.174314
vt 0.866443 0.265307
vt 0.761586 0.546553
vt 0.723751 0.195609
vt 0.704316 0.192182
vt 0.719347 0.094144
vt 0.538094 0.129652
vt 0.436161 0.129652
vt 0.532273 0.109621
vt 0.150897 0.097223
vt 0.153729 0.132960
vt 0.278752 0.365420
vt 0.234077 0.301617
vt 0.313158 0.300368
vt 0.240319 0.371515
vt 0.294048 0.579209
vt 0.263768 0.628382
vt 0.259098 0.573047
vt 0.314826 0.370570
vt 0.436322 0.254367
vt 0.458733 0.184257
vt 0.534833 0.183795
vt 0.870947 0.000056
vt 0.928145 0.057320
vt 0.871017 0.090302
vt 0.686728 0.725144
vt 0.683233 0.715543
vt 0.782693 0.717768
vt 0.266671 0.076211
vt 0.914241 0.004782
vt 0.998249 0.822920
vt 0.998249 0.896919
vt 0.967425 0.835558
vt 0.182167 0.482023
vt 0.182167 0.603177
vt 0.178747 0.482061
vt 0.187735 0.479609
vt 0.796937 0.892230
vt 0.789092 0.869765
vt 0.866037 0.840228
vt 0.875333 0.978862
vt 0.984063 0.637960
vt 0.984063 0.554872
vt 0.995746 0.634413
vt 0.974037 0.713137
vt 0.947215 0.630587
vt 0.970491 0.630124
vt 0.504251 0.724183
vt 0.442297 0.734814
vt 0.449588 0.706422
vt 0.589330 0.274309
vt 0.614728 0.274952
vt 0.608325 0.334595
vt 0.452442 0.759504
vt 0.540244 0.242892
vt 0.610565 0.249770
vt 0.707429 0.164651
vt 0.712740 0.125752
vt 0.853582 0.434787
vt 0.853582 0.531391
vt 0.826378 0.529020
vt 0.008276 0.589587
vt 0.008276 0.559833
vt 0.015954 0.586482
vt 0.651722 0.152893
vt 0.253699 0.016768
vt 0.253699 0.051380
vt 0.155690 0.022938
vt 0.701981 0.195653
vt 0.134660 0.636775
vt 0.124201 0.696091
vt 0.098051 0.628332
vt 0.986558 0.516957
vt 0.998803 0.519116
vt 0.992329 0.601670
vt 0.383796 0.897111
vt 0.457108 0.928230
vt 0.377319 0.907826
vt 0.132506 0.577004
vt 0.254013 0.877339
vt 0.342150 0.877339
vt 0.335638 0.890455
vt 0.432702 0.398177
vt 0.427970 0.424656
vt 0.360068 0.412683
vt 0.371372 0.375820
vt 0.449075 0.370109
vt 0.491017 0.426458
vt 0.485655 0.408201
vt 0.125907 0.161522
vt 0.156181 0.132402
vt 0.161116 0.150082
vt 0.295568 0.448063
vt 0.302273 0.446267
vt 0.291531 0.577963
vt 0.287833 0.449176
vt 0.658268 0.871662
vt 0.661350 0.886777
vt 0.656043 0.884281
vt 0.650884 0.873315
vt 0.656197 0.856787
vt 0.339053 0.026472
vt 0.260224 0.031784
vt 0.254427 0.015855
vt 0.336046 0.012111
vt 0.740333 0.858798
vt 0.064354 0.992184
vt 0.049529 0.957143
vt 0.109485 0.942195
vt 0.216065 0.452085
vt 0.216065 0.380727
vt 0.248852 0.444362
vt 0.546112 0.319329
vt 0.488001 0.340131
vt 0.477970 0.312570
vt 0.020752 0.958178
vt 0.617855 0.927962
vt 0.682916 0.956690
vt 0.654378 0.980123
vt 0.228083 0.509228
vt 0.617437 0.992280
vt 0.149548 0.847838
vt 0.057203 0.847838
vt 0.149763 0.832122
vt 0.848498 0.259035
vt 0.848498 0.354796
vt 0.837519 0.353004
vt 0.810306 0.256858
vt 0.825767 0.192374
vt 0.401888 0.249922
vt 0.672134 0.301680
vt 0.693452 0.237917
vt 0.893705 0.382313
vt 0.904377 0.382313
vt 0.902516 0.473820
vt 0.228036 0.641531
vt 0.226983 0.576225
vt 0.135891 0.932808
vt 0.142771 0.854167
vt 0.149319 0.936343
vt 0.050209 0.091944
vt 0.248888 0.053989
vt 0.157711 0.039789
vt 0.170372 0.028478
vt 0.252183 0.066423
vt 0.672925 0.496397
vt 0.731921 0.537509
vt 0.712062 0.550265
vt 0.331363 0.221540
vt 0.232235 0.218079
vt 0.334145 0.184315
vt 0.085613 0.499838
vt 0.060167 0.498488
vt 0.062498 0.431746
vt 0.085719 0.534938
vt 0.637627 0.022312
vt 0.732810 0.392517
vt 0.650329 0.436938
vt 0.696719 0.361143
vt 0.301812 0.277102
vt 0.264270 0.223487
vt 0.330040 0.226893
vt 0.727469 0.492972
vt 0.697254 0.800126
vt 0.731618 0.750765
vt 0.788286 0.820744
vt 0.264700 0.297798
vt 0.568085 0.857772
vt 0.643476 0.851176
vt 0.576370 0.903011
vt 0.657558 0.823514
vt 0.521480 0.688073
vt 0.575123 0.817837
vt 0.465321 0.601695
vt 0.331751 0.601695
vt 0.334393 0.594670
vt 0.273656 0.574897
vt 0.273656 0.443780
vt 0.279599 0.574265
vt 0.605164 0.379895
vt 0.549748 0.617729
vt 0.591595 0.600733
vt 0.591595 0.658030
vt 0.572382 0.539850
vt 0.595859 0.298573
vt 0.914223 0.536270
vt 0.962607 0.536270
vt 0.915820 0.622236
vt 0.592141 0.730570
vt 0.629127 0.746508
vt 0.592141 0.746495
vt 0.616396 0.668409
vt 0.585702 0.667873
vt 0.630459 0.606408
vt 0.608112 0.728272
vt 0.628192 0.728000
vt 0.641961 0.679860
vt 0.361074 0.168114
vt 0.468810 0.168114
vt 0.467442 0.173128
vt 0.421619 0.340401
vt 0.548093 0.342247
vt 0.484183 0.402966
vt 0.150436 0.847883
vt 0.201896 0.777054
vt 0.276117 0.833625
vt 0.359149 0.016792
vt 0.443476 0.016792
vt 0.404222 0.114959
vt 0.187241 0.312815
vt 0.124262 0.287970
vt 0.116238 0.242460
vt 0.230557 0.245209
vt 0.560438 0.128950
vt 0.484818 0.449193
vt 0.482576 0.456326
vt 0.355393 0.445199
vt 0.487111 0.442210
vt 0.889361 0.713946
vt 0.889361 0.802990
vt 0.851944 0.720599
vt 0.755749 0.942526
vt 0.774407 0.963447
vt 0.736695 0.997403
vt 0.907830 0.901255
vt 0.959762 0.941389
vt 0.980578 0.256624
vt 0.628525 0.904630
vt 0.714736 0.904630
vt 0.706969 0.919702
vt 0.224881 0.509908
vt 0.242957 0.930913
vt 0.263038 0.879904
vt 0.338568 0.904445
vt 0.326510 0.939884
vt 0.188628 0.102700
vt 0.255411 0.102700
vt 0.188628 0.121934
vt 0.731328 0.579323
vt 0.334349 0.654574
vt 0.262401 0.645230
vt 0.151959 0.103229
vt 0.332006 0.492692
vt 0.465246 0.504349
vt 0.330816 0.506216
vt 0.332781 0.143706
vt 0.385230 0.107216
vt 0.389487 0.145686
vt 0.334410 0.486212
vt 0.623372 0.553867
vt 0.598727 0.609718
vt 0.795804 0.559677
vt 0.795804 0.462534
vt 0.801874 0.556137
vt 0.251390 0.839718
vt 0.254408 0.899373
vt 0.231950 0.893127
vt 0.224179 0.840636
vt 0.271724 0.825171
vt 0.271150 0.828128
vt 0.204133 0.773056
vt 0.326912 0.752387
vt 0.464745 0.518699
vt 0.330308 0.518699
vt 0.463486 0.505531
vt 0.817637 0.776389
vt 0.750966 0.720901
vt 0.535822 0.838596
vt 0.589367 0.764897
vt 0.564331 0.849439
vt 0.890123 0.760016
vt 0.890123 0.671623
vt 0.911998 0.671584
vt 0.152130 0.448799
vt 0.161804 0.505734
vt 0.129536 0.497251
vt 0.097660 0.480790
vt 0.053609 0.900799
vt 0.125861 0.164989
vt 0.226486 0.132294
vt 0.220891 0.216015
vt 0.684043 0.968224
vt 0.750585 0.946603
vt 0.735358 0.997364
vt 0.218168 0.222646
vt 0.330275 0.455345
vt 0.464273 0.455345
vt 0.427679 0.498214
vt 0.345934 0.174201
vt 0.454167 0.174201
vt 0.347246 0.179156
vt 0.224030 0.493909
vt 0.224030 0.622194
vt 0.218171 0.621508
vt 0.160763 0.481212
vt 0.168017 0.479268
vt 0.170578 0.602490
vt 0.060577 0.422295
vt 0.058168 0.355834
vt 0.085698 0.354872
vt 0.710443 0.931482
vt 0.781228 0.931482
vt 0.719625 0.955443
vt 0.684880 0.775559
vt 0.681139 0.785783
vt 0.592163 0.756873
vt 0.687999 0.756925
vt 0.604308 0.365896
vt 0.616317 0.292160
vt 0.148717 0.936925
vt 0.130527 0.992908
vt 0.089041 0.966501
vt 0.335661 0.754405
vt 0.326362 0.845561
vt 0.309106 0.844052
vt 0.437346 0.290446
vt 0.376909 0.327806
vt 0.374429 0.299289
vt 0.405346 0.164426
vt 0.409194 0.146023
vt 0.445720 0.155811
vt 0.339742 0.148544
vt 0.336023 0.846302
vt 0.684461 0.841776
vt 0.675419 0.839195
vt 0.695581 0.751864
vt 0.848001 0.355437
vt 0.848001 0.451226
vt 0.830445 0.358759
vt 0.485472 0.590967
vt 0.472125 0.590967
vt 0.472839 0.457493
vt 0.456626 0.848667
vt 0.472303 0.896916
vt 0.378277 0.896247
vt 0.174422 0.477268
vt 0.906832 0.430486
vt 0.906832 0.338822
vt 0.927595 0.343465
vt 0.787654 0.309338
vt 0.787654 0.212116
vt 0.796900 0.219059
vt 0.786589 0.402982
vt 0.793926 0.406404
vt 0.791856 0.501611
vt 0.816849 0.782158
vt 0.890745 0.835846
vt 0.768013 0.852370
vt 0.215973 0.356495
vt 0.832090 0.470756
vt 0.832090 0.374272
vt 0.842317 0.470384
vt 0.081953 0.746336
vt 0.081320 0.819896
vt 0.979278 0.247008
vt 0.760493 0.393754
vt 0.729663 0.488639
vt 0.733764 0.393239
vt 0.998793 0.171632
vt 0.253279 0.068012
vt 0.155101 0.068012
vt 0.156952 0.042033
vt 0.934732 0.446475
vt 0.999830 0.460786
vt 0.443106 0.746662
vt 0.372028 0.759656
vt 0.367958 0.713130
vt 0.507554 0.769579
vt 0.507554 0.675650
vt 0.518191 0.767888
vt 0.081889 0.319755
vt 0.612902 0.005788
vt 0.703100 0.005788
vt 0.699715 0.022480
vt 0.267149 0.758975
vt 0.215661 0.732740
vt 0.276734 0.723618
vt 0.327806 0.168121
vt 0.364050 0.191039
vt 0.351190 0.219751
vt 0.298264 0.756114
vt 0.417419 0.306588
vt 0.541466 0.306588
vt 0.416636 0.311880
vt 0.418311 0.303465
vt 0.436857 0.130330
vt 0.542951 0.130330
vt 0.450822 0.166995
vt 0.804078 0.329192
vt 0.804078 0.378427
vt 0.745844 0.343660
vt 0.557790 0.027948
vt 0.741102 0.310501
vt 0.902485 0.508042
vt 0.902485 0.598470
vt 0.892568 0.508661
vt 0.331205 0.602310
vt 0.464353 0.602310
vt 0.367105 0.645040
vt 0.286280 0.393464
vt 0.416900 0.393464
vt 0.415381 0.400579
vt 0.934931 0.098422
vt 0.998437 0.157425
vt 0.971086 0.166421
vt 0.787565 0.211299
vt 0.787565 0.114294
vt 0.796483 0.206822
vt 0.985507 0.096073
vt 0.742758 0.569285
vt 0.356591 0.798802
vt 0.446643 0.790924
vt 0.354741 0.839451
vt 0.445961 0.753684
vt 0.351944 0.762396
vt 0.539073 0.035797
vt 0.442250 0.000079
vt 0.539073 0.000622
vt 0.586604 0.674422
vt 0.571817 0.640671
vt 0.538768 0.063525
vt 0.464748 0.561954
vt 0.330257 0.577208
vt 0.462369 0.555419
vt 0.659090 0.285772
vt 0.292917 0.140186
vt 0.284526 0.114360
vt 0.385570 0.105772
vt 0.344261 0.994260
vt 0.295448 0.958795
vt 0.352205 0.962348
vt 0.466310 0.577343
vt 0.889210 0.713106
vt 0.881613 0.711070
vt 0.888599 0.619050
vt 0.493988 0.404677
vt 0.463900 0.662418
vt 0.526419 0.653632
vt 0.482181 0.699408
vt 0.502679 0.637796
vt 0.397862 0.670156
vt 0.695088 0.741831
vt 0.572915 0.888862
vt 0.483622 0.888862
vt 0.562159 0.875903
vt 0.445697 0.173114
vt 0.337241 0.173114
vt 0.338780 0.168632
vt 0.868371 0.692465
vt 0.868371 0.598298
vt 0.879231 0.603834
vt 0.116045 0.712411
vt 0.213933 0.715829
vt 0.101059 0.759573
vt 0.154441 0.032592
vt 0.137638 0.095300
vt 0.108271 0.025851
vt 0.554191 0.130453
vt 0.552901 0.167376
vt 0.454391 0.166933
vt 0.498663 0.635260
vt 0.492251 0.636977
vt 0.493950 0.509918
vt 0.895966 0.417086
vt 0.903583 0.504141
vt 0.892985 0.507699
vt 0.438303 0.016085
vt 0.358598 0.016085
vt 0.439484 0.009660
vt 0.320145 0.749002
vt 0.501480 0.545563
vt 0.541115 0.544874
vt 0.485278 0.304229
vt 0.513400 0.257526
vt 0.524313 0.288457
vt 0.461506 0.295342
vt 0.710979 0.930665
vt 0.719935 0.879876
vt 0.797350 0.930550
vt 0.325305 0.590008
vt 0.325305 0.456938
vt 0.332444 0.459147
vt 0.370309 0.299686
vt 0.245542 0.299686
vt 0.368198 0.292439
vt 0.285479 0.378866
vt 0.283703 0.372238
vt 0.411905 0.370755
vt 0.421077 0.338312
vt 0.866919 0.207372
vt 0.685417 0.521640
vt 0.685417 0.629799
vt 0.608374 0.594999
vt 0.802814 0.327571
vt 0.798763 0.326097
vt 0.803963 0.229218
vt 0.820417 0.237652
vt 0.412870 0.423068
vt 0.313323 0.459300
vt 0.281728 0.415510
vt 0.215109 0.568936
vt 0.215109 0.441376
vt 0.219016 0.569224
vt 0.313659 0.957550
vt 0.361793 0.899797
vt 0.398451 0.965928
vt 0.796919 0.046765
vt 0.705353 0.017014
vt 0.788238 0.000181
vt 0.486428 0.465785
vt 0.484729 0.455721
vt 0.548082 0.402562
vt 0.547684 0.529291
vt 0.785608 0.210019
vt 0.786857 0.309920
vt 0.777327 0.304663
vt 0.771952 0.220647
vt 0.712078 0.553055
vt 0.686206 0.556469
vt 0.686206 0.520957
vt 0.029690 0.588690
vt 0.029690 0.655877
vt 0.001103 0.656136
vt 0.696479 0.623415
vt 0.919395 0.815104
vt 0.287392 0.677169
vt 0.289195 0.670439
vt 0.414779 0.677366
vt 0.129019 0.415233
vt 0.189263 0.353647
vt 0.190793 0.363398
vt 0.357517 0.024468
vt 0.905756 0.526875
vt 0.905756 0.435265
vt 0.915546 0.526050
vt 0.126723 0.290472
vt 0.586954 0.287945
vt 0.823113 0.340967
vt 0.823113 0.437428
vt 0.810406 0.425978
vt 0.502647 0.041273
vt 0.520395 0.110988
vt 0.483373 0.054273
vt 0.084016 0.491065
vt 0.063183 0.428339
vt 0.085732 0.420132
vt 0.461645 0.024802
vt 0.225431 0.131259
vt 0.592862 0.758278
vt 0.681868 0.788181
vt 0.666340 0.824761
vt 0.591732 0.806554
vt 0.149344 0.088926
vt 0.246099 0.070308
vt 0.153086 0.099208
vt 0.146127 0.068889
vt 0.086367 0.385632
vt 0.086367 0.279688
vt 0.126151 0.294780
vt 0.223187 0.220067
vt 0.224490 0.182760
vt 0.324011 0.184122
vt 0.785966 0.594780
vt 0.785966 0.693964
vt 0.761232 0.595122
vt 0.443091 0.837277
vt 0.310944 0.701399
vt 0.336585 0.707855
vt 0.656523 0.897250
vt 0.562245 0.997266
vt 0.522193 0.931574
vt 0.562245 0.932718
vt 0.491769 0.994496
vt 0.788178 0.857283
vt 0.441990 0.327273
vt 0.372358 0.359226
vt 0.326840 0.335553
vt 0.263550 0.472040
vt 0.255483 0.442345
vt 0.546202 0.012774
vt 0.643096 0.012774
vt 0.599241 0.074051
vt 0.032381 0.228458
vt 0.381160 0.707581
vt 0.919092 0.427687
vt 0.919092 0.519310
vt 0.906249 0.431732
vt 0.850953 0.804984
vt 0.349115 0.681535
vt 0.427514 0.681745
vt 0.434940 0.224218
vt 0.363685 0.255402
vt 0.432937 0.193647
vt 0.330920 0.278623
vt 0.866567 0.343144
vt 0.624068 0.929060
vt 0.696982 0.929060
vt 0.687993 0.957361
vt 0.864625 0.382978
vt 0.848652 0.382978
vt 0.850103 0.287895
vt 0.330231 0.578242
vt 0.464904 0.578242
vt 0.330149 0.592884
vt 0.908513 0.289088
vt 0.928264 0.195877
vt 0.553320 0.102205
vt 0.648117 0.127606
vt 0.546229 0.127982
vt 0.217025 0.574533
vt 0.217163 0.644814
vt 0.188802 0.635058
vt 0.794759 0.415991
vt 0.803929 0.409570
vt 0.799787 0.508148
vt 0.135719 0.941337
vt 0.055599 0.941337
vt 0.132429 0.898138
vt 0.098771 0.558225
vt 0.245372 0.001782
vt 0.341706 0.001028
vt 0.075050 0.386775
vt 0.236944 0.945195
vt 0.315303 0.945195
vt 0.312343 0.958894
vt 0.622094 0.905816
vt 0.700433 0.919630
vt 0.614560 0.920534
vt 0.893061 0.646039
vt 0.893061 0.555879
vt 0.910069 0.642584
vt 0.050152 0.725952
vt 0.080636 0.725583
vt 0.080636 0.819797
vt 0.608425 0.923294
vt 0.611716 0.932334
vt 0.531646 0.930789
vt 0.049601 0.820605
vt 0.435517 0.130651
vt 0.079836 0.612525
vt 0.106116 0.654681
vt 0.068666 0.666849
vt 0.188860 0.700075
vt 0.671300 0.337957
vt 0.695530 0.328131
vt 0.670263 0.401805
vt 0.240274 0.659233
vt 0.667923 0.299356
vt 0.834137 0.010410
vt 0.864600 0.000512
vt 0.867024 0.099437
vt 0.189465 0.311396
vt 0.423342 0.291665
vt 0.310126 0.291665
vt 0.396885 0.242914
vt 0.376112 0.078958
vt 0.270159 0.076379
vt 0.362913 0.044065
vt 0.627952 0.424256
vt 0.682479 0.463065
vt 0.619894 0.519416
vt 0.776931 0.184019
vt 0.785241 0.089042
vt 0.786925 0.189100
vt 0.360836 0.406366
vt 0.358540 0.414937
vt 0.231794 0.408693
vt 0.735772 0.144829
vt 0.144463 0.570888
vt 0.974251 0.810683
vt 0.330311 0.519638
vt 0.465247 0.519638
vt 0.331588 0.533870
vt 0.464968 0.457549
vt 0.471932 0.458777
vt 0.467763 0.591416
vt 0.144400 0.848685
vt 0.157973 0.852322
vt 0.150055 0.931224
vt 0.281799 0.575845
vt 0.281799 0.445431
vt 0.287105 0.576780
vt 0.471146 0.638836
vt 0.467624 0.637554
vt 0.471295 0.511088
vt 0.982927 0.639857
vt 0.996376 0.636253
vt 0.990212 0.719123
vt 0.794637 0.752794
vt 0.810503 0.995816
vt 0.492176 0.441483
vt 0.365694 0.441483
vt 0.493468 0.434842
vt 0.491608 0.511910
vt 0.491608 0.643169
vt 0.484162 0.644577
vt 0.590993 0.760243
vt 0.536010 0.835920
vt 0.466554 0.782702
vt 0.630738 0.748511
vt 0.726441 0.740138
vt 0.730191 0.751028
vt 0.928569 0.325392
vt 0.928569 0.239979
vt 0.973500 0.323923
vt 0.754107 0.595832
vt 0.423847 0.940375
vt 0.430045 0.863472
vt 0.346189 0.890719
vt 0.336740 0.851836
vt 0.442341 0.363007
vt 0.444068 0.369452
vt 0.317669 0.364579
vt 0.493284 0.927014
vt 0.167228 0.982621
vt 0.167228 0.924497
vt 0.201778 0.970719
vt 0.868253 0.584434
vt 0.868253 0.494100
vt 0.874806 0.490780
vt 0.905243 0.527686
vt 0.914040 0.527686
vt 0.909676 0.619210
vt 0.457394 0.065048
vt 0.797385 0.225217
vt 0.797385 0.323496
vt 0.787673 0.323115
vt 0.531725 0.929668
vt 0.528124 0.921946
vt 0.609180 0.921922
vt 0.030497 0.154681
vt 0.878258 0.620486
vt 0.878258 0.715203
vt 0.868839 0.714648
vt 0.448970 0.761144
vt 0.464710 0.758369
vt 0.464330 0.848900
vt 0.787905 0.868931
vt 0.094903 0.090607
vt 0.127800 0.001082
vt 0.233602 0.901604
vt 0.233602 0.962101
vt 0.197493 0.959760
vt 0.054545 0.026967
vt 0.057175 0.617465
vt 0.068014 0.617465
vt 0.067819 0.715701
vt 0.056633 0.093276
vt 0.802203 0.409338
vt 0.746701 0.378927
vt 0.293388 0.627409
vt 0.297133 0.520168
vt 0.345178 0.643891
vt 0.807839 0.497265
vt 0.836280 0.484003
vt 0.826039 0.525290
vt 0.083481 0.722659
vt 0.127195 0.707060
vt 0.811991 0.428773
vt 0.868352 0.902903
vt 0.898561 0.816273
vt 0.948055 0.952149
vt 0.995913 0.917378
vt 0.993983 0.985197
vt 0.666358 0.837337
vt 0.816947 0.620727
vt 0.315708 0.320685
vt 0.790587 0.003699
vt 0.821731 0.013818
vt 0.801981 0.068487
vt 0.929062 0.172129
vt 0.929062 0.087997
vt 0.966950 0.173487
vt 0.167601 0.899807
vt 0.654699 0.548990
vt 0.800680 0.632652
vt 0.838532 0.682909
vt 0.338768 0.844800
vt 0.338768 0.753888
vt 0.349269 0.757432
vt 0.966677 0.811808
vt 0.966677 0.894906
vt 0.952556 0.819629
vt 0.372385 0.382594
vt 0.242961 0.382594
vt 0.369883 0.374599
vt 0.922056 0.019096
vt 0.997400 0.001701
vt 0.921832 0.029091
vt 0.564707 0.327532
s 1
usemtl Material
f 1/1/1 2/2/2 3/3/3
f 1/4/1 4/5/4 5/6/5
f 1/7/1 6/8/6 2/9/2
f 1/10/1 5/11/5 7/12/7
f 1/4/1 8/13/8 4/5/4
f 1/14/1 3/15/3 8/16/8
f 1/17/1 7/18/7 9/19/9
f 1/7/1 9/20/9 6/8/6
f 10/21/10 11/22/11 12/23/12
f 10/24/10 13/25/13 14/26/14
f 10/27/10 12/28/12 13/29/13
f 10/30/10 15/31/15 16/32/16
f 10/21/10 17/33/17 11/22/11
f 10/34/10 16/35/16 17/36/17
f 10/37/10 14/38/14 15/39/15
f 18/40/18 19/41/19 20/42/20
f 18/43/18 21/44/21 22/45/22
f 18/46/18 22/47/22 23/48/23
f 18/43/18 20/49/20 21/44/21
f 18/50/18 23/51/23 19/52/19
f 19/53/19 24/54/24 20/55/20
f 19/56/19 25/57/25 24/58/24
f 19/59/19 26/60/26 25/61/25
f 19/62/19 23/63/23 26/64/26
f 27/65/27 28/66/28 29/67/29
f 27/65/27 30/68/30 31/69/31
f 27/65/27 31/69/31 28/66/28
f 27/70/27 29/71/29 32/72/32
f 27/70/27 32/72/32 30/73/30
f 33/74/33 34/75/34 35/76/35
f 33/74/33 36/77/36 37/78/37
f 33/74/33 38/79/38 39/80/39
f 33/74/33 37/78/37 34/75/34
f 33/81/33 35/82/35 38/83/38
f 33/74/33 39/80/39 36/77/36
f 40/84/40 41/85/41 42/86/42
f 40/87/40 43/88/43 44/89/44
f 40/90/40 45/91/45 43/92/43
f 40/93/40 42/94/42 45/95/45
f 40/84/40 46/96/46 41/85/41
f 40/97/40 44/98/44 46/99/46
f 47/100/47 48/101/48 49/102/49
f 47/103/47 50/104/50 48/105/48
f 47/106/47 51/107/51 52/108/52
f 47/109/47 52/110/52 53/111/53
f 47/112/47 49/113/49 51/114/51
f 54/115/54 55/116/55 56/117/56
f 54/118/54 56/119/56 57/120/57
f 54/121/54 58/122/58 59/123/59
f 54/121/54 59/123/59 55/124/55
f 54/125/54 57/126/57 58/127/58
f 60/128/60 61/129/61 62/130/62
f 60/131/60 63/132/63 61/133/61
f 60/134/60 64/135/64 65/136/65
f 60/137/60 66/138/66 64/139/64
f 60/131/60 65/140/65 63/132/63
f 60/137/60 62/141/62 66/138/66
f 67/142/67 68/143/68 69/144/69
f 67/145/67 70/146/70 68/147/68
f 67/148/67 71/149/71 70/150/70
f 67/151/67 69/152/69 72/153/72
f 67/154/67 72/155/72 73/156/73
f 67/157/67 73/158/73 71/159/71
f 74/160/74 75/161/75 76/162/76
f 74/163/74 77/164/77 78/165/78
f 74/166/74 76/167/76 77/168/77
f 74/169/74 78/170/78 79/171/79
f 74/169/74 79/171/79 75/172/75
f 2/173/2 80/174/80 81/175/81
f 2/176/2 6/177/6 80/178/80
f 2/179/2 81/180/81 3/181/3
f 82/182/82 83/183/83 84/184/84
f 82/185/82 85/186/85 86/187/86
f 82/188/82 87/189/87 85/190/85
f 82/191/82 86/192/86 83/193/83
f 82/194/82 88/195/88 89/196/89
f 82/197/82 89/198/89 87/199/87
f 82/200/82 84/201/84 88/202/88
f 90/203/90 21/204/21 91/205/91
f 90/203/90 22/206/22 21/204/21
f 90/207/90 92/208/92 93/209/93
f 90/203/90 91/205/91 92/210/92
f 90/203/90 93/211/93 22/206/22
f 94/212/94 95/213/95 96/214/96
f 94/215/94 97/216/97 98/217/98
f 94/218/94 99/219/99 95/220/95
f 94/221/94 96/222/96 97/223/97
f 94/224/94 100/225/100 99/226/99
f 94/224/94 98/227/98 100/225/100
f 101/228/101 102/229/102 103/230/103
f 101/231/101 104/232/104 105/233/105
f 101/234/101 103/235/103 106/236/106
f 101/231/101 106/237/106 104/232/104
f 101/231/101 105/233/105 107/238/107
f 101/239/101 107/240/107 102/241/102
f 11/242/11 108/243/108 109/244/109
f 11/242/11 17/245/17 108/243/108
f 11/22/11 109/246/109 12/23/12
f 21/247/21 110/248/110 91/249/91
f 21/250/21 20/251/20 111/252/111
f 21/253/21 111/254/111 110/255/110
f 112/256/112 38/257/38 49/258/49
f 112/259/112 113/260/113 39/261/39
f 112/259/112 114/262/114 113/260/113
f 112/256/112 39/263/39 38/257/38
f 112/259/112 49/264/49 114/262/114
f 115/265/115 116/266/116 117/267/117
f 115/268/115 118/269/118 119/270/119
f 115/271/115 119/272/119 120/273/120
f 115/265/115 117/267/117 118/274/118
f 115/275/115 120/276/120 116/277/116
f 121/278/121 4/279/4 8/280/8
f 121/281/121 8/282/8 122/283/122
f 121/284/121 123/285/123 124/286/124
f 121/287/121 125/288/125 123/289/123
f 121/278/121 126/290/126 4/279/4
f 121/287/121 122/291/122 125/288/125
f 121/278/121 124/292/124 126/290/126
f 127/293/127 128/294/128 129/295/129
f 127/293/127 129/295/129 130/296/130
f 127/297/127 130/298/130 131/299/131
f 127/293/127 132/300/132 128/294/128
f 127/293/127 131/301/131 132/300/132
f 133/302/133 134/303/134 135/304/135
f 133/305/133 136/306/136 134/307/134
f 133/308/133 137/309/137 136/310/136
f 133/308/133 138/311/138 137/309/137
f 133/312/133 135/313/135 138/314/138
f 83/315/83 28/316/28 31/317/31
f 83/318/83 31/319/31 84/320/84
f 83/315/83 86/321/86 139/322/139
f 83/315/83 139/322/139 28/316/28
f 140/323/140 141/324/141 142/325/142
f 140/326/140 142/327/142 61/328/61
f 140/326/140 61/328/61 63/329/63
f 140/330/140 63/331/63 120/332/120
f 140/333/140 120/334/120 141/335/141
f 143/336/143 144/337/144 145/338/145
f 143/339/143 145/340/145 146/341/146
f 143/342/143 147/343/147 59/344/59
f 143/345/143 146/346/146 147/347/147
f 143/348/143 59/349/59 144/350/144
f 68/351/68 70/352/70 76/353/76
f 68/354/68 97/355/97 96/356/96
f 68/357/68 148/358/148 97/359/97
f 68/354/68 96/356/96 69/360/69
f 68/351/68 76/353/76 149/361/149
f 68/362/68 149/363/149 148/364/148
f 150/365/150 80/178/80 6/177/6
f 150/366/150 6/367/6 9/368/9
f 150/365/150 56/369/56 80/178/80
f 150/370/150 9/371/9 57/372/57
f 150/373/150 57/374/57 56/375/56
f 151/376/151 152/377/152 153/378/153
f 151/379/151 154/380/154 113/381/113
f 151/382/151 153/383/153 155/384/155
f 151/379/151 113/381/113 114/385/114
f 151/386/151 155/387/155 154/388/154
f 151/389/151 114/390/114 152/391/152
f 156/392/156 157/393/157 53/111/53
f 156/394/156 158/395/158 159/396/159
f 156/394/156 160/397/160 158/395/158
f 156/398/156 53/399/53 160/400/160
f 156/394/156 159/396/159 157/401/157
f 134/307/134 136/306/136 161/402/161
f 134/307/134 161/402/161 162/403/162
f 134/307/134 162/403/162 135/404/135
f 144/405/144 163/406/163 164/407/164
f 144/408/144 164/409/164 71/410/71
f 144/337/144 71/411/71 145/338/145
f 144/405/144 58/412/58 163/406/163
f 144/413/144 59/414/59 58/415/58
f 34/416/34 165/417/165 35/418/35
f 34/416/34 37/419/37 165/417/165
f 95/420/95 99/421/99 23/422/23
f 95/213/95 69/423/69 96/214/96
f 95/424/95 72/425/72 69/426/69
f 95/427/95 23/428/23 72/429/72
f 166/430/166 167/431/167 168/432/168
f 166/433/166 169/434/169 153/435/153
f 166/430/166 153/436/153 167/431/167
f 166/433/166 168/437/168 170/438/170
f 166/433/166 170/438/170 169/434/169
f 171/439/171 141/335/141 119/440/119
f 171/441/171 118/442/118 172/443/172
f 171/444/171 172/445/172 173/446/173
f 171/439/171 174/447/174 141/335/141
f 171/448/171 119/449/119 118/450/118
f 171/439/171 173/451/173 174/447/174
f 175/452/175 5/453/5 16/454/16
f 175/455/175 15/456/15 176/457/176
f 175/458/175 7/459/7 5/460/5
f 175/452/175 16/454/16 15/461/15
f 175/462/175 176/463/176 7/464/7
f 177/465/177 102/466/102 178/467/178
f 177/465/177 179/468/179 180/469/180
f 177/465/177 103/470/103 102/466/102
f 177/465/177 181/471/181 103/470/103
f 177/465/177 180/469/180 181/471/181
f 177/472/177 178/473/178 179/474/179
f 75/475/75 79/476/79 149/477/149
f 75/475/75 149/477/149 76/478/76
f 182/479/182 183/480/183 184/481/184
f 182/479/182 174/482/174 173/483/173
f 182/479/182 184/481/184 174/482/174
f 182/484/182 185/485/185 186/486/186
f 182/484/182 186/486/186 183/487/183
f 182/479/182 173/483/173 185/488/185
f 187/489/187 188/490/188 117/491/117
f 187/492/187 189/493/189 89/494/89
f 187/495/187 190/496/190 189/497/189
f 187/489/187 88/498/88 188/490/188
f 187/499/187 117/500/117 191/501/191
f 187/492/187 89/494/89 88/502/88
f 187/499/187 191/501/191 190/503/190
f 192/504/192 55/505/55 147/506/147
f 192/507/192 193/508/193 55/509/55
f 192/510/192 147/347/147 194/511/194
f 192/512/192 110/255/110 111/254/111
f 192/513/192 194/514/194 91/249/91
f 192/515/192 111/516/111 193/517/193
f 192/513/192 91/249/91 110/248/110
f 195/518/195 196/519/196 53/399/53
f 195/520/195 197/521/197 196/522/196
f 195/523/195 53/111/53 52/110/52
f 195/524/195 198/525/198 197/526/197
f 195/524/195 52/527/52 198/525/198
f 199/528/199 200/529/200 201/530/201
f 199/531/199 201/532/201 32/533/32
f 199/534/199 202/535/202 200/536/200
f 199/534/199 29/537/29 202/535/202
f 199/538/199 32/72/32 29/71/29
f 203/539/203 204/540/204 205/541/205
f 203/542/203 206/543/206 207/544/207
f 203/539/203 208/545/208 204/540/204
f 203/546/203 207/547/207 208/548/208
f 203/542/203 205/549/205 206/543/206
f 41/550/41 209/551/209 210/552/210
f 41/550/41 211/553/211 209/551/209
f 41/85/41 210/554/210 42/86/42
f 41/550/41 46/555/46 211/553/211
f 136/556/136 137/557/137 212/558/212
f 136/559/136 212/560/212 161/561/161
f 163/562/163 58/127/58 57/126/57
f 163/563/163 213/564/213 164/565/164
f 163/563/163 9/566/9 213/564/213
f 163/562/163 57/126/57 9/567/9
f 4/568/4 126/569/126 5/570/5
f 214/571/214 215/572/215 216/573/216
f 214/574/214 130/575/130 217/576/217
f 214/574/214 218/577/218 130/575/130
f 214/571/214 217/578/217 215/572/215
f 214/574/214 216/579/216 218/577/218
f 70/580/70 13/581/13 76/582/76
f 70/583/70 164/584/164 14/585/14
f 70/586/70 71/587/71 164/588/164
f 70/589/70 14/590/14 13/591/13
f 80/592/80 219/593/219 193/594/193
f 80/592/80 193/594/193 81/595/81
f 80/178/80 56/369/56 219/596/219
f 220/597/220 13/598/13 12/599/12
f 220/597/220 12/599/12 221/600/221
f 220/601/220 221/602/221 222/603/222
f 220/604/220 222/605/222 77/606/77
f 220/607/220 77/168/77 13/608/13
f 196/609/196 43/92/43 45/91/45
f 196/610/196 197/611/197 43/612/43
f 196/519/196 45/613/45 160/400/160
f 196/519/196 160/400/160 53/399/53
f 97/614/97 148/615/148 223/616/223
f 97/614/97 223/616/223 98/617/98
f 200/618/200 202/619/202 107/620/107
f 200/529/200 224/621/224 201/530/201
f 200/622/200 105/233/105 224/623/224
f 200/618/200 107/620/107 105/624/105
f 225/625/225 204/626/204 109/627/109
f 225/628/225 123/629/123 226/630/226
f 225/625/225 226/631/226 204/626/204
f 225/632/225 109/633/109 124/286/124
f 225/632/225 124/286/124 123/285/123
f 227/634/227 228/635/228 103/636/103
f 227/637/227 103/638/103 181/639/181
f 227/637/227 181/639/181 229/640/229
f 227/641/227 229/642/229 198/643/198
f 227/641/227 198/643/198 228/644/228
f 137/645/137 138/646/138 79/647/79
f 137/648/137 208/548/208 207/547/207
f 137/648/137 207/547/207 212/649/212
f 137/650/137 230/651/230 208/652/208
f 137/653/137 79/654/79 230/655/230
f 188/656/188 231/657/231 232/658/232
f 188/656/188 232/658/232 117/659/117
f 188/490/188 88/498/88 231/660/231
f 233/661/233 234/662/234 24/663/24
f 233/664/233 235/665/235 206/666/206
f 233/667/233 206/543/206 205/549/205
f 233/668/233 125/669/125 234/670/234
f 233/671/233 24/672/24 235/673/235
f 233/674/233 226/675/226 125/676/125
f 233/677/233 205/678/205 226/679/226
f 128/680/128 236/681/236 237/682/237
f 128/683/128 237/684/237 129/685/129
f 128/686/128 132/687/132 44/688/44
f 128/686/128 44/688/44 236/689/236
f 157/690/157 238/691/238 50/104/50
f 157/692/157 159/693/159 238/694/238
f 239/695/239 215/696/215 178/697/178
f 239/698/239 240/699/240 241/700/241
f 239/701/239 202/702/202 240/703/240
f 239/701/239 107/704/107 202/702/202
f 239/695/239 216/705/216 215/696/215
f 239/706/239 241/707/241 216/708/216
f 239/709/239 178/710/178 107/711/107
f 204/712/204 221/713/221 109/714/109
f 204/715/204 208/716/208 242/717/242
f 204/718/204 226/679/226 205/678/205
f 204/719/204 242/720/242 221/721/221
f 243/722/243 85/723/85 244/724/244
f 243/725/243 218/726/218 86/727/86
f 243/728/243 86/729/86 85/730/85
f 243/731/243 132/300/132 131/301/131
f 243/732/243 244/733/244 132/734/132
f 243/735/243 131/299/131 218/736/218
f 152/377/152 167/737/167 153/378/153
f 152/738/152 245/739/245 246/740/246
f 152/377/152 246/741/246 167/737/167
f 152/742/152 114/743/114 245/744/245
f 141/324/141 174/745/174 184/746/184
f 141/324/141 184/746/184 142/325/142
f 141/335/141 120/334/120 119/440/119
f 13/608/13 77/168/77 76/167/76
f 236/747/236 247/748/247 248/749/248
f 236/750/236 43/751/43 247/752/247
f 236/681/236 248/753/248 237/682/237
f 236/754/236 44/755/44 43/756/43
f 249/757/249 250/758/250 251/759/251
f 249/760/249 252/761/252 250/762/250
f 249/757/249 251/759/251 253/763/253
f 249/764/249 168/765/168 252/766/252
f 249/764/249 253/767/253 168/765/168
f 116/768/116 63/769/63 65/770/65
f 116/771/116 65/772/65 191/773/191
f 116/774/116 120/332/120 63/331/63
f 116/771/116 191/773/191 117/775/117
f 102/776/102 107/777/107 178/778/178
f 161/779/161 235/780/235 24/781/24
f 161/782/161 212/783/212 235/784/235
f 161/785/161 254/786/254 162/787/162
f 161/788/161 24/789/24 25/790/25
f 161/785/161 25/791/25 254/786/254
f 28/316/28 139/322/139 29/792/29
f 36/793/36 154/794/154 37/795/37
f 36/793/36 113/796/113 154/794/154
f 36/793/36 39/797/39 113/796/113
f 255/798/255 158/799/158 42/800/42
f 255/801/255 210/554/210 256/802/256
f 255/801/255 42/86/42 210/554/210
f 255/798/255 256/803/256 158/799/158
f 257/804/257 245/805/245 48/806/48
f 257/807/257 48/105/48 50/104/50
f 257/808/257 238/809/238 258/810/258
f 257/811/257 50/812/50 238/813/238
f 257/804/257 258/814/258 245/805/245
f 164/815/164 213/816/213 176/817/176
f 164/584/164 176/818/176 14/585/14
f 142/819/142 183/820/183 259/821/259
f 142/819/142 184/822/184 183/820/183
f 142/819/142 259/821/259 61/823/61
f 215/572/215 217/578/217 178/824/178
f 85/825/85 211/826/211 244/827/244
f 85/828/85 87/829/87 170/830/170
f 85/831/85 253/832/253 211/833/211
f 85/834/85 170/835/170 253/836/253
f 201/837/201 224/838/224 260/839/260
f 201/840/201 260/841/260 32/842/32
f 12/843/12 109/844/109 221/845/221
f 247/846/247 43/847/43 197/848/197
f 247/849/247 197/850/197 229/851/229
f 247/748/247 229/852/229 248/749/248
f 148/364/148 138/853/138 223/854/223
f 148/364/148 149/363/149 138/853/138
f 104/855/104 228/856/228 261/857/261
f 104/232/104 224/623/224 105/233/105
f 104/855/104 106/858/106 228/856/228
f 104/859/104 261/860/261 224/861/224
f 189/862/189 262/863/262 263/864/263
f 189/865/189 263/866/263 89/867/89
f 189/868/189 64/869/64 262/870/262
f 189/497/189 190/496/190 64/871/64
f 264/872/264 38/83/38 35/82/35
f 264/873/264 265/874/265 198/875/198
f 264/876/264 35/877/35 265/878/265
f 264/872/264 51/879/51 38/83/38
f 264/880/264 198/881/198 52/882/52
f 264/883/264 52/884/52 51/885/51
f 5/886/5 266/887/266 16/888/16
f 5/889/5 126/890/126 266/891/266
f 234/892/234 3/893/3 81/894/81
f 234/892/234 81/894/81 24/895/24
f 234/896/234 125/897/125 122/898/122
f 234/896/234 122/898/122 3/899/3
f 129/900/129 267/901/267 130/902/130
f 129/903/129 237/904/237 268/905/268
f 129/900/129 268/906/268 267/901/267
f 138/314/138 135/313/135 223/907/223
f 138/908/138 149/909/149 79/910/79
f 228/911/228 265/912/265 186/913/186
f 228/914/228 106/236/106 103/235/103
f 228/915/228 186/916/186 269/917/269
f 228/911/228 198/918/198 265/912/265
f 228/856/228 269/919/269 261/857/261
f 15/920/15 14/921/14 176/922/176
f 179/923/179 267/924/267 268/925/268
f 179/926/179 217/927/217 267/928/267
f 179/923/179 268/925/268 180/929/180
f 179/474/179 178/473/178 217/930/217
f 235/931/235 212/932/212 207/933/207
f 235/931/235 207/933/207 206/934/206
f 30/935/30 270/936/270 31/937/31
f 30/935/30 271/938/271 270/936/270
f 30/939/30 260/940/260 271/941/271
f 30/942/30 32/943/32 260/944/260
f 154/945/154 155/946/155 66/947/66
f 154/794/154 66/948/66 37/795/37
f 209/949/209 211/950/211 253/763/253
f 209/551/209 251/951/251 210/552/210
f 209/949/209 253/763/253 251/759/251
f 99/952/99 254/953/254 26/954/26
f 99/952/99 100/955/100 254/953/254
f 99/421/99 26/956/26 23/422/23
f 240/699/240 202/957/202 29/958/29
f 240/699/240 29/958/29 139/959/139
f 240/699/240 139/959/139 241/700/241
f 61/129/61 165/960/165 62/130/62
f 61/129/61 259/961/259 165/960/165
f 145/962/145 71/963/71 272/964/272
f 145/340/145 272/965/272 146/341/146
f 167/431/167 246/966/246 168/432/168
f 8/967/8 3/968/3 122/969/122
f 221/602/221 242/970/242 222/603/222
f 248/749/248 229/852/229 180/971/180
f 248/749/248 180/971/180 237/972/237
f 250/762/250 273/973/273 274/974/274
f 250/762/250 252/761/252 258/975/258
f 250/762/250 274/974/274 251/976/251
f 250/762/250 258/975/258 273/973/273
f 55/116/55 219/977/219 56/117/56
f 55/978/55 193/979/193 219/980/219
f 55/981/55 59/982/59 147/983/147
f 262/984/262 64/985/64 66/986/66
f 262/987/262 155/384/155 275/988/275
f 262/989/262 66/990/66 155/991/155
f 262/992/262 275/993/275 263/994/263
f 197/995/197 198/996/198 229/997/229
f 118/998/118 232/999/232 172/1000/172
f 118/1001/118 117/659/117 232/658/232
f 183/487/183 265/1002/265 259/1003/259
f 183/487/183 186/486/186 265/1002/265
f 267/928/267 217/927/217 130/1004/130
f 270/1005/270 172/1006/172 231/1007/231
f 270/1008/270 231/1009/231 84/1010/84
f 270/1011/270 271/1012/271 185/1013/185
f 270/1014/270 185/1015/185 173/1016/173
f 270/1017/270 84/1018/84 31/1019/31
f 270/1014/270 173/1016/173 172/1020/172
f 123/629/123 125/1021/125 226/630/226
f 71/1022/71 73/1023/73 272/1024/272
f 169/1025/169 263/994/263 275/993/275
f 169/1026/169 87/1027/87 263/1028/263
f 169/1025/169 275/993/275 153/1029/153
f 169/1026/169 170/1030/170 87/1027/87
f 158/1031/158 45/1032/45 42/1033/42
f 158/395/158 160/397/160 45/1034/45
f 158/1035/158 256/1036/256 159/1037/159
f 273/1038/273 238/809/238 159/1039/159
f 273/1038/273 258/810/258 238/809/238
f 273/1038/273 159/1039/159 256/1040/256
f 273/1041/273 256/1042/256 274/1043/274
f 193/1044/193 111/1045/111 81/1046/81
f 263/1047/263 87/1048/87 89/1049/89
f 38/257/38 51/1050/51 49/258/49
f 172/1051/172 232/658/232 231/657/231
f 130/298/130 218/736/218 131/299/131
f 245/1052/245 114/262/114 49/264/49
f 245/1053/245 258/1054/258 246/1055/246
f 245/1056/245 49/1057/49 48/1058/48
f 231/1059/231 88/1060/88 84/1061/84
f 165/1062/165 37/1063/37 62/1064/62
f 165/1065/165 259/1066/259 35/1067/35
f 147/347/147 146/346/146 194/511/194
f 211/1068/211 46/1069/46 244/1070/244
f 222/603/222 242/970/242 78/1071/78
f 222/605/222 78/1072/78 77/606/77
f 252/1073/252 246/1074/246 258/1075/258
f 252/1076/252 168/1077/168 246/1078/246
f 81/1079/81 20/1080/20 24/1081/24
f 81/1082/81 111/1083/111 20/1084/20
f 266/1085/266 126/1086/126 108/1087/108
f 266/1088/266 108/243/108 17/245/17
f 266/887/266 17/1089/17 16/888/16
f 208/1090/208 230/1091/230 242/1092/242
f 37/1093/37 66/1094/66 62/1095/62
f 254/953/254 100/955/100 162/1096/162
f 254/1097/254 25/1098/25 26/1099/26
f 218/1100/218 276/1101/276 86/1102/86
f 218/1103/218 216/1104/216 276/1105/276
f 237/1106/237 180/929/180 268/925/268
f 7/1107/7 213/1108/213 9/1109/9
f 7/1110/7 176/1111/176 213/1112/213
f 146/341/146 272/965/272 194/1113/194
f 72/1114/72 93/1115/93 73/1116/73
f 72/1117/72 23/1118/23 93/1119/93
f 224/861/224 261/860/261 277/1120/277
f 224/838/224 277/1121/277 260/839/260
f 22/47/22 93/1122/93 23/48/23
f 251/1123/251 274/1124/274 210/1125/210
f 271/1126/271 260/839/260 277/1121/277
f 271/1127/271 269/1128/269 185/1129/185
f 271/1126/271 277/1121/277 269/1130/269
f 64/1131/64 190/1132/190 65/772/65
f 265/1133/265 35/1134/35 259/1135/259
f 92/1136/92 194/1137/194 272/1138/272
f 92/1139/92 272/1024/272 93/1140/93
f 92/1136/92 91/1141/91 194/1137/194
f 100/1142/100 98/1143/98 135/313/135
f 100/1144/100 135/1145/135 162/1146/162
f 276/1147/276 216/708/216 241/707/241
f 276/1148/276 139/322/139 86/321/86
f 276/1149/276 241/700/241 139/959/139
f 73/1023/73 93/1140/93 272/1024/272
f 153/383/153 275/988/275 155/384/155
f 126/1150/126 124/1151/124 108/1152/108
f 108/1153/108 124/1154/124 109/1155/109
f 181/639/181 180/1156/180 229/640/229
f 223/907/223 135/313/135 98/1143/98
f 210/1157/210 274/1043/274 256/1042/256
f 190/1132/190 191/773/191 65/772/65
f 242/1158/242 230/1159/230 78/170/78
f 132/1160/132 244/1161/244 44/1162/44
f 244/1163/244 46/1164/46 44/1165/44
f 78/170/78 230/1159/230 79/171/79
f 168/1166/168 253/1167/253 170/1168/170
f 185/1169/185 269/1170/269 186/1171/186
f 261/857/261 269/919/269 277/1172/277
f 47/109/47 53/111/53 157/393/157
f 47/103/47 157/690/157 50/104/50
